<svg width="26" height="26" viewBox="0 0 26 26" fill="none" xmlns="http://www.w3.org/2000/svg">
<path d="M19.6253 1.13194C19.9673 0.77781 20.3764 0.495343 20.8288 0.301022C21.2812 0.106701 21.7677 0.00441809 22.26 0.000139993C22.7523 -0.0041381 23.2406 0.0896751 23.6962 0.276105C24.1519 0.462536 24.5659 0.737849 24.914 1.08598C25.2621 1.43412 25.5375 1.8481 25.7239 2.30377C25.9103 2.75944 26.0041 3.24768 25.9999 3.74C25.9956 4.23231 25.8933 4.71885 25.699 5.17121C25.5047 5.62357 25.2222 6.03271 24.8681 6.37474L23.3979 7.84487L18.1551 2.60207L19.6253 1.13194ZM15.5337 5.22347L0 20.7572V26H5.2428L20.7784 10.4663L15.5319 5.22347H15.5337Z" fill="#B8BAC9"/>
</svg>
