<svg width="29" height="26" viewBox="0 0 29 26" fill="none" xmlns="http://www.w3.org/2000/svg">
<path fill-rule="evenodd" clip-rule="evenodd" d="M12.8063 0.551915C13.1598 0.198524 13.6392 0 14.139 0C14.6389 0 15.1182 0.198524 15.4717 0.551915L28.0016 13.0799C28.1786 13.2569 28.278 13.4969 28.278 13.7472C28.278 13.9975 28.1786 14.2375 28.0016 14.4145C27.8246 14.5915 27.5846 14.6909 27.3343 14.6909C27.084 14.6909 26.844 14.5915 26.667 14.4145L14.139 1.88464L1.61102 14.4145C1.43404 14.5915 1.194 14.6909 0.943712 14.6909C0.693424 14.6909 0.453387 14.5915 0.276407 14.4145C0.0994266 14.2375 0 13.9975 0 13.7472C0 13.4969 0.0994266 13.2569 0.276407 13.0799L12.8063 0.551915Z" fill="#B8BAC9"/>
<path fill-rule="evenodd" clip-rule="evenodd" d="M25.4486 23.1721V15.2418L14.1384 3.9315L2.82812 15.2418V23.1721C2.82812 23.9221 3.12603 24.6413 3.6563 25.1715C4.18657 25.7018 4.90577 25.9997 5.65569 25.9997H22.6211C23.371 25.9997 24.0902 25.7018 24.6205 25.1715C25.1507 24.6413 25.4486 23.9221 25.4486 23.1721ZM23.5636 9.03431V2.43666C23.5636 2.18669 23.4643 1.94696 23.2875 1.7702C23.1108 1.59344 22.8711 1.49414 22.6211 1.49414H20.736C20.4861 1.49414 20.2463 1.59344 20.0696 1.7702C19.8928 1.94696 19.7935 2.18669 19.7935 2.43666V5.26423L23.5636 9.03431ZM17.4679 14.2497C17.4679 16.0448 16.061 17.4997 14.3251 17.4997C12.5891 17.4997 11.1822 16.0448 11.1822 14.2497C11.1822 12.4546 12.5891 10.9997 14.3251 10.9997C16.061 10.9997 17.4679 12.4546 17.4679 14.2497ZM8.82507 23.2456C8.82507 20.7446 10.7844 18.7185 13.203 18.7185H15.4472C17.8657 18.7185 19.8251 20.7446 19.8251 23.2456C19.8251 23.662 19.4985 23.9997 19.0958 23.9997H9.55431C9.15164 23.9997 8.82507 23.662 8.82507 23.2456Z" fill="#B8BAC9"/>
</svg>
