<svg width="32" height="26" viewBox="0 0 32 26" fill="none" xmlns="http://www.w3.org/2000/svg">
<path d="M0 3.71429H32C32 1.66562 30.4056 0 28.4444 0H3.55556C1.59444 0 0 1.66562 0 3.71429ZM0 5.57143V22.2857C0 24.3344 1.59444 26 3.55556 26H28.4444C30.4056 26 32 24.3344 32 22.2857V5.57143H0ZM3.55556 21.6647C3.55556 19.9527 4.88333 18.5714 6.51667 18.5714H13.0389C14.6778 18.5714 16 19.9585 16 21.6647C16 22.0071 15.7333 22.2857 15.4056 22.2857H4.15C3.82222 22.2857 3.55556 22.0071 3.55556 21.6647ZM9.77778 16.7143C7.81667 16.7143 6.22222 15.0487 6.22222 13C6.22222 10.9513 7.81667 9.28571 9.77778 9.28571C11.7389 9.28571 13.3333 10.9513 13.3333 13C13.3333 15.0487 11.7389 16.7143 9.77778 16.7143ZM19.5556 10.2143C19.5556 9.70357 19.9556 9.28571 20.4444 9.28571H27.5556C28.0444 9.28571 28.4444 9.70357 28.4444 10.2143C28.4444 10.725 28.0444 11.1429 27.5556 11.1429H20.4444C19.9556 11.1429 19.5556 10.725 19.5556 10.2143ZM19.5556 13.9286C19.5556 13.4179 19.9556 13 20.4444 13H27.5556C28.0444 13 28.4444 13.4179 28.4444 13.9286C28.4444 14.4393 28.0444 14.8571 27.5556 14.8571H20.4444C19.9556 14.8571 19.5556 14.4393 19.5556 13.9286ZM19.5556 17.6429C19.5556 17.1321 19.9556 16.7143 20.4444 16.7143H27.5556C28.0444 16.7143 28.4444 17.1321 28.4444 17.6429C28.4444 18.1536 28.0444 18.5714 27.5556 18.5714H20.4444C19.9556 18.5714 19.5556 18.1536 19.5556 17.6429Z" fill="#E9C46A"/>
</svg>
