<svg width="31" height="26" viewBox="0 0 31 26" fill="none" xmlns="http://www.w3.org/2000/svg">
<path d="M0 19C0 16.2386 2.23858 14 5 14H14C16.7614 14 19 16.2386 19 19V26H0V19Z" fill="#B8BAC9"/>
<path fill-rule="evenodd" clip-rule="evenodd" d="M19.8571 26H31V19C31 16.2386 28.7614 14 26 14H21.1429C19.9522 14 18.8587 14.4162 18 15.111C19.1328 16.0277 19.8571 17.4292 19.8571 19V26Z" fill="#B8BAC9"/>
<path d="M9.5 12C12.8137 12 15.5 9.31371 15.5 6C15.5 2.68629 12.8137 0 9.5 0C6.18629 0 3.5 2.68629 3.5 6C3.5 9.31371 6.18629 12 9.5 12Z" fill="#B8BAC9"/>
<path d="M24 12C26.7614 12 29 9.76142 29 7C29 4.23858 26.7614 2 24 2C21.2386 2 19 4.23858 19 7C19 9.76142 21.2386 12 24 12Z" fill="#B8BAC9"/>
</svg>
