<svg width="26" height="26" viewBox="0 0 26 26" fill="none" xmlns="http://www.w3.org/2000/svg">
<path d="M6.80952 12.381C10.5703 12.381 13.619 15.4297 13.619 19.1905C13.619 22.9513 10.5703 26 6.80952 26C3.04873 26 0 22.9513 0 19.1905C0 15.4297 3.04873 12.381 6.80952 12.381ZM19.4986 0C21.0371 0 22.2843 1.24721 22.2843 2.78571V21.9762C22.2843 23.5147 21.0371 24.7619 19.4986 24.7619L12.6157 24.7629C14.0039 23.3169 14.8571 21.3533 14.8571 19.1905C14.8571 14.7459 11.2541 11.1429 6.80952 11.1429C5.71273 11.1429 4.66718 11.3623 3.71429 11.7596V2.78571C3.71429 1.24721 4.96149 0 6.5 0H19.4986ZM6.80952 22.1371C6.3825 22.1371 6.03632 22.4833 6.03632 22.9103C6.03632 23.3374 6.3825 23.6836 6.80952 23.6836C7.23655 23.6836 7.58273 23.3374 7.58273 22.9103C7.58273 22.4833 7.23655 22.1371 6.80952 22.1371ZM6.80958 14.861C6.50568 14.861 6.25292 15.08 6.2005 15.3687L6.19053 15.48V20.4293L6.2005 20.5406C6.25292 20.8294 6.50568 21.0484 6.80958 21.0484C7.11348 21.0484 7.36624 20.8294 7.41865 20.5406L7.42863 20.4293V15.48L7.41865 15.3687C7.36624 15.08 7.11348 14.861 6.80958 14.861ZM24.4524 16.0976C24.9225 16.0976 25.311 16.447 25.3725 16.9002L25.381 17.0262V18.881C25.381 19.3511 25.0316 19.7396 24.5784 19.801L24.4524 19.8095H23.5238V16.0976H24.4524ZM24.4524 11.1453C24.9225 11.1453 25.311 11.4946 25.3725 11.9478L25.381 12.0738V13.9286C25.381 14.3987 25.0316 14.7872 24.5784 14.8487L24.4524 14.8571H23.5238V11.1453H24.4524ZM24.4524 6.19288C24.9225 6.19288 25.311 6.54221 25.3725 6.99545L25.381 7.12145V8.97619C25.381 9.44629 25.0316 9.8348 24.5784 9.89629L24.4524 9.90476H23.5238V6.19288H24.4524ZM17.0213 4.33405H8.97382C8.50372 4.33405 8.11521 4.68338 8.05373 5.13662L8.04525 5.26262V7.12025C8.04525 7.59035 8.39458 7.97886 8.84782 8.04034L8.97382 8.04882H17.0213C17.4914 8.04882 17.8799 7.69949 17.9414 7.24625L17.9499 7.12025V5.26262C17.9499 4.74979 17.5341 4.33405 17.0213 4.33405Z" fill="#B8BAC9"/>
</svg>
