<svg width="26" height="26" viewBox="0 0 26 26" fill="none" xmlns="http://www.w3.org/2000/svg">
<path d="M16.4759 7.22852L11.375 11.8776V17.8755H14.625V13.3109L18.6648 9.63189L16.4759 7.22852Z" fill="#B8BAC9"/>
<path d="M13 0C8.20138 0 4.0105 2.62112 1.75825 6.5H5.7525C7.54 4.511 10.1221 3.25 13 3.25C18.3771 3.25 22.75 7.62288 22.75 13C22.75 18.3771 18.3771 22.75 13 22.75C7.62288 22.75 3.25 18.3771 3.25 13H0C0 20.1679 5.83213 26 13 26C20.1679 26 26 20.1679 26 13C26 5.83213 20.1679 0 13 0Z" fill="#B8BAC9"/>
<path d="M1.625 0L0 1.625V9.75H8.125L9.75 8.125L1.625 0Z" fill="#B8BAC9"/>
</svg>
