<svg width="78" height="60" viewBox="0 0 78 60" fill="none" xmlns="http://www.w3.org/2000/svg">
<rect x="0.130859" y="25.407" width="11.8689" height="26.3431" rx="3" fill="#CE1126"/>
<path d="M31.2853 50.388C31.8484 51.1764 32.7577 51.6443 33.7265 51.6443H42.6958C45.1359 51.6443 46.5553 48.8862 45.137 46.9006L31.6123 27.966C30.8672 26.9229 30.8672 25.5216 31.6123 24.4785L45.137 5.54395C46.5553 3.55834 45.1359 0.800228 42.6958 0.800228H33.7265C32.7577 0.800228 31.8484 1.26813 31.2853 2.05651L15.2696 24.4785C14.5245 25.5216 14.5245 26.9229 15.2696 27.966L31.2853 50.388Z" fill="#FCD219"/>
<path d="M56.6233 50.0342C58.0545 52.0184 56.6367 54.7893 54.1902 54.7893H32.6182C32.4779 54.7893 32.3378 54.8006 32.1993 54.8232C29.0369 55.3383 29.4141 60 32.6182 60L74.1328 60C75.7897 60 77.1328 58.6569 77.1328 57V56.7718C77.1328 56.1416 76.9344 55.5274 76.5657 55.0164L57.0501 27.9689C56.2969 26.9251 56.2936 25.5172 57.0417 24.4698L70.5601 5.54404C71.9784 3.55843 70.559 0.80032 68.1189 0.80032L59.1496 0.80032C58.1807 0.80032 57.2715 1.26822 56.7084 2.05661L40.6988 24.4701C39.9507 25.5173 39.954 26.925 40.7069 27.9688L56.6233 50.0342Z" fill="#013396"/>
<circle cx="6.06752" cy="17.1566" r="4.7765" fill="#00C3DE"/>
</svg>
