<svg width="51" height="47" viewBox="0 0 51 47" fill="none" xmlns="http://www.w3.org/2000/svg">
<path d="M47.4666 6.59551L43.3411 2.47119C42.714 1.84294 41.6926 1.84294 41.0643 2.47119L39.123 4.4147L45.5231 10.8147L47.4666 8.87348C48.0948 8.2441 48.0948 7.22602 47.4666 6.59551Z" fill="#FB8500"/>
<path d="M42.3252 14.0118L13.5563 42.7818L7.15542 36.3811L35.9243 7.6112L42.3252 14.0118Z" fill="#FF9800"/>
<path d="M35.9194 7.61241L39.1191 4.41052L45.5237 10.8106L42.324 14.0125L35.9194 7.61241Z" fill="#8ECAE6"/>
<path d="M7.15255 36.3844L5 44.9381L13.5548 42.7844L7.15255 36.3844Z" fill="#FFC107"/>
<path d="M6.0904 40.6126L5 44.9381L9.32432 43.8477L6.0904 40.6126Z" fill="#2A2D2F"/>
</svg>
