<svg width="24" height="26" viewBox="0 0 24 26" fill="none" xmlns="http://www.w3.org/2000/svg">
<path d="M18.4894 24.2673H0V0H12.7114L18.4894 5.77793V24.2673Z" fill="#2C86CE"/>
<path d="M17.6218 6.35622H12.1328V0.867188L17.6218 6.35622Z" fill="#E1F5FE"/>
<path d="M17.0586 21.1016L18.2132 19.9469L23.1119 24.8455L21.9573 26.0001L17.0586 21.1016Z" fill="#FFC700"/>
<path d="M13.2893 22.784C16.9375 22.784 19.895 19.8258 19.895 16.1782C19.895 12.5307 16.9375 9.57251 13.2893 9.57251C9.64114 9.57251 6.68359 12.5307 6.68359 16.1782C6.68359 19.8258 9.64114 22.784 13.2893 22.784Z" fill="#FFC700" stroke="#FFC700" stroke-width="0.5"/>
<path d="M18.4901 16.1787C18.4901 19.0509 16.1622 21.3788 13.29 21.3788C10.4172 21.3788 8.08984 19.0509 8.08984 16.1787C8.08984 13.3064 10.4172 10.9785 13.29 10.9785C16.1622 10.9785 18.4901 13.3064 18.4901 16.1787Z" fill="#2C86CE"/>
<path d="M18.4082 22.4512L19.5626 21.2956L23.1127 24.8422L21.9583 25.9978L18.4082 22.4512Z" fill="#1271A0"/>
</svg>
