<svg width="24" height="20" viewBox="0 0 24 20" fill="none" xmlns="http://www.w3.org/2000/svg">
<g clip-path="url(#clip0_1169_6740)">
<path d="M19.8751 2.82613L18.2357 1.18724C17.9865 0.937587 17.5806 0.937587 17.331 1.18724L16.5596 1.95954L19.1028 4.50275L19.8751 3.73134C20.1247 3.48124 20.1247 3.07668 19.8751 2.82613Z" fill="#FB8500"/>
<path d="M17.832 5.77319L6.40002 17.2056L3.85648 14.6622L15.2885 3.22975L17.832 5.77319Z" fill="#FF9800"/>
<path d="M15.2866 3.23022L16.5581 1.95788L19.1031 4.50111L17.8316 5.77346L15.2866 3.23022Z" fill="#8ECAE6"/>
<path d="M3.85537 14.6635L3 18.0625L6.39947 17.2067L3.85537 14.6635Z" fill="#FFC107"/>
<path d="M3.4333 16.3436L3 18.0625L4.71837 17.6292L3.4333 16.3436Z" fill="#2A2D2F"/>
</g>
<defs>
<clipPath id="clip0_1169_6740">
<rect width="24" height="20" fill="white"/>
</clipPath>
</defs>
</svg>
