<svg width="24" height="20" viewBox="0 0 24 20" fill="none" xmlns="http://www.w3.org/2000/svg">
<path d="M16.1337 16.9254H4V1H12.3419L16.1337 4.79177V16.9254Z" fill="#2C86CE"/>
<path d="M15.5641 5.17127H11.9619V1.56909L15.5641 5.17127Z" fill="#E1F5FE"/>
<path d="M15.1948 14.8479L15.9525 14.0902L19.1673 17.3049L18.4096 18.0626L15.1948 14.8479Z" fill="#FFC700"/>
<path d="M12.7212 16.0379C15.1628 16.0379 17.1422 14.0581 17.1422 11.6169C17.1422 9.17577 15.1628 7.196 12.7212 7.196C10.2797 7.196 8.30029 9.17577 8.30029 11.6169C8.30029 14.0581 10.2797 16.0379 12.7212 16.0379Z" fill="#FFC700" stroke="#FFC700" stroke-width="0.5"/>
<path d="M16.1343 11.6172C16.1343 13.5021 14.6066 15.0298 12.7217 15.0298C10.8364 15.0298 9.30908 13.5021 9.30908 11.6172C9.30908 9.73235 10.8364 8.20465 12.7217 8.20465C14.6066 8.20465 16.1343 9.73235 16.1343 11.6172Z" fill="#2C86CE"/>
<path d="M16.0806 15.7336L16.8382 14.9752L19.1679 17.3027L18.4103 18.0611L16.0806 15.7336Z" fill="#1271A0"/>
</svg>
