<svg width="24" height="20" viewBox="0 0 24 20" fill="none" xmlns="http://www.w3.org/2000/svg">
<g clip-path="url(#clip0_1255_6605)">
<rect x="1" y="4" width="22" height="13" rx="1" fill="#ECD499"/>
<path fill-rule="evenodd" clip-rule="evenodd" d="M5.60449 11.5833C4.2583 11.5833 3.16699 12.6746 3.16699 14.0208C3.16699 14.3057 3.21587 14.5792 3.30569 14.8333H11.695C11.7848 14.5792 11.8337 14.3057 11.8337 14.0208C11.8337 12.6746 10.7424 11.5833 9.39616 11.5833H5.60449ZM9.39924 16.4583H5.60141C5.60244 16.4583 5.60346 16.4583 5.60449 16.4583H9.39616C9.39719 16.4583 9.39821 16.4583 9.39924 16.4583Z" fill="#219EBC"/>
<rect x="6.41699" y="8.33334" width="2.16667" height="4.33333" rx="1" fill="#D78F2F"/>
<ellipse cx="7.49967" cy="8.87499" rx="2.16667" ry="2.70833" fill="#FEAE42"/>
<rect x="12.917" y="7.25" width="7.58333" height="1.08333" fill="#FB8500"/>
<rect x="12.917" y="9.41666" width="7.58333" height="1.08333" fill="#FB8500"/>
<rect x="12.917" y="11.5833" width="4.33333" height="1.08333" fill="#FB8500"/>
<path d="M5.33301 7.97221C5.33301 6.97503 6.14138 6.16666 7.13856 6.16666H10.0726C10.1474 6.16666 10.208 6.22728 10.208 6.30207C10.208 7.4239 9.29859 8.33332 8.17676 8.33332H5.6377C5.46942 8.33332 5.33301 8.19691 5.33301 8.02864V7.97221Z" fill="#482B0A"/>
<path d="M5.0625 7.79167C5.0625 7.49251 5.30501 7.25 5.60417 7.25V10.2292C5.30501 10.2292 5.0625 9.98665 5.0625 9.6875V7.79167Z" fill="#482B0A"/>
<path d="M9.9375 7.79167C9.9375 7.49251 9.69499 7.25 9.39583 7.25V10.2292C9.69499 10.2292 9.9375 9.98665 9.9375 9.6875V7.79167Z" fill="#482B0A"/>
<path d="M5.0625 8.33334H5.875V8.87501C5.875 9.32374 5.51123 9.68751 5.0625 9.68751V8.33334Z" fill="#482B0A"/>
<path d="M9.66699 7.52084H9.12533V9.14584C9.12533 9.445 9.36784 9.68751 9.66699 9.68751V7.52084Z" fill="#482B0A"/>
</g>
<defs>
<clipPath id="clip0_1255_6605">
<rect width="24" height="20" fill="white"/>
</clipPath>
</defs>
</svg>
