<svg width="24" height="20" viewBox="0 0 24 20" fill="none" xmlns="http://www.w3.org/2000/svg">
<g clip-path="url(#clip0_1169_6726)">
<path d="M11.5312 18.0625C16.2429 18.0625 20.0625 14.2429 20.0625 9.53125C20.0625 4.81957 16.2429 1 11.5312 1C6.81957 1 3 4.81957 3 9.53125C3 14.2429 6.81957 18.0625 11.5312 18.0625Z" fill="#F2E5C4"/>
<path d="M4.06641 1L3 2.06641V7.39844H8.33203L9.39844 6.33203L4.06641 1Z" fill="#219EBC"/>
<path d="M11.5312 1C8.38215 1 5.63189 2.72011 4.15385 5.26562H6.77508C7.94812 3.96034 9.64264 3.13281 11.5312 3.13281C15.06 3.13281 17.9297 6.00251 17.9297 9.53125C17.9297 13.06 15.06 15.9297 11.5312 15.9297C8.00251 15.9297 5.13281 13.06 5.13281 9.53125H3C3 14.2352 6.82733 18.0625 11.5312 18.0625C16.2352 18.0625 20.0625 14.2352 20.0625 9.53125C20.0625 4.82733 16.2352 1 11.5312 1Z" fill="#219EBC"/>
<path d="M13.8123 5.74371L10.4648 8.7947V12.7308H12.5977V9.73527L15.2487 7.32093L13.8123 5.74371Z" fill="#FB8500"/>
</g>
<defs>
<clipPath id="clip0_1169_6726">
<rect width="24" height="20" fill="white"/>
</clipPath>
</defs>
</svg>
