<svg width="51" height="47" viewBox="0 0 51 47" fill="none" xmlns="http://www.w3.org/2000/svg">
<rect x="2.76904" y="9.45454" width="46.6154" height="27.5455" rx="1" fill="#ECD499"/>
<path fill-rule="evenodd" clip-rule="evenodd" d="M12.5256 25.5228C9.67319 25.5228 7.36084 27.8351 7.36084 30.6875C7.36084 31.2912 7.4644 31.8706 7.65473 32.4091H25.4306C25.6209 31.8706 25.7245 31.2912 25.7245 30.6875C25.7245 27.8351 23.4121 25.5228 20.5597 25.5228H12.5256Z" fill="#219EBC"/>
<rect x="14.2471" y="18.6364" width="4.59091" height="9.18182" rx="1" fill="#D78F2F"/>
<ellipse cx="16.5406" cy="19.7841" rx="4.59091" ry="5.73864" fill="#FEAE42"/>
<rect x="28.0195" y="16.3409" width="16.0682" height="2.29545" fill="#FB8500"/>
<rect x="28.0195" y="20.9318" width="16.0682" height="2.29545" fill="#FB8500"/>
<rect x="28.0195" y="25.5228" width="9.18182" height="2.29545" fill="#FB8500"/>
<path d="M11.9497 17.8712C11.9497 15.7583 13.6626 14.0454 15.7755 14.0454H21.9923C22.1508 14.0454 22.2793 14.1739 22.2793 14.3324V14.3324C22.2793 16.7094 20.3523 18.6363 17.9753 18.6363H12.5953C12.2387 18.6363 11.9497 18.3473 11.9497 17.9907V17.8712Z" fill="#482B0A"/>
<path d="M11.377 17.4886C11.377 16.8548 11.8908 16.3409 12.5247 16.3409V16.3409V22.6534V22.6534C11.8908 22.6534 11.377 22.1396 11.377 21.5057V17.4886Z" fill="#482B0A"/>
<path d="M21.7065 17.4886C21.7065 16.8548 21.1927 16.3409 20.5588 16.3409V16.3409V22.6534V22.6534C21.1927 22.6534 21.7065 22.1396 21.7065 21.5057V17.4886Z" fill="#482B0A"/>
<path d="M11.377 18.6364H13.0985V19.7841C13.0985 20.7349 12.3278 21.5057 11.377 21.5057V21.5057V18.6364Z" fill="#482B0A"/>
<path d="M21.1333 16.9148H19.9856V20.358C19.9856 20.9918 20.4994 21.5057 21.1333 21.5057V21.5057V16.9148Z" fill="#482B0A"/>
</svg>
