<svg width="51" height="47" viewBox="0 0 51 47" fill="none" xmlns="http://www.w3.org/2000/svg">
<path d="M18.4688 19.0625C22.352 19.0625 25.5 15.9145 25.5 12.0312C25.5 8.148 22.352 5 18.4688 5C14.5855 5 11.4375 8.148 11.4375 12.0312C11.4375 15.9145 14.5855 19.0625 18.4688 19.0625Z" fill="#FEAE42"/>
<path d="M36.75 19.0625C39.8566 19.0625 42.375 16.5441 42.375 13.4375C42.375 10.3309 39.8566 7.8125 36.75 7.8125C33.6434 7.8125 31.125 10.3309 31.125 13.4375C31.125 16.5441 33.6434 19.0625 36.75 19.0625Z" fill="#FEAE42"/>
<path d="M28.3125 24.6875H11.4375C6.77719 24.6875 3 28.4647 3 33.125V41.5625H28.3125V24.6875Z" fill="#219EBC"/>
<path d="M39.5625 24.6875H28.3125V41.5625H48V33.125C48 28.4647 44.2228 24.6875 39.5625 24.6875Z" fill="#FB8500"/>
</svg>
