<svg width="51" height="47" viewBox="0 0 51 47" fill="none" xmlns="http://www.w3.org/2000/svg">
<path d="M26.4688 44.9375C38.3256 44.9375 47.9375 35.3256 47.9375 23.4688C47.9375 11.6119 38.3256 2 26.4688 2C14.6119 2 5 11.6119 5 23.4688C5 35.3256 14.6119 44.9375 26.4688 44.9375Z" fill="#F2E5C4"/>
<path d="M7.68359 2L5 4.68359V18.1016H18.418L21.1016 15.418L7.68359 2Z" fill="#219EBC"/>
<path d="M26.4688 2C18.5441 2 11.6231 6.32864 7.90365 12.7344H14.4999C17.4519 9.44966 21.7161 7.36719 26.4688 7.36719C35.3488 7.36719 42.5703 14.5887 42.5703 23.4688C42.5703 32.3488 35.3488 39.5703 26.4688 39.5703C17.5887 39.5703 10.3672 32.3488 10.3672 23.4688H5C5 35.3061 14.6314 44.9375 26.4688 44.9375C38.3061 44.9375 47.9375 35.3061 47.9375 23.4688C47.9375 11.6314 38.3061 2 26.4688 2Z" fill="#219EBC"/>
<path d="M32.209 13.9375L23.7852 21.6152V31.5204H29.1523V23.9822L35.8238 17.9065L32.209 13.9375Z" fill="#FB8500"/>
</svg>
