<svg width="835" height="499" viewBox="0 0 835 499" fill="none" xmlns="http://www.w3.org/2000/svg">
<g clip-path="url(#clip0_1222_6605)">
<rect width="835" height="499" rx="20" fill="white"/>
<path d="M0 0H835V34H618L497 142H0V0Z" fill="#219EBC"/>
<path d="M0 499H657L618 417.831L497 160H0V499Z" fill="#04496A"/>
<circle cx="51" cy="391" r="15" fill="#FFB703"/>
<path d="M43.5 395.5C44.4382 395.5 44.5467 394.375 45.9944 394.375C47.4485 394.375 47.5622 395.5 48.4972 395.5C49.4245 395.5 49.5504 394.375 51 394.375C52.4344 394.375 52.581 395.5 53.4944 395.5C54.4369 395.5 54.5391 394.375 55.9972 394.375C57.4553 394.375 57.5593 395.5 58.5 395.5V392.688C58.5 391.756 57.7801 391 56.8929 391H56.3571V385.938H54.2143V391H52.0714V385.938H49.9286V391H47.7857V385.938H45.6429V391H45.1071C44.2199 391 43.5 391.756 43.5 392.688V395.5ZM43.5 400H58.5V396.625C57.0483 396.625 56.9341 395.5 55.9972 395.5C55.0614 395.5 54.9508 396.625 53.4944 396.625C52.0599 396.625 51.9135 395.5 51 395.5C50.0575 395.5 49.9553 396.625 48.4972 396.625C47.0455 396.625 46.9314 395.5 45.9944 395.5C45.0741 395.5 44.948 396.625 43.5 396.625V400ZM55.2857 385.375C55.88 385.375 56.3571 384.874 56.3571 384.25C56.3571 383.16 55.2857 383.441 55.2857 382C54.8839 382 54.2143 383.037 54.2143 383.969C54.2143 384.9 54.6914 385.375 55.2857 385.375ZM51 385.375C51.5943 385.375 52.0714 384.874 52.0714 384.25C52.0714 383.16 51 383.441 51 382C50.5982 382 49.9286 383.037 49.9286 383.969C49.9286 384.9 50.4057 385.375 51 385.375ZM46.7143 385.375C47.3086 385.375 47.7857 384.874 47.7857 384.25C47.7857 383.16 46.7143 383.441 46.7143 382C46.3125 382 45.6429 383.037 45.6429 383.969C45.6429 384.9 46.12 385.375 46.7143 385.375Z" fill="white"/>
<circle cx="51" cy="452" r="15" fill="#FFB703"/>
<path d="M51 443C49.1442 443.002 47.365 443.748 46.0527 445.074C44.7404 446.399 44.0022 448.197 44 450.071C43.9978 451.604 44.4932 453.094 45.4102 454.314C45.4102 454.314 45.6011 454.568 45.6323 454.605L51 461L56.3703 454.602C56.3983 454.568 56.5898 454.314 56.5898 454.314L56.5904 454.312C57.507 453.093 58.0022 451.603 58 450.071C57.9978 448.197 57.2596 446.399 55.9473 445.074C54.635 443.748 52.8558 443.002 51 443V443ZM51 452.643C50.4966 452.643 50.0044 452.492 49.5858 452.209C49.1672 451.927 48.841 451.525 48.6483 451.055C48.4556 450.586 48.4052 450.069 48.5035 449.57C48.6017 449.071 48.8441 448.613 49.2001 448.253C49.5561 447.894 50.0096 447.649 50.5034 447.549C50.9972 447.45 51.509 447.501 51.9741 447.696C52.4392 447.89 52.8368 448.22 53.1165 448.643C53.3962 449.066 53.5455 449.563 53.5455 450.071C53.5446 450.753 53.2762 451.407 52.799 451.889C52.3218 452.371 51.6748 452.642 51 452.643V452.643Z" fill="white"/>
<circle cx="51" cy="330" r="15" fill="#FFB703"/>
<path fill-rule="evenodd" clip-rule="evenodd" d="M46.6359 324.071C46.6359 322.992 47.0957 321.956 47.9141 321.192C48.7325 320.429 49.8426 320 51 320C52.1574 320 53.2675 320.429 54.0859 321.192C54.9043 321.956 55.3641 322.992 55.3641 324.071C55.3641 325.151 54.9043 326.187 54.0859 326.95C53.2675 327.714 52.1574 328.143 51 328.143C49.8426 328.143 48.7325 327.714 47.9141 326.95C47.0957 326.187 46.6359 325.151 46.6359 324.071V324.071ZM43.0001 336.833C43.0328 334.874 43.89 333.005 45.3868 331.63C46.8835 330.256 48.8996 329.485 51 329.485C53.1004 329.485 55.1165 330.256 56.6132 331.63C58.11 333.005 58.9672 334.874 58.9999 336.833C59.0024 336.965 58.9637 337.095 58.8884 337.206C58.8131 337.318 58.7046 337.407 58.5761 337.462C56.1993 338.479 53.6147 339.003 51 339C48.2981 339 45.7311 338.45 43.4239 337.462C43.2954 337.407 43.1869 337.318 43.1116 337.206C43.0363 337.095 42.9976 336.965 43.0001 336.833V336.833Z" fill="white"/>
<path d="M622.28 41H835V54H608L622.28 41Z" fill="#FB8500"/>
<path d="M667.5 499H835V444H641L667.5 499Z" fill="#FFB703"/>
</g>
<defs>
<clipPath id="clip0_1222_6605">
<rect width="835" height="499" rx="20" fill="white"/>
</clipPath>
</defs>
</svg>
