<svg width="24" height="20" viewBox="0 0 24 20" fill="none" xmlns="http://www.w3.org/2000/svg">
<path d="M8.21875 7.5625C10.0309 7.5625 11.5 6.09343 11.5 4.28125C11.5 2.46907 10.0309 1 8.21875 1C6.40657 1 4.9375 2.46907 4.9375 4.28125C4.9375 6.09343 6.40657 7.5625 8.21875 7.5625Z" fill="#FEAE42"/>
<path d="M16.75 7.5625C18.1997 7.5625 19.375 6.38725 19.375 4.9375C19.375 3.48775 18.1997 2.3125 16.75 2.3125C15.3003 2.3125 14.125 3.48775 14.125 4.9375C14.125 6.38725 15.3003 7.5625 16.75 7.5625Z" fill="#FEAE42"/>
<path d="M12.8125 10.1875H4.9375C2.76269 10.1875 1 11.9502 1 14.125V18.0625H12.8125V10.1875Z" fill="#2DAEFD"/>
<path d="M18.0625 10.1875H12.8125V18.0625H22V14.125C22 11.9502 20.2373 10.1875 18.0625 10.1875Z" fill="#2583EF"/>
</svg>
