<svg width="32" height="26" viewBox="0 0 32 26" fill="none" xmlns="http://www.w3.org/2000/svg">
<path d="M11 10C13.7614 10 16 7.76142 16 5C16 2.23858 13.7614 0 11 0C8.23858 0 6 2.23858 6 5C6 7.76142 8.23858 10 11 10Z" fill="#FEAE42"/>
<path d="M24 10C26.2091 10 28 8.20914 28 6C28 3.79086 26.2091 2 24 2C21.7909 2 20 3.79086 20 6C20 8.20914 21.7909 10 24 10Z" fill="#FEAE42"/>
<path d="M18 14H6C2.686 14 0 16.686 0 20V26H18V14Z" fill="#2DAEFD"/>
<path d="M26 14H18V26H32V20C32 16.686 29.314 14 26 14Z" fill="#2583EF"/>
</svg>
