<svg width="26" height="25" viewBox="0 0 26 25" fill="none" xmlns="http://www.w3.org/2000/svg">
<path d="M18.3502 16.1613C19.8633 14.0965 20.541 11.5366 20.2477 8.99358C19.9544 6.4506 18.7118 4.11212 16.7684 2.446C14.825 0.779875 12.3242 -0.0910236 9.76622 0.00753841C7.20828 0.1061 4.78187 1.16685 2.97244 2.97758C1.16301 4.78831 0.103993 7.21547 0.00726096 9.77348C-0.0894706 12.3315 0.783217 14.8317 2.45073 16.7739C4.11824 18.7161 6.45761 19.9571 9.0008 20.2485C11.544 20.54 14.1035 19.8605 16.1671 18.3459H16.1656C16.2124 18.4084 16.2625 18.4678 16.3187 18.5256L22.335 24.5418C22.628 24.835 23.0255 24.9999 23.44 25C23.8545 25.0001 24.2521 24.8356 24.5453 24.5426C24.8386 24.2496 25.0034 23.8521 25.0035 23.4376C25.0037 23.023 24.8391 22.6254 24.5461 22.3322L18.5299 16.316C18.474 16.2594 18.4139 16.2072 18.3502 16.1597V16.1613ZM18.7533 10.1544C18.7533 11.2831 18.531 12.4007 18.0991 13.4434C17.6672 14.4862 17.0341 15.4336 16.236 16.2317C15.4379 17.0298 14.4905 17.6629 13.4477 18.0948C12.405 18.5267 11.2874 18.749 10.1587 18.749C9.03004 18.749 7.91243 18.5267 6.86968 18.0948C5.82693 17.6629 4.87946 17.0298 4.08137 16.2317C3.28329 15.4336 2.65021 14.4862 2.21829 13.4434C1.78637 12.4007 1.56406 11.2831 1.56406 10.1544C1.56406 7.87496 2.46957 5.68888 4.08138 4.07708C5.69318 2.46527 7.87926 1.55977 10.1587 1.55977C12.4381 1.55977 14.6242 2.46527 16.236 4.07708C17.8478 5.68888 18.7533 7.87496 18.7533 10.1544Z" fill="white"/>
</svg>
