<svg width="26" height="25" viewBox="0 0 26 25" fill="none" xmlns="http://www.w3.org/2000/svg">
<circle cx="13.0452" cy="12.5" r="12.5" fill="#FB8500"/>
<g clip-path="url(#clip0_588_7178)">
<path d="M13.0452 5.9375C8.67023 5.9375 4.93398 8.65875 3.42023 12.5C4.93398 16.3412 8.67023 19.0625 13.0452 19.0625C17.4202 19.0625 21.1565 16.3412 22.6702 12.5C21.1565 8.65875 17.4202 5.9375 13.0452 5.9375ZM13.0452 16.875C10.6302 16.875 8.67023 14.915 8.67023 12.5C8.67023 10.085 10.6302 8.125 13.0452 8.125C15.4602 8.125 17.4202 10.085 17.4202 12.5C17.4202 14.915 15.4602 16.875 13.0452 16.875ZM13.0452 9.875C11.5927 9.875 10.4202 11.0475 10.4202 12.5C10.4202 13.9525 11.5927 15.125 13.0452 15.125C14.4977 15.125 15.6702 13.9525 15.6702 12.5C15.6702 11.0475 14.4977 9.875 13.0452 9.875Z" fill="white"/>
</g>
<defs>
<clipPath id="clip0_588_7178">
<rect width="21" height="21" fill="white" transform="translate(2.54523 2)"/>
</clipPath>
</defs>
</svg>
