<svg width="22" height="21" viewBox="0 0 22 21" fill="none" xmlns="http://www.w3.org/2000/svg">
<g clip-path="url(#clip0_588_7174)">
<path d="M11.0452 3.9375C6.67023 3.9375 2.93398 6.65875 1.42023 10.5C2.93398 14.3412 6.67023 17.0625 11.0452 17.0625C15.4202 17.0625 19.1565 14.3412 20.6702 10.5C19.1565 6.65875 15.4202 3.9375 11.0452 3.9375ZM11.0452 14.875C8.63023 14.875 6.67023 12.915 6.67023 10.5C6.67023 8.085 8.63023 6.125 11.0452 6.125C13.4602 6.125 15.4202 8.085 15.4202 10.5C15.4202 12.915 13.4602 14.875 11.0452 14.875ZM11.0452 7.875C9.59273 7.875 8.42023 9.0475 8.42023 10.5C8.42023 11.9525 9.59273 13.125 11.0452 13.125C12.4977 13.125 13.6702 11.9525 13.6702 10.5C13.6702 9.0475 12.4977 7.875 11.0452 7.875Z" fill="white"/>
</g>
<defs>
<clipPath id="clip0_588_7174">
<rect width="21" height="21" fill="white" transform="translate(0.545227)"/>
</clipPath>
</defs>
</svg>
