<svg width="341" height="160" viewBox="0 0 341 160" fill="none" xmlns="http://www.w3.org/2000/svg">
<path d="M298.276 15.7573C285.388 24.2546 277.777 38.6068 263.399 45.3099C253.866 49.7582 243.236 50.2581 232.523 50.2406C229.323 50.2353 226.114 50.1837 222.924 50.1785C220.614 50.1747 218.323 50.1941 216.041 50.2753C176.889 51.6398 164.388 67.181 131.763 81.7625C120.346 86.8641 109.973 88.9786 100.364 88.9628C57.5221 88.9157 29.6273 46.4785 -9.5096 38.3901L-9.5099 38.5755C29.4601 46.6559 57.3735 89.0544 100.363 89.1482C110.019 89.164 120.42 87.0418 131.864 81.9248C164.537 67.3126 176.981 51.8176 216.05 50.4607C218.323 50.3794 220.614 50.36 222.923 50.3638C226.105 50.369 229.323 50.4207 232.523 50.4259C243.245 50.4435 253.912 49.9436 263.51 45.4646C277.962 38.7153 285.582 24.3553 298.405 15.8966C314.413 5.3501 333.802 -3.11334 353.858 -10.6953L353.859 -10.8883C333.766 -3.29875 314.32 5.18004 298.276 15.7573Z" fill="#D9D9D9"/>
<path d="M341.077 -5.20961C326.618 0.157282 312.769 6.16619 300.839 13.7383C295.435 17.1738 290.929 21.6612 286.534 26.3341C280.356 32.9039 274.613 39.5671 266.601 43.6781C257.662 48.2586 247.597 49.1379 236.662 49.1972C236.151 49.1963 235.641 49.1955 235.122 49.1946C231.913 49.1894 228.713 49.1378 225.541 49.1326C223.537 49.1293 221.553 49.1415 219.577 49.2077C204.068 49.6688 192.868 52.4307 182.63 57.1327C167.927 63.897 156.253 73.5856 136.465 81.9248C126.524 86.1175 118.174 87.3704 110.077 87.3571C106.868 87.3518 103.696 87.1458 100.478 86.8471C87.6064 85.6906 76.1475 82.5827 65.5904 78.1401C54.9314 73.6587 44.8126 67.819 33.6744 61.4138C21.869 54.6291 10.2778 47.3891 -2.57202 44.0394C-4.88054 43.441 -7.19852 42.9584 -9.5167 42.5916L-9.517 42.7769C-7.21738 43.1437 -4.92722 43.6263 -2.63722 44.2092C10.1662 47.5511 21.739 54.7756 33.5536 61.5681C44.6917 67.9655 54.8198 73.813 65.4881 78.3021C76.0637 82.7601 87.5597 85.8682 100.459 87.0324C103.677 87.3311 106.858 87.5294 110.077 87.5347C118.202 87.548 126.598 86.2953 136.566 82.0872C156.382 73.7326 168.066 64.0362 182.741 57.295C192.942 52.6007 204.105 49.8542 219.586 49.3854C221.552 49.3268 223.537 49.3069 225.541 49.3102C228.703 49.3154 231.912 49.3747 235.122 49.38C235.641 49.3809 236.151 49.374 236.661 49.3748C247.606 49.3233 257.717 48.444 266.712 43.8327C274.779 39.6987 280.532 33.0123 286.701 26.4425C291.096 21.7773 295.592 17.2977 300.968 13.8775C312.881 6.32083 326.71 0.319617 341.17 -5.03956C345.355 -6.59272 349.597 -8.11491 353.856 -9.62162L353.857 -9.82241C349.569 -8.30803 345.3 -6.77044 341.077 -5.20961Z" fill="#D9D9D9"/>
<path d="M344.138 -5.78385C329.578 -1.04269 315.48 4.33252 303.411 11.7113C297.951 15.0541 293.381 19.4873 288.986 24.2529C282.816 30.9463 277.425 37.7414 269.794 42.046C261.281 46.8434 251.577 48.04 240.234 48.1449C239.464 48.1514 238.703 48.1501 237.933 48.1489C234.613 48.1434 231.32 48.0917 228.083 48.0864C226.414 48.0836 224.754 48.0886 223.112 48.1323C207.77 48.5241 196.775 51.2014 186.443 56.5056C172.194 63.8267 161.149 74.1265 141.176 82.0947C133.184 85.2789 126.625 86.2335 120.383 86.2232C115.087 86.2145 110.024 85.5034 104.525 84.8611C91.0973 83.279 79.2191 81.2979 68.66 78.1296C57.9154 74.8992 47.7757 70.4882 35.6259 64.5139C23.0497 58.3303 10.986 50.7034 -2.59736 47.8699C-4.93389 47.3795 -7.2335 47.0051 -9.52402 46.7465L-9.52433 46.9318C-7.25235 47.1904 -4.97128 47.5571 -2.6533 48.0397C10.8744 50.8654 22.9289 58.4846 35.5143 64.6681C47.6734 70.6425 57.8224 75.0612 68.5855 78.2994C79.1632 81.4754 91.0599 83.4566 104.497 85.0387C109.987 85.6887 115.059 86.3998 120.383 86.4086C126.644 86.4188 133.258 85.4489 141.268 82.257C161.287 74.2734 172.342 63.9582 186.554 56.6602C196.858 51.3714 207.798 48.7018 223.121 48.3099C224.763 48.274 226.414 48.2613 228.083 48.264C231.32 48.2693 234.613 48.3288 237.933 48.3342C238.703 48.3355 239.473 48.3368 240.243 48.3303C251.596 48.2176 261.355 47.0212 269.915 42.1929C277.592 37.8652 282.992 31.047 289.162 24.3613C293.547 19.6034 298.109 15.1857 303.531 11.8582C315.591 4.49489 329.661 -0.872646 344.222 -5.62154C347.414 -6.6589 350.634 -7.70393 353.854 -8.74125L353.855 -8.94204C350.607 -7.88933 347.368 -6.8366 344.138 -5.78385Z" fill="#D9D9D9"/>
<path d="M347.211 -6.36569C332.54 -2.23481 318.202 2.50672 305.975 9.69217C300.469 12.9422 295.834 17.3135 291.439 22.1718C285.278 28.9888 280.24 35.9234 272.998 40.414C264.911 45.4207 255.569 46.9345 243.817 47.1006C242.852 47.1067 241.887 47.1129 240.932 47.1113C237.417 47.1055 233.967 47.0381 230.581 47.0325C229.264 47.0304 227.947 47.0359 226.649 47.0569C211.465 47.3718 200.692 49.9491 190.248 55.8786C176.452 63.7179 166.037 74.6443 145.879 82.2569C139.327 84.733 133.936 85.5582 128.956 85.55C122.027 85.5387 115.899 83.9068 108.583 82.8753C94.5898 80.8907 82.246 80.0209 71.7405 78.1116C60.8547 76.1321 50.759 73.1422 37.5697 67.6063C24.2505 62.0239 11.6773 54.0409 -2.62108 51.6928C-4.97632 51.3105 -7.26683 51.0365 -9.52969 50.8783L-9.53 51.0637C-7.28568 51.2218 -5.00444 51.4881 -2.66775 51.8781C11.5657 54.2106 24.1297 62.1705 37.4766 67.7761C50.6753 73.3119 60.7988 76.3096 71.6938 78.2891C82.2272 80.1985 94.5616 81.0683 108.545 83.0529C115.843 84.0843 121.98 85.7162 128.955 85.7277C133.964 85.7359 139.391 84.9107 145.971 82.427C166.176 74.7912 176.61 63.8418 190.368 56.0333C200.775 50.1191 211.502 47.5572 226.648 47.2423C227.947 47.2213 229.264 47.208 230.581 47.2101C233.966 47.2157 237.417 47.2831 240.932 47.2889C241.887 47.2905 242.852 47.2921 243.816 47.2782C255.587 47.1199 264.994 45.5985 273.128 40.561C280.416 36.0396 285.454 29.0817 291.615 22.2802C296.001 17.4297 300.627 13.0738 306.095 9.83911C318.304 2.66907 332.623 -2.06477 347.275 -6.19568C349.465 -6.80992 351.664 -7.43959 353.854 -8.06928L353.855 -8.26236C351.637 -7.62499 349.419 -6.99535 347.211 -6.36569Z" fill="#D9D9D9"/>
<path d="M350.271 -6.94788C335.518 -3.41953 320.921 0.680574 308.537 7.6727C302.985 10.8223 298.285 15.1471 293.89 20.0903C287.738 27.0232 283.052 34.0975 276.19 38.7817C268.539 43.9976 259.557 45.8596 247.388 46.0481C246.21 46.0694 245.051 46.0752 243.901 46.0733C240.163 46.0672 236.509 45.9762 232.956 45.9704C232.029 45.9688 231.101 45.9751 230.183 45.989C215.166 46.2192 204.588 48.6809 194.05 55.2513C180.699 63.5779 170.914 75.1463 150.58 82.4188C144.974 84.4253 140.336 85.1514 136.134 85.1445C127.907 85.131 121.363 82.3168 112.629 80.8815C98.0706 78.5021 85.2427 78.759 74.8093 78.0932C63.7545 77.3954 53.7586 75.7881 39.5204 70.7062C25.4676 65.6941 12.3662 57.3858 -2.64714 55.5231C-5.01182 55.2335 -7.30247 55.0521 -9.53765 54.9789L-9.53796 55.1643C-7.31204 55.2297 -5.03066 55.4111 -2.67526 55.7007C12.2639 57.5556 25.356 65.8483 39.4366 70.8759C53.6934 75.9656 63.7264 77.573 74.7905 78.2785C85.2424 78.9444 98.061 78.6874 112.591 81.059C121.28 82.4866 127.842 85.3085 136.134 85.3221C140.363 85.3291 145.039 84.6031 150.663 82.5889C171.052 75.2932 180.866 63.694 194.18 55.3982C204.69 48.851 215.194 46.4046 230.183 46.1666C231.101 46.1604 232.028 46.1542 232.956 46.1557C236.508 46.1616 240.153 46.2525 243.9 46.2586C245.05 46.2605 246.219 46.2547 247.388 46.2335C259.585 46.0372 268.631 44.1754 276.329 38.921C283.237 34.2059 287.924 27.1239 294.066 20.1988C298.452 15.2633 303.133 10.9615 308.667 7.81964C321.005 0.850617 335.583 -3.24952 350.336 -6.77786C351.505 -7.05397 352.683 -7.34551 353.852 -7.63706L353.853 -7.82241C352.656 -7.53091 351.468 -7.23166 350.271 -6.94788Z" fill="#D9D9D9"/>
<path d="M353.333 -7.52984C338.488 -4.60404 323.633 -1.15309 311.11 5.64573C305.503 8.71027 300.737 12.9732 296.351 18.0091C290.2 25.0656 285.866 32.2794 279.384 37.1497C272.168 42.5748 263.539 44.754 250.961 45.0036C249.672 45.0247 248.401 45.038 247.14 45.036C243.133 45.0294 239.256 44.9149 235.5 44.9087C234.906 44.9078 234.303 44.9145 233.719 44.9135C218.869 45.0745 208.486 47.3975 197.864 54.6242C184.929 63.4149 175.773 75.633 155.282 82.5887C150.336 84.2719 146.207 84.9061 142.516 84.9001C133.148 84.8847 126.579 80.719 116.685 78.8955C109.852 77.6409 103.378 77.2442 97.3959 77.2343C90.115 77.2224 83.5473 77.7831 77.8797 78.0827C75.1711 78.225 72.5461 78.3211 69.9027 78.3168C61.5644 78.3031 53.0886 77.3083 41.4727 73.8062C26.7047 69.3567 13.0659 60.731 -2.67168 59.3536C-4.89738 59.1569 -7.04905 59.0607 -9.14521 59.0572C-9.27506 59.057 -9.41419 59.0568 -9.54404 59.0566L-9.54435 59.2419C-9.41449 59.2421 -9.27536 59.2347 -9.1455 59.2349C-7.05861 59.2383 -4.91623 59.3422 -2.69053 59.5389C12.9543 60.9007 26.5932 69.5033 41.3982 73.976C53.0327 77.4859 61.5456 78.4884 69.9024 78.5021C72.5458 78.5065 75.1801 78.4104 77.8979 78.2681C83.5655 77.9608 90.1332 77.4 97.3956 77.412C103.369 77.4218 109.824 77.8185 116.639 79.0731C126.477 80.881 133.064 85.0622 142.516 85.0854C146.235 85.0915 150.401 84.4419 155.366 82.7587C175.912 75.7723 185.105 63.531 198.003 54.7712C208.588 47.5676 218.887 45.2599 233.718 45.0989C234.312 45.0921 234.906 45.0931 235.499 45.0941C239.246 45.1002 243.123 45.207 247.139 45.2136C248.401 45.2157 249.681 45.21 250.97 45.1813C263.575 44.9394 272.27 42.7449 279.532 37.2889C286.051 32.3801 290.385 25.1585 296.527 18.1175C300.904 13.0894 305.651 8.8418 311.23 5.80039C323.716 -0.975323 338.544 -4.43404 353.389 -7.35212C353.546 -7.38276 353.695 -7.41341 353.852 -7.44404L353.853 -7.63711C353.676 -7.59879 353.509 -7.56817 353.333 -7.52984Z" fill="#D9D9D9"/>
<path d="M313.673 3.6267C308.02 6.59076 303.19 10.7996 298.803 15.9281C292.661 23.1081 288.679 30.4539 282.586 35.5178C275.787 41.1599 267.529 43.6563 254.534 43.9516C253.152 43.988 251.788 44.0012 250.443 43.999C246.158 43.9919 242.04 43.8539 238.08 43.8474C237.801 43.8469 237.523 43.8465 237.254 43.846C222.562 43.9223 212.375 46.1066 201.668 53.9974C189.15 63.2367 180.623 76.1046 159.994 82.7511C155.511 84.1956 151.754 84.7687 148.415 84.7632C137.999 84.7461 131.646 79.1211 120.732 76.9099C115.429 75.8354 110.328 75.4254 105.505 75.4175C96.0817 75.402 87.7224 76.9252 80.9497 78.0725C75.2439 79.0362 69.9837 79.7767 64.1126 79.7671C58.1858 79.7574 51.6481 78.9821 43.4245 76.9065C27.9415 72.9965 13.7559 64.0763 -2.69663 63.1844C-4.10631 63.1048 -5.48825 63.0716 -6.84241 63.0694C-7.76064 63.0679 -8.66035 63.0819 -9.55081 63.1113L-9.55111 63.2967C-8.66064 63.2595 -7.76094 63.2455 -6.8427 63.2471C-5.49782 63.2493 -4.11589 63.2901 -2.70621 63.3697C13.6536 64.2538 27.8299 73.1507 43.3593 77.0763C51.6014 79.1596 58.1669 79.935 64.1123 79.9447C70.0019 79.9544 75.29 79.2139 80.9957 78.2502C87.7592 77.1106 96.1093 75.5797 105.505 75.5951C110.309 75.603 115.392 76.0129 120.677 77.0874C131.525 79.2753 137.888 84.9158 148.415 84.9408C151.782 84.9464 155.576 84.3734 160.068 82.9211C180.771 76.2438 189.335 63.3374 201.816 54.1366C212.476 46.269 222.59 44.1077 237.254 44.0237C237.523 44.0241 237.801 44.0246 238.079 44.025C242.031 44.0315 246.149 44.1695 250.443 44.1766C251.788 44.1788 253.161 44.1656 254.543 44.137C267.565 43.8417 275.908 41.3223 282.744 35.6494C288.873 30.5469 292.846 23.1934 298.979 16.0366C303.356 10.9234 308.168 6.73001 313.793 3.78135C325.694 -2.42382 339.778 -5.27365 353.852 -7.5211L353.853 -7.70645C339.76 -5.45131 325.629 -2.60156 313.673 3.6267Z" fill="#D9D9D9"/>
<path d="M316.245 1.59961C310.536 4.47863 305.641 8.63327 301.255 13.8468C295.112 21.1504 291.492 28.628 285.779 33.8934C279.416 39.7369 271.518 42.5583 258.106 42.907C256.649 42.9432 255.212 42.9563 253.802 42.954C249.248 42.9465 244.917 42.7849 240.78 42.7704C226.265 42.7698 216.244 44.7922 205.471 53.3702C193.351 63.0349 185.464 76.5603 164.695 82.9208C160.584 84.1806 157.096 84.6923 154.008 84.6872C142.581 84.6762 136.619 77.5227 124.779 74.9161C120.143 73.9045 115.664 73.4878 111.388 73.4808C100.676 73.4632 91.2572 76.0118 84.0285 78.0619C76.5493 80.1889 69.9426 81.8771 61.5765 81.8634C56.8926 81.8557 51.6438 81.3142 45.3667 80.0064C29.1872 76.6281 14.4456 67.429 -2.72197 67.0147C-3.34338 66.9982 -3.95552 66.9895 -4.56768 66.9885C-6.28357 66.9857 -7.9439 67.0448 -9.55795 67.1502L-9.55825 67.3356C-7.9442 67.2224 -6.28387 67.171 -4.56798 67.1739C-3.95582 67.1749 -3.34368 67.1836 -2.72228 67.2001C14.3432 67.6065 29.0756 76.7824 45.32 80.1763C51.5971 81.4917 56.8645 82.041 61.5762 82.0487C69.9794 82.0625 76.6139 80.3589 84.0931 78.2319C91.3218 76.1818 100.712 73.6409 111.388 73.6584C115.645 73.6654 120.115 74.082 124.723 75.0936C136.471 77.6692 142.451 84.8382 154.007 84.8649C157.124 84.87 160.64 84.3583 164.769 83.0908C185.621 76.6995 193.546 63.1356 205.628 53.5017C216.355 44.9545 226.283 42.9629 240.78 42.9558C244.916 42.9626 249.238 43.1318 253.802 43.1393C255.212 43.1416 256.649 43.1286 258.115 43.0923C271.555 42.7437 279.545 39.8993 285.946 34.0095C291.686 28.7132 295.307 21.2279 301.431 13.9475C305.808 8.74939 310.684 4.61789 316.356 1.76198C327.532 -3.82655 340.679 -6.17592 353.852 -7.8379L353.853 -8.01553C340.661 -6.3613 327.477 -4.01199 316.245 1.59961Z" fill="#D9D9D9"/>
<path d="M318.809 -0.419425C313.054 2.35912 308.095 6.45959 303.708 11.7658C297.574 19.1929 294.306 26.8101 288.983 32.2615C283.046 38.3143 275.5 41.4529 261.689 41.8627C260.158 41.9065 258.656 41.9195 257.19 41.9171C252.664 41.9097 248.388 41.7328 244.317 41.7029C244.131 41.7026 243.936 41.7023 243.742 41.702C229.699 41.6712 219.957 43.5937 209.285 52.751C197.535 62.8257 190.305 77.0009 169.399 83.0832C165.566 84.1967 162.301 84.6624 159.416 84.6577C146.997 84.645 141.52 75.9323 128.827 72.9304C124.572 71.9271 120.436 71.5033 116.466 71.4968C104.789 71.4776 94.5896 75.0752 87.0997 78.0517C78.3754 81.5282 70.9785 84.3195 60.2936 84.3019C56.463 84.2956 52.2063 83.9257 47.3197 83.099C30.5179 80.2603 15.285 70.875 -2.47675 70.8459C-2.56023 70.8458 -2.65298 70.8456 -2.73646 70.8455C-5.12016 70.8493 -7.39275 70.9614 -9.56347 71.1741L-9.56376 71.3517C-7.39305 71.1467 -5.12047 71.0346 -2.73675 71.0231C-2.65327 71.0232 -2.56052 71.0234 -2.47705 71.0235C15.192 71.0525 30.4156 80.4223 47.2823 83.2766C52.1782 84.111 56.4442 84.481 60.2933 84.4873C71.0246 84.5049 78.4678 81.6905 87.2014 78.2218C94.682 75.2376 104.844 71.6631 116.466 71.6821C120.417 71.6886 124.534 72.1047 128.772 73.1079C141.362 76.0633 146.848 84.807 159.416 84.8353C162.328 84.8401 165.622 84.3744 169.473 83.2532C190.472 77.1479 197.73 62.9109 209.443 52.8749C220.077 43.7561 229.717 41.8643 243.741 41.8796C243.936 41.8799 244.131 41.8802 244.316 41.8805C248.379 41.9181 252.654 42.095 257.19 42.1025C258.665 42.1049 260.167 42.0842 261.688 42.0403C275.546 41.6383 283.185 38.4767 289.149 32.3777C294.51 26.8877 297.769 19.2705 303.893 11.8665C308.252 6.58342 313.193 2.50608 318.92 -0.257061C329.372 -5.26755 341.582 -7.20143 353.854 -8.36289L353.855 -8.54824C341.563 -7.38681 329.317 -5.453 318.809 -0.419425Z" fill="#D9D9D9"/>
<path d="M321.381 -2.43858C315.57 0.247192 310.546 4.28578 306.159 9.68465C300.034 17.2277 297.118 24.9844 292.175 30.6295C286.674 36.8993 279.489 40.3551 265.26 40.8106C263.674 40.862 262.125 40.8826 260.604 40.8801C256.096 40.8728 251.867 40.6805 247.851 40.6275C247.369 40.6267 246.886 40.6182 246.413 40.6174C233.002 40.5954 223.566 42.4721 213.097 52.1163C201.708 62.6009 195.145 77.4413 174.1 83.2531C170.509 84.2434 167.419 84.6631 164.683 84.6586C151.271 84.6521 146.382 74.3416 132.883 70.9445C128.85 69.9339 124.927 69.5027 121.152 69.4965C108.668 69.476 97.8362 74.1306 90.1778 78.0491C80.4864 83.0067 72.5683 86.9711 59.5924 86.9498C56.476 86.9447 53.0632 86.7074 49.2705 86.1991C32.1802 83.9237 16.7338 74.6849 -1.1857 74.6555C-1.7051 74.6546 -2.23379 74.6615 -2.7625 74.676C-5.14631 74.7416 -7.40972 74.9155 -9.57124 75.1746L-9.57155 75.3599C-7.41001 75.0932 -5.14661 74.927 -2.75351 74.8537C-2.23408 74.8391 -1.70539 74.8322 -1.18599 74.8331C16.6407 74.8623 32.0779 84.0857 49.2423 86.3845C53.0443 86.885 56.4572 87.1223 59.5921 87.1274C72.6236 87.1488 80.6068 83.1614 90.2981 78.2037C97.9379 74.293 108.733 69.6538 121.152 69.6741C124.908 69.6803 128.803 70.1115 132.818 71.122C146.205 74.4572 151.113 84.8063 164.683 84.844C167.447 84.8485 170.555 84.4211 174.174 83.4231C195.312 77.5806 201.912 62.6784 213.254 52.2401C223.695 42.6345 233.02 40.7808 246.413 40.8028C246.886 40.8036 247.368 40.8044 247.851 40.8129C251.858 40.8658 256.096 41.0504 260.604 41.0578C262.125 41.0603 263.683 41.0474 265.269 40.9959C279.535 40.5405 286.822 37.0463 292.351 30.7379C297.322 25.0543 300.238 17.3052 306.344 9.78535C310.703 4.4096 315.709 0.386433 321.482 -2.28396C331.201 -6.7396 342.473 -8.34292 353.854 -9.10426L353.855 -9.28189C342.454 -8.5283 331.145 -6.92504 321.381 -2.43858Z" fill="#D9D9D9"/>
<path d="M323.944 -4.46558C318.087 -1.87256 312.989 2.11957 308.611 7.60341C302.495 15.27 299.932 23.1664 295.377 28.9975C290.303 35.4764 283.479 39.2495 268.833 39.766C267.2 39.8251 265.605 39.8457 264.038 39.8431C259.548 39.8357 255.347 39.6358 251.387 39.5598C250.617 39.5431 249.856 39.5418 249.105 39.5406C236.306 39.5118 227.157 41.3812 216.901 51.4969C205.864 62.3759 199.977 77.8662 178.802 83.4152C175.406 84.3055 172.465 84.6868 169.868 84.6825C155.464 84.6743 151.208 72.7431 136.93 68.9586C133.046 67.925 129.253 67.4786 125.598 67.4726C112.409 67.451 101.038 73.1782 93.2574 78.0386C82.7936 84.5705 74.5024 89.7544 59.18 89.7293C56.7221 89.7252 54.0789 89.5896 51.2227 89.2992C33.8254 87.5484 18.1561 78.4636 0.069732 78.434C-0.876327 78.4324 -1.82242 78.454 -2.78712 78.5065C-5.17102 78.6262 -7.42524 78.8541 -9.57757 79.1595L-9.57787 79.3449C-7.42553 79.0318 -5.16205 78.8115 -2.76886 78.6842C-1.81345 78.6394 -0.867342 78.6101 0.0694404 78.6116C18.0631 78.6411 33.7324 87.7104 51.1945 89.4845C54.0693 89.7672 56.7125 89.9106 59.1797 89.9146C74.567 89.9399 82.9325 84.7174 93.387 78.1855C101.149 73.3328 112.483 67.6364 125.598 67.658C129.234 67.6639 132.999 68.1026 136.865 69.1284C151.022 72.8509 155.287 84.8285 169.868 84.8679C172.493 84.8722 175.461 84.4832 178.867 83.5929C200.153 78.0055 206.068 62.438 217.068 51.613C227.296 41.5359 236.324 39.7049 249.105 39.7182C249.856 39.7194 250.607 39.7284 251.387 39.7374C255.338 39.8134 259.539 40.0134 264.037 40.0207C265.605 40.0233 267.2 40.0028 268.842 39.9437C283.525 39.4349 290.46 35.6234 295.554 29.0981C300.136 23.2285 302.699 15.3398 308.796 7.70411C313.155 2.23569 318.226 -1.72559 324.046 -4.30323C333.031 -8.24264 343.365 -9.71621 353.856 -10.1546L353.857 -10.34C343.347 -9.89386 332.975 -8.42808 323.944 -4.46558Z" fill="#D9D9D9"/>
<path d="M326.508 -6.48484C320.605 -3.98457 315.441 -0.0543359 311.063 5.52218C304.957 13.3123 302.746 21.3406 298.571 27.3654C293.923 34.0613 287.46 38.1207 272.406 38.7138C270.736 38.7806 269.113 38.8011 267.527 38.7985C263.029 38.7911 258.855 38.5834 254.923 38.4843C253.865 38.4594 252.836 38.45 251.834 38.4483C239.61 38.4205 230.74 40.3058 220.705 50.8698C210.002 62.1355 204.809 78.2834 183.514 83.5773C180.285 84.3829 177.474 84.7335 174.979 84.7295C159.582 84.7273 156.006 71.1522 140.978 66.9649C137.177 65.9161 133.477 65.4543 129.896 65.4485C116.067 65.4258 104.212 72.2257 96.3371 78.0281C85.2306 86.2117 76.6499 92.6463 58.9345 92.6172C57.1165 92.6142 55.1967 92.5416 53.175 92.3992C35.4709 91.1422 19.5601 82.2192 1.29751 82.1893C-0.0566485 82.187 -1.42016 82.2311 -2.80233 82.337C-5.18631 82.5107 -7.4406 82.7773 -9.58374 83.1368L-9.58404 83.3221C-7.43163 82.9627 -5.17734 82.6961 -2.78407 82.5147C-1.41119 82.4165 -0.0476656 82.3647 1.29722 82.3669C19.4764 82.3967 35.3778 91.3042 53.1561 92.5845C55.1871 92.7269 57.107 92.7995 58.9341 92.8025C76.7237 92.8317 85.3881 86.351 96.4852 78.1674C104.341 72.3726 116.16 65.6035 129.896 65.6261C133.449 65.6319 137.13 66.0936 140.913 67.1424C155.811 71.2523 159.387 84.866 174.979 84.9148C177.501 84.9189 180.331 84.5606 183.569 83.755C204.994 78.415 210.215 62.1976 220.881 50.9782C230.888 40.4605 239.637 38.6137 251.834 38.626C252.836 38.6276 253.865 38.6447 254.922 38.6696C258.836 38.761 263.019 38.9687 267.527 38.9761C269.113 38.9787 270.745 38.9582 272.415 38.8992C287.516 38.3138 294.099 34.2006 298.766 27.4584C302.959 21.395 305.161 13.3745 311.249 5.62288C315.608 0.0695055 320.743 -3.83761 326.609 -6.32249C334.851 -9.7843 344.258 -10.9119 353.858 -11.1355L353.859 -11.3131C344.24 -11.0972 334.805 -9.962 326.508 -6.48484Z" fill="#D9D9D9"/>
<path d="M329.08 -8.5039C323.122 -6.10411 317.893 -2.22804 313.525 3.44116C307.418 11.3549 305.559 19.5227 301.774 25.7412C297.551 32.6463 291.45 37.023 275.988 37.6695C274.272 37.7362 272.602 37.7643 270.979 37.7617C266.49 37.7543 262.344 37.5313 258.458 37.4168C257.132 37.376 255.852 37.3507 254.609 37.3486C242.932 37.3295 234.303 39.2538 224.518 50.2352C214.129 61.903 209.641 78.6931 188.216 83.7473C185.136 84.476 182.436 84.7959 180.034 84.792C163.626 84.7882 160.776 69.5925 145.034 64.9792C141.289 63.8995 137.635 63.4302 134.12 63.4244C119.679 63.4007 107.376 71.2656 99.4256 78.0179C87.7691 87.915 78.9544 95.6158 58.7533 95.5827C57.5846 95.5807 56.3789 95.5556 55.1268 95.4995C37.1159 94.7053 20.9637 85.9596 2.50633 85.9216C0.753336 85.9187 -1.02761 85.993 -2.82726 86.1677C-5.21133 86.3877 -7.45641 86.7007 -9.59034 87.0988L-9.59066 87.2919C-7.44744 86.8861 -5.19308 86.5731 -2.79973 86.3454C-1.00936 86.1784 0.762306 86.1041 2.50602 86.1069C20.88 86.1294 37.0228 94.8751 55.1173 95.6771C56.3693 95.7332 57.5843 95.7661 58.753 95.768C79.0283 95.8013 87.9359 88.0312 99.5738 78.1494C107.515 71.4049 119.78 63.5785 134.12 63.602C137.616 63.6078 141.242 64.0848 144.96 65.149C160.572 69.6771 163.431 84.9269 180.033 84.9696C182.463 84.9736 185.182 84.6537 188.271 83.9251C209.835 78.8247 214.343 61.9497 224.694 50.3514C234.46 39.4008 242.959 37.5226 254.609 37.534C255.852 37.536 257.132 37.5613 258.449 37.5944C262.335 37.7166 266.48 37.9319 270.979 37.9393C272.602 37.942 274.271 37.9138 275.997 37.8471C291.506 37.2161 297.737 32.7702 301.968 25.8188C305.772 19.5617 307.622 11.417 313.701 3.54185C318.06 -2.1042 323.251 -5.95716 329.173 -8.34156C336.681 -11.3489 345.16 -12.3158 353.86 -12.3865L353.861 -12.5641C345.142 -12.5012 336.626 -11.5344 329.08 -8.5039Z" fill="#D9D9D9"/>
<path d="M353.844 -13.9621C346.034 -13.9749 338.446 -13.1224 331.643 -10.5309C325.638 -8.21617 320.345 -4.39427 315.976 1.35989C309.879 9.38949 308.372 17.6969 304.967 24.1091C301.18 31.2235 295.44 35.9173 279.56 36.625C277.798 36.6916 276.1 36.7197 274.44 36.7169C269.951 36.7096 265.833 36.4789 261.994 36.3413C260.426 36.2924 258.905 36.2512 257.44 36.2488C246.282 36.2228 237.866 38.217 228.331 49.6081C218.248 61.6548 214.472 79.0948 192.918 83.9172C189.977 84.5688 187.379 84.8657 185.06 84.8619C167.642 84.8565 165.545 67.9938 149.081 62.9932C145.364 61.875 141.738 61.3825 138.241 61.3768C123.234 61.3521 110.54 70.2977 102.505 78.0152C90.3815 89.6492 81.3606 98.6471 58.6181 98.6175C58.108 98.6167 57.5978 98.6081 57.0784 98.5995C38.7329 98.2528 22.33 89.6765 3.64998 89.6459C1.51672 89.6424 -0.644556 89.7469 -2.85244 89.9982C-5.22732 90.2723 -7.46321 90.6316 -9.5972 91.0683L-9.5975 91.2537C-7.45424 90.817 -5.20906 90.45 -2.81563 90.1759C-0.626309 89.9323 1.52569 89.8277 3.64968 89.8312C22.2462 89.854 38.6491 98.4303 57.0689 98.7849C57.5975 98.7935 58.1077 98.7943 58.6178 98.7951C81.4438 98.8403 90.5575 89.7653 102.671 78.1313C110.679 70.4369 123.345 61.53 138.241 61.5621C141.71 61.5678 145.308 62.0603 149.007 63.163C165.332 68.0707 167.428 84.9874 185.06 85.0396C187.407 85.0434 190.023 84.7465 192.973 84.0872C214.666 79.2264 218.461 61.6938 228.507 49.7165C238.033 38.3562 246.309 36.4236 257.439 36.4342C258.905 36.4366 260.417 36.47 261.984 36.5266C265.824 36.6642 269.941 36.8949 274.44 36.9023C276.1 36.905 277.807 36.8769 279.569 36.8026C295.496 36.1105 301.375 31.3474 305.171 24.1867C308.594 17.7359 310.083 9.45161 316.162 1.4606C320.512 -4.27042 325.768 -8.06922 331.735 -10.3609C338.492 -12.9447 346.053 -13.7895 353.844 -13.7767C353.853 -13.7767 353.853 -13.7767 353.862 -13.7767L353.863 -13.9621C353.853 -13.9621 353.853 -13.9621 353.844 -13.9621Z" fill="#D9D9D9"/>
<path d="M353.486 -15.4688C346.715 -15.4799 340.157 -14.7106 334.217 -12.5502C328.157 -10.336 322.799 -6.56825 318.43 -0.721415C312.341 7.43176 311.196 15.8711 308.171 22.477C304.81 29.8083 299.422 34.8116 283.134 35.5726C281.335 35.6546 279.6 35.6827 277.921 35.6799C273.432 35.6725 269.333 35.4264 265.531 35.2734C263.731 35.201 262.015 35.1441 260.355 35.1414C249.652 35.1238 241.431 37.1801 232.136 48.9809C222.349 61.4143 219.305 79.4887 197.622 84.0792C194.81 84.677 192.315 84.9432 190.07 84.9395C171.613 84.9324 170.317 66.4029 153.13 61.0072C149.422 59.8504 145.805 59.3347 142.308 59.329C126.773 59.3112 113.688 69.3296 105.585 78.0046C93.1441 91.3295 83.9728 101.586 59.0318 101.699C58.9113 101.699 58.7907 101.699 58.6701 101.699C40.157 101.676 23.6146 93.3778 4.86967 93.3393C2.33757 93.3351 -0.241153 93.4854 -2.86657 93.8286C-5.24151 94.1413 -7.47746 94.5393 -9.60224 95.0146L-9.60255 95.1999C-7.46849 94.7246 -5.22325 94.319 -2.82976 94.0063C-0.222894 93.663 2.34654 93.5205 4.86937 93.5246C23.5401 93.5553 40.0733 101.846 58.6698 101.884C58.7904 101.884 58.911 101.885 59.0315 101.885C84.0652 101.779 93.3295 91.4379 105.761 78.113C113.845 69.4534 126.893 59.4813 142.308 59.5143C145.777 59.52 149.366 60.0279 153.055 61.177C170.085 66.472 171.39 85.0633 190.07 85.1171C192.333 85.1208 194.847 84.8547 197.677 84.2569C219.509 79.6204 222.562 61.4455 232.322 49.0816C241.607 37.3194 249.679 35.3169 260.355 35.3267C262.006 35.3294 263.722 35.3786 265.521 35.451C269.323 35.6117 273.423 35.8579 277.921 35.8653C279.6 35.868 281.344 35.8323 283.143 35.758C299.487 35.0125 305.014 29.9167 308.375 22.5468C311.409 15.9023 312.555 7.48617 318.615 -0.628435C322.966 -6.44441 328.286 -10.1813 334.3 -12.3802C340.212 -14.5329 346.734 -15.2945 353.486 -15.2834C353.616 -15.2832 353.736 -15.283 353.866 -15.2828L353.866 -15.4604C353.737 -15.4607 353.616 -15.4686 353.486 -15.4688Z" fill="#D9D9D9"/>
<path d="M353.711 -17.059C347.765 -17.0688 342.032 -16.3908 336.78 -14.5691C330.673 -12.4476 325.25 -8.74175 320.881 -2.80224C314.802 5.47452 314.009 14.0534 311.373 20.853C308.429 28.3935 303.412 33.7141 286.706 34.5285C284.87 34.6105 283.107 34.6462 281.401 34.6434C276.902 34.636 272.831 34.3822 269.065 34.1984C267.062 34.1101 265.161 34.0375 263.324 34.0345C253.038 34.0099 245.003 36.1591 235.949 48.3543C226.439 61.1742 224.136 79.8755 202.323 84.2417C199.632 84.7857 197.23 85.0288 195.059 85.0253C175.545 85.0241 175.068 64.8124 157.176 59.014C153.459 57.8185 149.842 57.2874 146.336 57.2817C130.281 57.263 116.842 68.3543 108.673 77.9946C96.1834 92.7481 86.9916 104.124 60.9831 104.8C60.3988 104.814 59.8144 104.821 59.2394 104.82C40.9675 104.79 24.554 97.0558 6.08728 97.0255C3.14708 97.0207 0.160182 97.2089 -2.89207 97.6595C-5.25778 98.0032 -7.4938 98.4397 -9.60935 98.9459L-9.60967 99.139C-7.47555 98.6251 -5.23954 98.1885 -2.85526 97.8372C0.187703 97.3943 3.15606 97.1983 6.08698 97.2031C24.4795 97.2333 40.893 104.968 59.2391 105.006C59.8234 105.007 60.4078 104.992 60.9921 104.978C87.0841 104.318 96.378 92.8411 108.849 78.103C116.999 68.4781 130.411 57.4331 146.336 57.467C149.814 57.4727 153.412 57.9961 157.102 59.1837C174.836 64.8661 175.322 85.1473 195.059 85.2106C197.248 85.2142 199.669 84.9633 202.378 84.4195C224.349 80.0071 226.652 61.1977 236.134 48.455C245.179 36.2907 253.075 34.203 263.324 34.2121C265.151 34.2151 267.053 34.2877 269.056 34.3837C272.821 34.5598 276.893 34.8136 281.4 34.821C283.107 34.8238 284.879 34.7958 286.724 34.7062C303.477 33.915 308.642 28.4866 311.577 20.9074C314.222 14.0769 315.015 5.52893 321.067 -2.70926C325.417 -8.61018 330.793 -12.2929 336.863 -14.3991C342.078 -16.2131 347.784 -16.8834 353.71 -16.8737C353.766 -16.8736 353.812 -16.8735 353.868 -16.8734L353.868 -17.0587C353.813 -17.0588 353.766 -17.0589 353.711 -17.059Z" fill="#D9D9D9"/>
<path d="M323.333 -4.88363C316.927 3.97182 316.792 13.1851 314.183 20.3477C311.565 27.518 306.557 32.6533 290.278 33.4761C288.414 33.5735 286.614 33.6091 284.88 33.6063C277.766 33.5946 271.757 32.9283 266.358 32.9194C256.443 32.8954 248.565 35.1376 239.761 47.7347C230.52 60.9336 228.958 80.2616 207.034 84.4114C204.445 84.9014 202.135 85.1216 200.039 85.1182C179.448 85.1153 179.809 63.2213 161.223 57.0278C157.496 55.7938 153.852 55.2317 150.337 55.226C133.771 55.2065 119.978 67.3707 111.761 77.984C99.2225 94.1508 89.9918 106.655 62.9343 107.9C61.8954 107.944 60.8566 107.966 59.8363 107.964C41.7963 107.942 25.5118 100.726 7.29553 100.688C3.96578 100.682 0.570691 100.924 -2.9084 101.49C-5.27418 101.872 -7.50097 102.34 -9.61658 102.877L-9.61688 103.062C-7.492 102.525 -5.25592 102.05 -2.87159 101.668C0.598225 101.102 3.97475 100.868 7.29523 100.873C25.4373 100.903 41.7311 108.112 59.836 108.15C60.8656 108.151 61.9044 108.13 62.9433 108.077C90.1028 106.84 99.4265 94.2438 111.937 78.0847C120.145 67.4868 133.91 55.3766 150.336 55.4113C153.824 55.4171 157.44 55.9636 161.148 57.1976C179.577 63.2672 179.216 85.2307 200.039 85.2958C202.154 85.2993 204.482 85.0791 207.08 84.5891C229.18 80.3855 230.733 60.9494 239.946 47.82C248.75 35.2615 256.489 33.0886 266.358 33.0971C271.738 33.1059 277.747 33.7722 284.879 33.7839C286.614 33.7868 288.423 33.7511 290.296 33.6615C306.622 32.8542 311.778 27.6188 314.396 20.4021C317.005 13.1932 317.141 4.01851 323.527 -4.79063C331.066 -15.2043 341.933 -18.4687 353.87 -18.534L353.87 -18.7194C341.896 -18.6541 330.918 -15.3512 323.333 -4.88363Z" fill="#D9D9D9"/>
<path d="M269.374 72.5509C266.749 72.5466 264.078 72.4496 261.37 72.2598C245.818 71.1453 230.239 69.1813 215.321 65.303C200.172 61.3703 185.887 56.9216 169.786 56.4627C168.163 56.4137 166.549 56.3879 164.926 56.3852C141.256 56.3464 117.662 60.6943 94.0476 60.6555C88.9463 60.6472 83.8361 60.4303 78.7264 59.9276C50.7294 57.1554 28.0511 40.6065 4.40944 28.9292C0.544848 27.023 -4.27376 24.3121 -9.48242 21.9094L-9.48299 22.257C-4.35775 24.6286 0.396003 27.2931 4.22351 29.1915C27.8281 40.8456 50.5341 57.4332 78.6795 60.2287C83.8078 60.7314 88.9273 60.9483 94.0471 60.9567C117.717 60.9956 141.311 56.6477 164.925 56.6864C166.539 56.6891 168.153 56.7149 169.767 56.7639C185.803 57.2227 200.051 61.6559 215.209 65.5963C230.173 69.4746 245.771 71.4464 261.342 72.5609C264.059 72.7584 266.73 72.8555 269.373 72.8598C300.723 72.9036 326.622 60.1182 353.761 48.7946L353.761 48.4625C326.548 59.8015 300.659 72.61 269.374 72.5509Z" fill="#FDFDFD"/>
<path d="M274.315 73.9568C271.968 73.9529 269.594 73.8718 267.183 73.7211C251.101 72.7139 235.189 70.6412 219.817 66.546C204.455 62.4739 189.929 57.7854 173.708 57.0251C171.055 56.8972 168.403 56.8388 165.75 56.8344C144.315 56.7992 122.94 60.2472 101.524 60.212C95.9402 60.2029 90.3477 59.9543 84.7466 59.3504C56.4996 56.2921 33.868 39.5657 9.2226 29.1301C3.92092 26.8895 -2.6039 23.9286 -9.48242 21.7317L-9.48295 22.0561C-2.68788 24.2374 3.78133 27.1673 9.0552 29.4001C33.645 39.8047 56.3136 56.5698 84.6997 59.6516C90.3194 60.2632 95.9212 60.504 101.523 60.5132C122.986 60.5485 144.371 57.1005 165.75 57.1356C168.393 57.1399 171.036 57.1983 173.689 57.3263C189.836 58.0787 204.334 62.7517 219.706 66.8315C235.114 70.9423 251.055 73.0073 267.154 74.0223C269.575 74.1807 271.959 74.2541 274.314 74.258C303.735 74.2985 328.388 63.2488 353.754 52.6714L353.755 52.3316C328.333 62.9321 303.68 74.005 274.315 73.9568Z" fill="#FDFDFD"/>
<path d="M279.264 75.3629C277.196 75.3595 275.109 75.3021 272.995 75.1905C256.384 74.2828 240.129 72.1014 224.312 67.7892C208.737 63.5701 193.979 58.6495 177.629 57.5878C173.947 57.3423 170.265 57.2436 166.583 57.2375C147.439 57.2061 128.319 59.8237 109.157 59.7923C103.035 59.7822 96.9046 59.5018 90.7657 58.7735C62.2781 55.4213 39.4702 38.7332 14.0254 29.3312C7.21235 26.8178 -1.00977 23.8309 -9.48438 22.1025L-9.48488 22.4115C-1.08448 24.1397 7.0913 27.1033 13.8766 29.609C39.2564 38.9723 62.0829 55.6913 90.7188 59.0747C96.8763 59.803 103.016 60.0834 109.156 60.0935C128.355 60.125 147.476 57.5074 166.582 57.5387C170.255 57.5448 173.928 57.6435 177.601 57.8889C193.877 58.9505 208.607 63.8556 224.201 68.0748C240.054 72.4025 256.337 74.5839 272.966 75.4916C275.09 75.6032 277.186 75.6607 279.264 75.6641C306.737 75.7092 330.098 66.2406 353.746 56.5099L353.747 56.1701C330.052 65.9239 306.691 75.408 279.264 75.3629Z" fill="#FDFDFD"/>
<path d="M284.216 76.7765C282.435 76.7736 280.627 76.732 278.809 76.6518C261.67 75.8514 245.071 73.5691 228.81 69.0244C213.022 64.6659 198.032 59.5287 181.562 58.1502C176.814 57.7485 172.065 57.594 167.316 57.5862C150.566 57.5587 133.821 59.4156 117.033 59.3881C110.29 59.377 103.548 59.057 96.7967 58.2041C68.0499 54.5426 44.9541 38.0548 18.8401 29.5321C10.4507 26.7998 0.530962 23.957 -9.48438 22.8748L-9.48487 23.176C0.465541 24.2581 10.3389 27.0931 18.7098 29.8176C44.7404 38.3016 67.864 54.8126 96.7406 58.4975C103.519 59.3659 110.28 59.6782 117.033 59.6893C133.848 59.7169 150.602 57.86 167.316 57.8874C172.055 57.8952 176.785 58.0574 181.524 58.4513C197.93 59.822 212.891 64.9515 228.689 69.31C244.996 73.8624 261.623 76.1525 278.79 76.953C280.617 77.0409 282.426 77.0748 284.216 77.0777C309.741 77.1196 331.754 69.1007 353.742 60.2786L353.742 59.9388C331.718 68.784 309.704 76.8261 284.216 76.7765Z" fill="#FDFDFD"/>
<path d="M289.157 78.2056C287.655 78.2031 286.143 78.1697 284.622 78.1132C266.954 77.4277 250.031 74.9981 233.306 70.2674C217.314 65.7387 202.093 60.408 185.484 58.7126C179.586 58.1082 173.688 57.89 167.789 57.8803C153.644 57.8571 139.479 59.0309 125.288 59.0076C117.803 58.9954 110.319 58.651 102.817 57.627C73.8203 53.6561 50.353 37.4843 23.6534 29.7407C13.6318 26.8359 2.03281 24.2683 -9.48633 23.9404L-9.48682 24.2416C1.97667 24.5694 13.5292 27.1292 23.5323 30.0263C50.1485 37.7388 73.6343 53.9261 102.761 57.9281C110.281 58.9521 117.794 59.3043 125.288 59.3166C139.507 59.3399 153.672 58.1584 167.788 58.1815C173.678 58.1912 179.558 58.4094 185.437 59.0137C201.981 60.7013 217.175 66.0164 233.185 70.5529C249.947 75.2992 266.907 77.7289 284.603 78.4144C286.133 78.4709 287.654 78.5043 289.157 78.5068C312.743 78.5455 333.373 71.8218 353.735 63.9469L353.736 63.6148C333.336 71.5051 312.716 78.2443 289.157 78.2056Z" fill="#FDFDFD"/>
<path d="M294.099 79.6347C292.883 79.6327 291.659 79.6153 290.426 79.5746C272.229 79.0119 254.981 76.4582 237.793 71.5027C221.597 66.8346 206.154 61.3028 189.407 59.2751C182.174 58.3982 174.921 58.1237 167.668 58.1118C156.547 58.0936 145.407 58.6931 134.239 58.6748C125.781 58.6609 117.322 58.2918 108.838 57.0499C79.5909 52.762 55.7055 37.0066 28.4576 29.9417C17.9534 27.2214 6.19588 25.1864 -5.49072 25.1672C-6.82633 25.165 -8.16198 25.186 -9.48841 25.2379L-9.48892 25.5468C-8.16249 25.4949 -6.82683 25.4662 -5.49122 25.4684C6.14901 25.4875 17.8694 27.5147 28.3551 30.235C55.5103 37.2611 79.4142 53.032 108.772 57.351C117.285 58.6006 125.771 58.9621 134.239 58.976C145.415 58.9943 156.565 58.4025 167.667 58.4207C174.911 58.4326 182.145 58.6994 189.36 59.5762C206.042 61.5961 221.458 67.1124 237.682 71.7883C254.897 76.7592 272.182 79.313 290.416 79.8758C291.649 79.9164 292.883 79.9339 294.098 79.9359C315.746 79.9714 334.945 74.4193 353.73 67.5149L353.73 67.1828C334.909 74.1026 315.719 79.6702 294.099 79.6347Z" fill="#FDFDFD"/>
<path d="M299.03 81.0718C298.103 81.0703 297.175 81.061 296.239 81.0363C277.513 80.5963 259.922 77.9184 242.29 72.746C225.881 67.9308 210.224 62.1979 193.329 59.8378C184.26 58.5718 175.162 58.2788 166.035 58.2638C158.958 58.2522 151.872 58.4105 144.776 58.3989C134.824 58.3825 124.854 58.0418 114.858 56.4731C85.3613 51.8604 61.0206 36.5985 33.2708 30.1506C23.1555 27.8016 12.1856 26.2468 1.21321 26.2287C-2.36697 26.2229 -5.93816 26.3869 -9.49108 26.7286L-9.49159 27.0375C-5.94793 26.6881 -2.36748 26.5318 1.2127 26.5377C12.1387 26.5556 23.0808 28.095 33.1776 30.4439C60.8347 36.8607 85.1846 52.1381 114.792 56.7742C124.825 58.3429 134.814 58.6837 144.776 58.7001C151.88 58.7117 158.967 58.5534 166.034 58.565C175.152 58.58 184.222 58.8729 193.273 60.1389C210.103 62.4911 225.741 68.2086 242.169 73.0315C259.838 78.2118 277.466 80.8974 296.229 81.3452C297.166 81.3622 298.102 81.3715 299.03 81.373C318.758 81.4054 336.481 76.8857 353.724 70.9441L353.724 70.612C336.463 76.569 318.74 81.1042 299.03 81.0718Z" fill="#FDFDFD"/>
<path d="M307.495 82.6379C305.696 82.6349 303.887 82.5933 302.06 82.5054C282.816 81.5702 264.863 79.3783 246.785 73.9812C230.163 69.0267 214.285 63.108 197.26 60.4002C172.02 56.3891 146.544 60.1702 120.878 55.9036C91.1314 50.9507 66.3261 36.2364 38.0838 30.3514C28.4688 28.3509 18.296 27.1525 8.09336 27.1358C2.20369 27.1261 -3.69591 27.5103 -9.49425 28.3658L-9.49476 28.6747C-3.69642 27.8192 2.20319 27.4273 8.09287 27.437C18.2584 27.4537 28.4034 28.6519 37.9998 30.6448C66.1494 36.5064 90.964 51.2284 120.812 56.197C146.562 60.4791 172.047 56.6981 197.185 60.7012C214.164 63.4012 230.024 69.3045 246.664 74.2667C264.788 79.6794 282.769 81.8713 302.041 82.8066C303.878 82.8945 305.696 82.9361 307.495 82.9391C323.921 82.966 339.036 79.5232 353.717 74.7436L353.717 74.4116C339.018 79.2143 323.903 82.6648 307.495 82.6379Z" fill="#FDFDFD"/>
<path d="M312.716 84.0752C311.112 84.0726 309.498 84.039 307.875 83.9668C288.083 83.1157 269.815 80.8384 251.283 75.2242C234.448 70.1226 218.356 64.0337 201.184 60.9627C176.695 56.5976 151.907 59.7388 126.909 55.3265C96.9033 50.0334 71.624 35.9129 42.8985 30.5601C33.8487 28.8694 24.4361 27.9195 15.0033 27.904C6.78558 27.8905 -1.46115 28.5952 -9.49591 30.1343L-9.49642 30.4432C-1.46164 28.8964 6.7758 28.1994 15.0028 28.2129C24.4077 28.2283 33.7926 29.1705 42.8238 30.8535C71.4565 36.1907 96.7358 50.3112 126.834 55.6199C151.916 60.04 176.714 56.9065 201.109 61.2637C218.226 64.3192 234.299 70.4004 251.162 75.5098C269.731 81.1394 288.045 83.4169 307.856 84.268C309.488 84.3402 311.111 84.3738 312.716 84.3764C327.185 84.4001 340.657 81.7655 353.713 77.9023L353.714 77.5857C340.639 81.4566 327.167 84.0989 312.716 84.0752Z" fill="#FDFDFD"/>
<path d="M317.87 85.5048C316.488 85.5025 315.087 85.4771 313.687 85.4284C293.357 84.6768 274.755 82.2985 255.779 76.4674C238.721 71.2187 222.426 64.9672 205.105 61.533C181.369 56.8216 157.268 59.292 132.928 54.7496C102.673 49.1085 76.9104 35.6283 47.711 30.7612C39.2452 29.3572 30.5649 28.5938 21.8649 28.5795C11.3006 28.5622 0.725186 29.6492 -9.49983 31.9957L-9.50034 32.3046C0.715402 29.9581 11.3001 28.8711 21.8644 28.8885C30.5366 28.9027 39.1983 29.6583 47.6456 31.0623C76.7522 35.9061 102.515 49.3863 132.844 55.0429C157.268 59.601 181.368 57.1306 205.021 61.8263C222.295 65.2451 238.581 71.4965 255.648 76.7452C274.681 82.5996 293.32 84.978 313.668 85.7296C315.078 85.786 316.478 85.8114 317.869 85.8137C330.419 85.8343 342.248 83.8767 353.707 80.8758L353.708 80.5591C342.23 83.5677 330.41 85.5331 317.87 85.5048Z" fill="#FDFDFD"/>
<path d="M322.951 86.9493C321.81 86.9474 320.66 86.9301 319.501 86.8896C298.624 86.2607 279.707 83.766 260.276 77.7025C243.005 72.3144 226.488 65.9081 209.038 62.0952C186.044 57.0684 162.622 58.8372 138.95 54.1723C108.445 48.1755 82.1986 35.3664 52.5254 30.9697C44.6528 29.806 36.6587 29.1905 28.6543 29.1774C15.7526 29.1562 2.85771 30.6951 -9.50208 33.9493L-9.5026 34.2659C2.84792 31.004 15.7428 29.4651 28.6538 29.4863C36.6303 29.4994 44.6152 30.1071 52.4693 31.2708C82.0497 35.6519 108.296 48.4533 138.866 54.4733C162.612 59.1384 186.034 57.3773 208.945 62.3885C226.357 66.1936 242.866 72.5922 260.146 77.988C279.623 84.0593 298.586 86.5618 319.482 87.1985C320.651 87.2313 321.801 87.2486 322.951 87.2505C333.636 87.2681 343.822 85.8715 353.704 83.6326L353.704 83.3237C343.813 85.5703 333.636 86.9669 322.951 86.9493Z" fill="#FDFDFD"/>
<path d="M327.947 88.3865C327.066 88.3851 326.194 88.3759 325.313 88.359C303.898 87.8605 284.647 85.2263 264.762 78.9457C247.288 73.4183 230.547 66.8649 212.959 62.6579C190.708 57.3312 167.992 58.3751 144.969 53.5954C114.214 47.2276 87.4939 35.1282 57.3378 31.1786C50.0677 30.2167 42.7133 29.7258 35.386 29.7138C20.1378 29.6888 4.93252 31.7413 -9.50649 35.9729L-9.50701 36.2896C4.93201 32.0502 20.128 29.9977 35.3855 30.0227C42.6943 30.0347 50.0301 30.5256 57.2909 31.472C87.3544 35.4137 114.075 47.5054 144.885 53.8965C167.972 58.6763 190.68 57.6401 212.857 62.9513C230.417 67.1505 247.139 73.6961 264.641 79.2236C284.563 85.5273 303.86 88.1616 325.303 88.6602C326.184 88.6771 327.065 88.6863 327.947 88.6877C336.832 88.7023 345.376 87.7664 353.698 86.1814L353.699 85.8725C345.367 87.4575 336.823 88.4011 327.947 88.3865Z" fill="#FDFDFD"/>
<path d="M331.118 89.8205C329.847 89.8416 328.585 89.855 327.333 89.8529C306.91 89.8194 288.421 86.3214 269.259 80.1811C251.562 74.5143 234.609 67.837 216.883 63.2205C195.364 57.6169 173.354 57.9051 151 53.0261C119.995 46.2717 92.7912 34.9129 62.1613 31.3796C55.4845 30.6118 48.77 30.2223 42.0826 30.2114C24.4693 30.1825 6.9814 32.7873 -9.50911 38.0582L-9.50964 38.3825C6.97161 33.1039 24.4688 30.4837 42.0821 30.5126C48.7602 30.5235 55.4469 30.9129 62.1052 31.6807C92.6609 35.1985 119.855 46.5495 150.907 53.3195C173.326 58.2063 195.327 57.918 216.78 63.5138C234.47 68.1148 251.423 74.7921 269.129 80.4667C288.318 86.6147 306.853 90.1205 327.333 90.1541C328.585 90.1562 329.856 90.1428 331.126 90.1217C338.871 89.9722 346.376 89.22 353.696 88.0195L353.697 87.7106C346.367 88.9111 338.872 89.671 331.118 89.8205Z" fill="#FDFDFD"/>
<path d="M336.929 91.2817C335.278 91.3253 333.646 91.3458 332.032 91.3432C311.525 91.3095 293.018 87.6648 273.754 81.4239C255.844 75.6177 238.66 68.8242 220.813 63.7827C200.019 57.9177 178.724 57.4194 157.019 52.4488C125.783 45.3001 98.0864 34.7051 66.9735 31.588C60.9086 30.9757 54.8339 30.6722 48.7773 30.6623C28.7802 30.6295 9.00041 33.8407 -9.51385 40.1972L-9.5144 40.5292C8.99062 34.1573 28.7704 30.9307 48.7768 30.9635C54.8149 30.9734 60.8803 31.2768 66.9266 31.8892C97.9746 34.9984 125.643 45.5779 156.917 52.7421C178.677 57.7205 199.972 58.2189 220.692 64.0683C238.511 69.102 255.696 75.8955 273.624 81.7017C292.915 87.9581 311.478 91.6106 332.032 91.6443C333.655 91.647 335.287 91.6265 336.938 91.5829C342.643 91.4378 348.218 90.9681 353.691 90.2511L353.692 89.9422C348.209 90.6669 342.634 91.1366 336.929 91.2817Z" fill="#FDFDFD"/>
<path d="M342.734 92.7434C340.73 92.8096 338.755 92.8373 336.788 92.834C316.189 92.8002 297.635 89.0164 278.251 82.6595C260.128 76.714 242.702 69.8274 224.736 64.3455C204.666 58.2346 184.096 56.9342 163.04 51.872C131.564 44.3136 103.402 34.5133 71.7876 31.7893C66.3439 31.3247 60.9091 31.0841 55.4924 31.0752C33.0653 31.0384 11.0027 34.91 -9.51679 42.3907L-9.51733 42.7151C10.9929 35.2266 33.0648 31.3473 55.4919 31.3841C60.8993 31.393 66.3249 31.6258 71.75 32.0904C103.29 34.8066 131.443 44.5992 162.938 52.1653C184.04 57.2353 204.6 58.5356 224.615 64.631C242.554 70.0974 259.98 76.9917 278.121 82.945C297.533 89.3097 316.142 93.1091 336.788 93.143C338.754 93.1462 340.739 93.1108 342.752 93.0446C346.444 92.9271 350.089 92.6782 353.689 92.3135L353.689 92.0045C350.08 92.3693 346.435 92.6259 342.734 92.7434Z" fill="#FDFDFD"/>
<path d="M348.548 94.2126C346.192 94.3014 343.854 94.3439 341.554 94.3401C320.861 94.3061 302.243 90.3986 282.748 83.9025C264.394 77.8485 246.736 70.838 228.659 64.9157C209.303 58.5588 189.477 56.441 169.061 51.3027C137.363 43.3192 108.718 34.3289 76.6017 31.998C71.807 31.6503 67.0214 31.4725 62.2632 31.4647C37.3689 31.4238 12.9957 35.9867 -9.51984 44.6227L-9.52038 44.9547C12.9952 36.2956 37.3592 31.725 62.2628 31.7659C67.0116 31.7737 71.788 31.9514 76.5734 32.2991C108.624 34.63 137.242 43.6047 168.959 51.5882C189.411 56.7344 209.219 58.8598 228.529 65.1935C246.587 71.1157 264.245 78.1263 282.609 84.1803C302.132 90.6919 320.805 94.615 341.554 94.649C343.863 94.6528 346.2 94.6026 348.566 94.5138C350.282 94.4394 351.989 94.3418 353.686 94.221L353.687 93.9198C351.98 94.0328 350.273 94.1382 348.548 94.2126Z" fill="#FDFDFD"/>
<path d="M346.394 95.8539C325.59 95.8198 306.888 91.7577 287.245 85.1377C268.668 78.9443 250.76 71.8716 232.592 65.4781C213.922 58.9061 194.858 55.94 175.082 50.7255C143.162 42.3091 114.042 34.1599 81.4157 32.1988C77.298 31.9526 73.1893 31.8301 69.0897 31.8233C41.6818 31.7783 14.9887 37.0634 -9.52298 46.8854L-9.52354 47.2252C14.9882 37.38 41.6721 32.0795 69.0892 32.1245C73.1795 32.1312 77.2789 32.2615 81.3874 32.5077C113.958 34.461 143.05 42.5947 174.98 51.0111C194.774 56.2334 213.829 59.1994 232.452 65.7559C250.602 72.1494 268.529 79.2221 287.106 85.4233C306.777 92.0432 325.534 96.1209 346.393 96.1551C348.795 96.159 351.226 96.109 353.684 96.0049L353.684 95.696C351.226 95.8078 348.796 95.8578 346.394 95.8539Z" fill="#FDFDFD"/>
<path d="M351.278 97.3678C330.344 97.3334 311.541 93.1167 291.731 86.3806C272.95 80.0402 254.764 72.9284 236.513 66.0404C218.539 59.261 200.237 55.4313 181.111 50.1483C148.969 41.2836 119.374 33.9986 86.237 32.4074C82.8147 32.2473 79.4016 32.1645 75.9977 32.1589C46.0206 32.1097 16.9889 38.1477 -9.52818 49.1867L-9.52874 49.5265C16.9884 38.4644 46.0201 32.4109 75.9972 32.4601C79.3919 32.4657 82.7957 32.5485 86.2087 32.7085C119.3 34.292 148.857 41.5692 180.99 50.4416C200.143 55.7246 218.428 59.5466 236.364 66.3182C254.606 73.1984 272.801 80.3179 291.601 86.6585C311.429 93.4023 330.279 97.6345 351.277 97.669C352.075 97.6703 352.873 97.6639 353.68 97.6574L353.68 97.3563C352.873 97.3627 352.075 97.3691 351.278 97.3678Z" fill="#FDFDFD"/>
<path d="M296.228 87.6239C277.234 81.1363 258.751 73.9932 240.436 66.6031C223.14 59.6241 205.627 54.9152 187.132 49.5792C154.786 40.2354 124.708 33.8377 91.0509 32.6163C88.3613 32.5192 85.6809 32.4685 83.0096 32.4641C50.4077 32.4106 19.0096 39.2402 -9.53153 51.5192L-9.53208 51.859C18.9998 39.5568 50.398 32.7118 83.0092 32.7653C85.6711 32.7697 88.3515 32.8204 91.0319 32.9175C124.652 34.1388 154.684 40.5287 187.011 49.8647C205.515 55.2008 223.009 59.9096 240.277 66.8809C258.602 74.2709 277.085 81.4141 296.088 87.9017C315.296 94.49 333.542 98.8062 353.678 99.1714L353.678 98.8624C333.607 98.4974 315.407 94.1967 296.228 87.6239Z" fill="#FDFDFD"/>
<path d="M300.725 88.8592C281.508 82.24 262.729 75.0886 244.368 67.1733C227.731 60.0023 211.026 54.3989 193.153 49.0021C160.613 39.1791 130.051 33.6843 95.8648 32.8172C93.9449 32.7755 92.0343 32.7492 90.1236 32.746C54.832 32.6881 21.0395 40.3247 -9.53495 53.8747L-9.53552 54.2222C21.0297 40.6413 54.8315 32.9893 90.1231 33.0472C92.0245 33.0504 93.9352 33.0767 95.855 33.1261C130.005 33.9854 160.52 39.4724 193.032 49.2876C210.896 54.6844 227.582 60.2801 244.2 67.4356C262.571 75.3586 281.369 82.5178 300.585 89.137C318.374 95.2983 335.322 99.5737 353.676 100.523L353.676 100.222C335.387 99.2726 318.486 95.005 300.725 88.8592Z" fill="#FDFDFD"/>
<path d="M305.222 90.1021C285.792 83.3358 266.679 76.1916 248.291 67.7356C232.303 60.3803 216.426 53.8747 199.174 48.4249C166.449 38.0919 135.413 33.5385 100.679 33.0258C99.5657 33.0085 98.4619 32.999 97.3489 32.9972C59.3211 32.9347 23.0879 41.4169 -9.53846 56.2532L-9.53903 56.6007C23.0781 41.7335 59.3113 33.2359 97.3484 33.2984C98.4614 33.3002 99.5652 33.3097 100.678 33.327C135.375 33.8396 166.365 38.3929 199.052 48.7104C216.277 54.1525 232.136 60.6503 248.114 67.9979C266.52 76.4693 285.643 83.6136 305.082 90.3799C321.434 96.0831 337.046 100.264 353.674 101.704L353.675 101.403C337.112 99.9626 321.546 95.7976 305.222 90.1021Z" fill="#FDFDFD"/>
<path d="M309.716 91.3374C290.074 84.4317 270.608 77.3178 252.211 68.2981C236.855 60.7661 221.832 53.3429 205.202 47.8554C172.302 36.9893 140.773 33.3927 105.5 33.2344C105.231 33.234 104.971 33.2335 104.702 33.2331C63.8639 33.1661 25.1529 42.5014 -9.54399 58.6549L-9.54456 59.0025C25.1523 42.8257 63.8542 33.4673 104.702 33.5343C104.961 33.5347 105.23 33.5352 105.49 33.5356C140.744 33.7016 172.218 37.2904 205.062 48.1332C221.665 53.6129 236.678 61.0284 252.035 68.5603C270.45 77.5955 289.925 84.7095 309.577 91.6152C324.464 96.8526 338.723 100.876 353.671 102.708L353.672 102.407C338.788 100.575 324.576 96.567 309.716 91.3374Z" fill="#FDFDFD"/>
<path d="M280.155 92.9803C272.125 91.7237 264.251 91.1856 256.46 91.1728C235.647 91.1387 215.458 94.8898 194.545 98.9409C173.651 102.992 153.008 106.796 132.194 106.762C121.018 106.744 109.806 105.621 98.4671 102.838C68.0292 95.366 39.2917 80.4058 15.511 63.0365C5.22797 55.5206 -2.97656 47.4675 -9.50977 38.3206L-9.51023 38.6063C-2.99547 47.6915 5.17205 55.6827 15.3902 63.1521C39.1802 80.5292 67.9455 95.5049 98.4205 102.984C109.769 105.768 121.008 106.891 132.194 106.909C153.035 106.943 173.697 103.139 194.582 99.0877C215.504 95.0366 235.674 91.2855 256.46 91.3273C264.241 91.3401 272.106 91.8781 280.117 93.1347C305.07 97.0371 329.067 101.525 353.67 103.89L353.67 103.735C329.086 101.371 305.108 96.8827 280.155 92.9803Z" fill="#A6A6A6"/>
<path d="M303.55 96.3319C295.715 95.2996 287.842 94.2518 279.867 93.2579C273.403 92.4518 267.032 92.0861 260.725 92.0758C238.465 92.0392 216.967 96.3906 194.579 100.934C173.22 105.316 152.002 109.274 130.604 109.239C119.474 109.221 108.29 108.121 97.0065 105.446C66.3458 98.1436 37.4966 83.3763 13.6046 66.0376C4.36829 59.3267 -3.2534 52.1859 -9.51953 44.1978L-9.51999 44.4758C-3.27229 52.3943 4.31238 59.4888 13.4838 66.1533C37.3944 83.4997 66.2621 98.2747 96.9599 105.592C108.253 108.275 119.455 109.367 130.604 109.386C152.029 109.421 173.257 105.463 194.616 101.08C217.013 96.5374 238.492 92.1937 260.725 92.2302C267.022 92.2405 273.384 92.5985 279.839 93.4123C287.814 94.3985 295.686 95.454 303.522 96.4786C320.26 98.6608 336.813 100.812 353.673 102.091L353.673 101.936C336.832 100.665 320.288 98.5063 303.55 96.3319Z" fill="#A6A6A6"/>
<path d="M303.152 95.8215C295.343 95.0519 287.507 94.2667 279.578 93.5432C274.7 93.0795 269.868 92.8708 265.082 92.8629C241.319 92.8239 218.504 97.8064 194.603 102.926C172.734 107.617 150.921 111.744 128.893 111.707C117.837 111.689 106.736 110.621 95.5455 108.054C64.6526 100.906 35.7103 86.339 11.6977 69.0387C3.42478 63.0785 -3.58609 56.7496 -9.5293 49.7969L-9.52972 50.0517C-3.60497 56.9503 3.36887 63.2328 11.5769 69.1544C35.6081 86.4624 64.5689 101.045 95.4989 108.2C106.708 110.767 117.827 111.836 128.893 111.854C150.949 111.89 172.77 107.763 194.649 103.073C218.55 97.9532 241.347 92.9784 265.082 93.0174C269.868 93.0252 274.681 93.2339 279.559 93.6899C287.488 94.4211 295.325 95.2063 303.133 95.976C319.974 97.61 336.657 99.3287 353.675 100.276L353.675 100.121C336.666 99.182 319.993 97.4555 303.152 95.8215Z" fill="#A6A6A6"/>
<path d="M302.764 95.3188C294.983 94.804 287.183 94.2815 279.3 93.8206C276.082 93.6223 272.883 93.5243 269.71 93.5191C244.343 93.4775 220.135 99.1991 194.628 104.919C172.276 109.933 149.87 114.221 127.239 114.184C116.248 114.166 105.203 113.128 94.086 110.662C62.9609 103.675 33.9256 89.3015 9.78305 72.0397C2.42727 66.7683 -3.97269 61.1973 -9.53711 55.1565L-9.53752 55.4036C-3.99157 61.398 2.36209 66.9226 9.67155 72.1554C33.8234 89.4326 62.8865 103.814 94.0394 110.808C105.175 113.275 116.238 114.312 127.238 114.33C149.898 114.368 172.313 110.079 194.684 105.065C220.19 99.3459 244.38 93.632 269.71 93.6736C272.882 93.6788 276.073 93.769 279.282 93.9673C287.165 94.4359 294.964 94.9584 302.745 95.4732C319.689 96.5436 336.503 97.83 353.679 98.4375L353.679 98.2907C336.512 97.6756 319.708 96.3969 302.764 95.3188Z" fill="#A6A6A6"/>
<path d="M302.367 94.8162C294.613 94.5718 286.85 94.2965 279.013 94.0983C277.529 94.0495 276.045 94.0316 274.57 94.0292C247.506 93.9848 221.868 100.538 194.663 106.911C171.819 112.257 148.828 116.698 125.584 116.66C114.658 116.642 103.669 115.636 92.6262 113.27C61.2783 106.445 32.1313 92.272 7.87739 75.0409C1.37387 70.4119 -4.40581 65.5447 -9.54492 60.3232L-9.54531 60.5627C-4.43395 65.7377 1.30869 70.5663 7.75663 75.1566C32.0291 92.3954 61.1946 106.584 92.5796 113.416C103.641 115.79 114.649 116.797 125.584 116.815C148.855 116.853 171.865 112.403 194.709 107.058C221.914 100.685 247.543 94.1316 274.57 94.1759C276.045 94.1784 277.52 94.2039 279.004 94.245C286.841 94.4509 294.604 94.7185 302.357 94.9629C319.404 95.5084 336.348 96.3394 353.683 96.5995L353.683 96.4528C336.348 96.1849 319.413 95.3539 302.367 94.8162Z" fill="#A6A6A6"/>
<path d="M346.895 94.596C333.103 94.5733 319.543 94.3348 305.955 94.3125C304.62 94.3103 303.293 94.3081 301.967 94.3137C294.25 94.3242 286.515 94.3269 278.724 94.3759C250.202 94.5454 223.367 101.908 194.686 108.904C171.368 114.596 147.783 119.214 123.937 119.175C113.067 119.157 102.142 118.174 91.1642 115.878C59.5655 109.277 30.3441 95.2348 5.96954 78.0421C0.281225 74.0246 -4.87809 69.8071 -9.55469 65.3433L-9.55506 65.5672C-4.90623 70.0001 0.206785 74.1712 5.84878 78.1578C30.2419 95.3659 59.4911 109.416 91.1176 116.024C102.114 118.321 113.048 119.312 123.937 119.33C147.811 119.369 171.414 114.743 194.741 109.051C223.422 102.054 250.248 94.6922 278.723 94.5227C286.524 94.4814 294.25 94.4787 301.967 94.4604C303.293 94.4626 304.62 94.4571 305.955 94.4593C319.543 94.4816 333.103 94.7278 346.895 94.7504C349.149 94.7541 351.421 94.7424 353.684 94.7384L353.685 94.5839C351.421 94.5957 349.149 94.5997 346.895 94.596Z" fill="#A6A6A6"/>
<path d="M301.569 93.8032C293.88 94.0763 286.19 94.3417 278.436 94.6534C250.117 95.7731 223.383 103.622 194.72 110.896C170.919 116.935 146.741 121.707 122.282 121.667C111.467 121.649 100.608 120.689 89.6946 118.486C57.873 112.054 28.5586 98.2051 4.05413 81.0431C-0.856005 77.5906 -5.37636 73.9997 -9.5625 70.2163L-9.56287 70.4403C-5.41377 74.185 -0.921185 77.7449 3.94264 81.1587C28.4564 98.3285 57.7986 112.193 89.6573 118.632C100.58 120.843 111.458 121.804 122.282 121.821C146.768 121.861 170.965 117.082 194.775 111.043C223.438 103.769 250.163 95.9199 278.445 94.8078C286.199 94.4962 293.889 94.2308 301.578 93.9577C318.831 93.345 336.027 93.2728 353.688 92.8539L353.688 92.6994C336.037 93.1184 318.831 93.1983 301.569 93.8032Z" fill="#A6A6A6"/>
<path d="M301.171 93.3005C293.518 93.8285 285.856 94.3643 278.148 94.9308C250.032 97.0008 223.398 105.344 194.744 112.889C170.47 119.274 145.698 124.2 120.627 124.159C109.877 124.141 99.0733 123.212 88.2342 121.093C56.1897 114.824 26.7637 101.168 2.14783 84.0441C-2.01193 81.1412 -5.9118 78.1305 -9.57031 74.989L-9.57067 75.2053C-5.94919 78.3081 -2.08637 81.2878 2.03634 84.1598C26.6707 101.299 56.1153 114.963 88.1969 121.24C99.0453 123.359 109.868 124.295 120.627 124.313C145.725 124.354 170.516 119.421 194.8 113.036C223.463 105.491 250.078 97.1476 278.166 95.0853C285.875 94.511 293.527 93.983 301.19 93.455C318.545 92.2478 335.872 91.7124 353.691 90.9539L353.691 90.7995C335.872 91.558 318.546 92.101 301.171 93.3005Z" fill="#A6A6A6"/>
<path d="M300.782 92.798C293.148 93.5886 285.532 94.3793 277.86 95.2085C249.937 98.2287 223.423 107.074 194.778 114.882C170.03 121.629 144.645 126.7 118.972 126.658C108.287 126.641 97.5386 125.735 86.7736 123.702C54.4969 117.602 24.9778 104.138 0.241354 87.0454C-3.20507 84.661 -6.46587 82.1998 -9.57812 79.6538L-9.57847 79.8623C-6.50326 82.3773 -3.27951 84.8076 0.120589 87.161C24.8756 104.262 54.4225 117.74 86.7362 123.848C97.5198 125.889 108.268 126.787 118.972 126.805C144.673 126.847 170.076 121.776 194.834 115.028C223.479 107.213 249.992 98.3756 277.887 95.3631C285.55 94.5338 293.175 93.7354 300.801 92.9525C318.259 91.1431 335.717 90.1446 353.694 89.0388L353.694 88.8843C335.708 89.9901 318.25 90.9963 300.782 92.798Z" fill="#A6A6A6"/>
<path d="M300.384 92.2952C292.786 93.3408 285.197 94.3941 277.571 95.486C249.851 99.4564 223.439 108.797 194.802 116.874C169.581 123.984 143.602 129.201 117.307 129.158C106.687 129.14 96.0131 128.258 85.3128 126.309C52.804 120.371 23.1918 107.101 -1.66526 90.0464C-4.40759 88.1574 -7.04782 86.2224 -9.58594 84.2334L-9.58628 84.4419C-7.08521 86.3999 -4.48204 88.3041 -1.78603 90.162C23.0896 107.232 52.7389 120.51 85.2755 126.456C95.985 128.412 106.668 129.287 117.307 129.304C143.63 129.348 169.627 124.131 194.867 117.013C223.503 108.936 249.906 99.6033 277.608 95.6405C285.234 94.5487 292.814 93.4876 300.412 92.442C317.973 90.0304 335.552 88.5533 353.697 87.108L353.697 86.9535C335.543 88.3988 317.955 89.8759 300.384 92.2952Z" fill="#A6A6A6"/>
<path d="M299.986 91.7927C292.416 93.0932 284.873 94.4169 277.293 95.7714C249.766 100.684 223.455 110.527 194.836 118.867C169.141 126.354 142.55 131.701 115.643 131.657C105.079 131.64 94.4788 130.788 83.8526 128.917C51.121 123.141 21.3972 110.071 -3.58057 93.0475C-5.63733 91.6386 -7.63839 90.1988 -9.59304 88.736L-9.59337 88.9368C-7.67578 90.3764 -5.71177 91.7852 -3.69206 93.1632C21.3042 110.202 51.0465 123.28 83.8153 129.064C94.4507 130.943 105.069 131.787 115.643 131.804C142.578 131.848 169.188 126.494 194.892 119.006C223.529 110.666 249.83 100.823 277.33 95.9182C284.91 94.5637 292.453 93.24 300.023 91.9395C317.688 88.9025 335.388 86.9467 353.7 85.1619L353.7 85.0074C335.388 86.7923 317.66 88.748 299.986 91.7927Z" fill="#A6A6A6"/>
<path d="M299.589 91.2824C292.046 92.8455 284.549 94.4319 277.006 96.049C249.672 101.905 223.48 112.257 194.862 120.859C168.693 128.717 141.489 134.202 113.97 134.157C103.48 134.14 92.9357 133.319 82.3928 131.526C49.429 125.911 19.6122 113.034 -5.48622 96.0487C-6.8852 95.0965 -8.24706 94.1366 -9.59963 93.1613L-9.59996 93.3621C-8.28444 94.3065 -6.95964 95.2431 -5.59771 96.1644C19.5192 113.165 49.3639 126.05 82.3555 131.672C92.9169 133.474 103.461 134.294 113.97 134.311C141.517 134.356 168.748 128.872 194.926 120.998C223.554 112.396 249.746 102.044 277.052 96.1959C284.586 94.5787 292.092 92.9923 299.635 91.437C317.403 87.7668 335.234 85.3248 353.704 83.1926L353.704 83.0382C335.216 85.178 317.375 87.6123 299.589 91.2824Z" fill="#A6A6A6"/>
<path d="M299.19 90.7796C291.683 92.5976 284.214 94.4466 276.716 96.3264C249.585 103.124 223.504 113.986 194.894 122.852C168.252 131.103 140.436 136.71 112.286 136.664C101.861 136.647 91.3998 135.85 80.9311 134.133C47.7351 128.673 17.8159 116.004 -7.39383 99.0496C-8.14429 98.5464 -8.87618 98.0355 -9.60808 97.5246L-9.6084 97.7177C-8.91356 98.2054 -8.21873 98.693 -7.5146 99.1653C17.7229 116.135 47.67 128.819 80.8937 134.28C91.3718 136.004 101.851 136.793 112.286 136.811C140.463 136.857 168.307 131.242 194.959 122.991C223.578 114.126 249.659 103.264 276.772 96.4732C284.269 94.5934 291.739 92.7367 299.245 90.9264C317.107 86.6154 335.068 83.687 353.706 81.2153L353.706 81.0609C335.05 83.5402 317.079 86.4686 299.19 90.7796Z" fill="#A6A6A6"/>
<path d="M298.792 90.2769C291.313 92.3421 283.89 94.4615 276.429 96.6039C249.5 104.344 223.53 115.724 194.919 124.837C167.813 133.48 139.366 139.211 110.594 139.163C100.253 139.146 89.8566 138.388 79.4712 136.741C46.0524 131.443 16.0308 118.967 -9.29953 102.051C-9.41072 101.981 -9.51262 101.904 -9.61453 101.834L-9.61486 102.035C-9.55001 102.081 -9.48516 102.128 -9.4203 102.166C15.9379 119.098 45.9873 131.589 79.4339 136.888C89.8378 138.535 100.234 139.301 110.594 139.318C139.393 139.365 167.859 133.627 194.993 124.983C223.604 115.863 249.574 104.484 276.484 96.7508C283.945 94.6083 291.378 92.489 298.857 90.4238C316.813 85.4565 334.905 82.0417 353.71 79.2151L353.71 79.0606C334.886 81.8872 316.776 85.3097 298.792 90.2769Z" fill="#A6A6A6"/>
<path d="M298.404 89.7744C290.953 92.0945 283.556 94.4765 276.142 96.8816C249.406 105.565 223.555 117.462 194.954 126.829C167.373 135.866 138.305 141.727 108.903 141.678C98.6261 141.661 88.3134 140.919 78.0113 139.349C45.0652 134.314 15.4971 122.434 -9.6209 106.089L-9.62122 106.283C15.4968 122.604 45.0464 134.468 77.974 139.496C88.2946 141.073 98.6166 141.808 108.903 141.825C138.332 141.873 167.42 136.013 195.019 126.976C223.629 117.601 249.489 105.704 276.206 97.0285C283.621 94.6156 291.017 92.2414 298.469 89.9136C316.518 84.29 334.741 80.3735 353.714 77.2073L353.714 77.0528C334.723 80.219 316.481 84.1432 298.404 89.7744Z" fill="#A6A6A6"/>
<path d="M298.007 89.2715C290.583 91.8465 283.232 94.4912 275.854 97.1666C249.321 106.785 223.581 119.199 194.979 128.822C166.925 138.259 137.225 144.234 107.193 144.185C96.9994 144.168 86.7702 143.457 76.5515 141.957C44.2077 137.201 15.1951 125.97 -9.62723 110.298L-9.62754 110.491C15.1948 126.14 44.1889 137.347 76.5234 142.104C86.7514 143.611 96.9899 144.323 107.192 144.34C137.253 144.381 166.98 138.414 195.053 128.968C223.664 119.339 249.404 106.916 275.928 97.3058C283.297 94.6303 290.657 91.9857 298.072 89.4106C316.224 83.1076 334.577 78.6893 353.718 75.1836L353.718 75.0291C334.55 78.5425 316.178 82.9608 298.007 89.2715Z" fill="#A6A6A6"/>
<path d="M297.607 88.7691C290.22 91.599 282.888 94.4985 275.574 97.4444C249.197 107.958 223.604 120.945 195.011 130.814C166.465 140.676 136.107 146.72 105.416 146.669C95.3244 146.653 85.1971 145.98 75.0896 144.565C43.3576 140.018 14.8818 129.461 -9.63548 114.469L-9.63578 114.654C14.8723 129.631 43.3388 140.173 75.0615 144.712C85.1783 146.126 95.3149 146.807 105.415 146.824C136.135 146.874 166.52 140.823 195.076 130.961C223.687 121.076 249.29 108.09 275.648 97.5835C282.971 94.6299 290.294 91.7381 297.681 88.9082C315.928 81.918 334.403 76.9979 353.72 73.1449L353.72 72.9828C334.384 76.8434 315.882 81.7712 297.607 88.7691Z" fill="#A6A6A6"/>
<path d="M297.21 88.2663C289.84 91.3357 282.564 94.5133 275.287 97.7219C249.103 109.178 223.63 122.69 195.036 132.807C166.026 143.077 135.018 149.243 103.687 149.192C93.6791 149.175 83.6445 148.518 73.6296 147.173C42.4908 142.89 14.552 132.928 -9.64173 118.585L-9.64203 118.77C14.5518 133.09 42.4813 143.044 73.6016 147.32C83.6257 148.672 93.6696 149.322 103.687 149.339C135.046 149.39 166.072 143.224 195.11 132.946C223.722 122.822 249.205 109.31 275.37 97.861C282.647 94.6448 289.924 91.4749 297.293 88.3978C315.615 80.6894 334.23 75.2676 353.724 71.0751L353.724 70.9129C334.202 75.1131 315.56 80.5426 297.21 88.2663Z" fill="#A6A6A6"/>
<path d="M296.822 87.7637C289.48 91.088 282.23 94.5283 274.999 97.9994C249.018 110.406 223.664 124.436 195.071 134.799C165.586 145.494 133.929 151.759 101.958 151.707C92.0338 151.69 82.0919 151.064 72.1697 149.781C41.6241 145.754 14.2223 136.348 -9.64788 122.655L-9.64819 122.84C14.2128 136.518 41.6053 145.9 72.1416 149.928C82.0731 151.218 92.0243 151.845 101.958 151.861C133.957 151.914 165.632 145.641 195.145 134.939C223.757 124.567 249.11 110.538 275.092 98.1309C282.323 94.6597 289.563 91.2194 296.905 87.8952C315.311 79.4842 334.057 73.5451 353.727 69.0054L353.728 68.8509C334.029 73.3906 315.256 79.3451 296.822 87.7637Z" fill="#A6A6A6"/>
<path d="M296.422 87.2613C289.108 90.8405 281.904 94.5434 274.71 98.285C248.922 111.634 223.716 126.22 195.094 136.792C165.191 147.941 132.894 154.291 100.311 154.237C90.4514 154.221 80.5559 153.618 70.7077 152.389C40.7461 148.602 13.8721 139.746 -9.65596 126.679L-9.65626 126.864C13.8718 139.908 40.7366 148.757 70.6797 152.536C80.5463 153.772 90.4419 154.368 100.311 154.392C132.922 154.438 165.247 148.088 195.168 136.931C223.808 126.352 249.023 111.758 274.812 98.4087C281.997 94.6749 289.2 90.9719 296.515 87.385C315.015 78.2791 333.891 71.8074 353.729 66.9204L353.73 66.766C333.864 71.6529 314.95 78.1323 296.422 87.2613Z" fill="#A6A6A6"/>
<path d="M296.025 86.7506C288.747 90.5924 281.571 94.5657 274.431 98.5622C248.837 112.854 223.741 127.95 195.128 138.784C164.724 150.35 131.759 156.814 98.5078 156.752C88.7504 156.736 78.9847 156.164 69.2477 154.997C39.8793 151.442 13.5239 143.105 -9.66204 130.671L-9.66233 130.849C13.5236 143.267 39.8698 151.597 69.2197 155.144C78.9659 156.318 88.7502 156.89 98.5076 156.906C131.787 156.961 164.779 150.497 195.202 138.924C223.834 128.081 248.938 112.978 274.524 98.6859C281.672 94.6894 288.839 90.7239 296.127 86.8821C314.711 77.0581 333.718 70.0614 353.733 64.8272L353.734 64.6727C333.691 69.9069 314.647 76.9112 296.025 86.7506Z" fill="#A6A6A6"/>
<path d="M295.636 86.2482C262.429 105.007 231.758 126.573 195.153 140.777C164.257 152.767 130.605 159.33 96.6862 159.274C87.0494 159.259 77.4042 158.71 67.7784 157.605C39.0032 154.276 13.1664 146.441 -9.66806 134.61L-9.66835 134.788C13.1661 146.603 38.9937 154.43 67.7596 157.752C77.3854 158.864 87.0491 159.413 96.6859 159.429C130.633 159.485 164.312 152.914 195.236 140.916C231.869 126.697 262.54 105.123 295.738 86.3796C314.417 75.8221 333.555 68.3005 353.737 62.7267L353.738 62.5645C333.518 68.1537 314.343 75.683 295.636 86.2482Z" fill="#A6A6A6"/>
<path d="M282.684 61.1503C258.255 71.5594 231.748 76.1419 204.971 76.098C150.795 76.0091 95.5006 56.9971 54.0033 29.0799C25.8936 10.1743 3.35802 -14.1977 -9.37695 -42.2993L-9.37731 -42.0831C3.38559 -14.0432 25.8842 10.267 53.9475 29.1416C95.4541 57.0665 150.767 76.0863 204.971 76.1752C231.767 76.2192 258.283 71.6367 282.73 61.2199C310.25 49.4876 333.16 32.6196 353.818 13.8404L353.818 13.7322C333.15 32.5269 310.232 49.4103 282.684 61.1503Z" fill="#FFAAC4"/>
<path d="M314.403 44.5055C304.385 50.706 293.783 56.2723 282.423 61.0651C281.225 61.5651 280.019 62.0574 278.812 62.542C268.009 66.8259 256.864 70.0744 245.489 72.334C231.628 75.0761 217.435 76.3503 203.17 76.3269C183.822 76.2951 164.339 73.8767 145.378 69.5362C112.038 61.8898 80.376 48.3999 54.0349 31.3661C43.5373 24.5681 33.783 17.0223 24.9759 8.81374C10.7512 -4.524 -1.22612 -19.5494 -9.38867 -36.2212L-9.389 -36.0204C-1.21707 -19.4103 10.7232 -4.43909 24.9109 8.86769C33.718 17.0762 43.4723 24.6221 53.9791 31.4201C80.3388 48.4693 112.01 61.9593 145.35 69.6057C164.329 73.9539 183.812 76.3723 203.17 76.4041C217.444 76.4275 231.637 75.1534 245.508 72.4036C256.892 70.1517 268.046 66.8955 278.849 62.6038C280.056 62.127 281.262 61.6347 282.46 61.1269C293.82 56.3419 304.431 50.7756 314.449 44.5673C328.701 35.7557 341.647 25.5286 353.815 14.6128L353.815 14.5047C341.629 25.4359 328.673 35.6784 314.403 44.5055Z" fill="#FFAAC4"/>
<path d="M314.218 44.7911C304.145 50.8293 293.516 56.2411 282.156 60.9721C280.958 61.4721 279.752 61.9644 278.545 62.4413C267.77 66.6944 256.671 69.9816 245.343 72.2953C230.924 75.2373 216.156 76.5954 201.316 76.5711C182.664 76.5405 163.895 74.3241 145.555 70.3244C112.279 63.0488 80.6069 50.1226 54.07 33.6446C43.5072 27.0705 33.6412 19.7715 24.741 11.7714C10.9229 -0.669847 -1.08397 -14.6372 -9.39648 -30.3594L-9.39679 -30.174C-1.08419 -14.5059 10.895 -0.584941 24.6759 11.8176C33.5762 19.8255 43.4515 27.1244 54.0143 33.7063C80.5604 50.1843 112.251 63.1182 145.536 70.4016C163.876 74.4013 182.654 76.6177 201.316 76.6483C216.165 76.6727 230.934 75.3145 245.37 72.3649C256.699 70.0511 267.807 66.7639 278.592 62.5031C279.798 62.0263 280.995 61.5417 282.202 61.0417C293.562 56.3107 304.191 50.8912 314.274 44.8529C328.618 36.2808 341.611 26.1928 353.816 15.3852L353.816 15.2771C341.592 26.1001 328.581 36.2035 314.218 44.7911Z" fill="#FFAAC4"/>
<path d="M314.041 45.0764C303.903 50.9524 293.247 56.2097 281.896 60.8866C280.698 61.3789 279.492 61.8635 278.285 62.3326C267.528 66.5548 256.476 69.8885 245.194 72.2563C230.2 75.4059 214.847 76.8557 199.414 76.8304C181.466 76.801 163.42 74.7788 145.739 71.1123C112.517 64.1998 80.8262 51.8451 54.1029 35.9228C43.4748 29.5725 33.5064 22.5128 24.5037 14.721C11.0739 3.09909 -0.943851 -9.88749 -9.40625 -24.7063L-9.40653 -24.5364C-0.944054 -9.76392 11.046 3.18399 24.4387 14.775C33.4506 22.5668 43.419 29.6342 54.0472 35.9845C80.7797 51.9068 112.49 64.2692 145.72 71.1895C163.411 74.8483 181.457 76.8782 199.414 76.9076C214.847 76.933 230.219 75.4831 245.222 72.3259C256.504 69.958 267.565 66.6244 278.322 62.4021C279.529 61.933 280.735 61.4485 281.933 60.9562C293.284 56.2792 303.959 51.0142 314.097 45.146C328.524 36.8057 341.572 26.8568 353.814 16.1574L353.814 16.0416C341.553 26.7641 328.496 36.7284 314.041 45.0764Z" fill="#FFAAC4"/>
<path d="M313.864 45.3619C303.67 51.0679 292.977 56.1784 281.626 60.8013C280.429 61.2859 279.231 61.7627 278.025 62.2318C267.277 66.4232 256.281 69.7955 245.054 72.2176C229.466 75.5901 213.492 77.1316 197.455 77.1053C180.232 77.077 162.927 75.2415 145.922 71.9004C112.756 65.351 81.0451 53.5677 54.1355 38.2012C43.442 32.0748 33.3805 25.2543 24.2662 17.6786C11.1969 6.81412 -0.803809 -5.28429 -9.41602 -19.2461L-9.41629 -19.0762C-0.804012 -5.16072 11.1689 6.89903 24.2012 17.7326C33.3247 25.3083 43.3863 32.1365 54.0797 38.2629C81.0079 53.6294 112.728 65.4281 145.894 71.9699C162.918 75.3187 180.222 77.1543 197.455 77.1825C213.501 77.2089 229.475 75.6596 245.072 72.2948C256.309 69.8651 267.314 66.4928 278.062 62.3014C279.268 61.8323 280.466 61.3554 281.663 60.8708C293.023 56.248 303.717 51.1375 313.91 45.4315C328.439 37.3308 341.524 27.521 353.812 16.9221L353.812 16.8139C341.514 27.4283 328.411 37.2535 313.864 45.3619Z" fill="#FFAAC4"/>
<path d="M313.688 45.6474C303.43 51.1911 292.709 56.1471 281.367 60.7159C280.17 61.1928 278.963 61.6696 277.766 62.1311C267.037 66.2838 256.087 69.7026 244.907 72.1787C228.706 75.7819 212.11 77.4306 195.434 77.4032C178.961 77.3762 162.417 75.7118 146.098 72.6885C112.996 66.5098 81.2658 55.2826 54.1697 40.4796C43.411 34.577 33.2563 27.9881 24.0303 20.6362C11.303 10.475 -0.680453 -0.796985 -9.42383 -13.9558L-9.42408 -13.8014C-0.680643 -0.681143 11.2658 10.5522 23.9746 20.6901C33.2005 28.0498 43.3552 34.6387 54.1139 40.5413C81.2286 55.3521 112.968 66.5793 146.079 72.7579C162.399 75.789 178.961 77.4457 195.434 77.4727C212.12 77.5001 228.725 75.8592 244.934 72.256C256.115 69.7721 267.074 66.3534 277.803 62.2006C279.01 61.7392 280.207 61.2624 281.404 60.7778C292.755 56.2167 303.476 51.253 313.734 45.717C328.355 37.8482 341.486 28.1851 353.812 17.6944L353.812 17.5863C341.468 28.0924 328.318 37.7786 313.688 45.6474Z" fill="#FFAAC4"/>
<path d="M313.51 45.9329C303.187 51.3066 292.439 56.1158 281.097 60.6228C279.9 61.0997 278.703 61.5688 277.505 62.0302C266.795 66.1522 255.891 69.6096 244.757 72.1399C227.935 75.9892 210.69 77.7372 193.354 77.7087C177.652 77.683 161.877 76.1974 146.281 73.4765C113.234 67.6609 81.4842 57.0052 54.1924 42.7579C43.3777 37.0792 33.1299 30.7296 23.7923 23.5859C11.37 14.0818 -0.559111 3.5744 -9.43359 -8.82007L-9.43383 -8.67333C-0.568563 3.68251 11.3513 14.1667 23.7365 23.6476C33.0741 30.7913 43.322 37.1409 54.146 42.8273C81.447 57.0747 113.206 67.7304 146.262 73.546C161.868 76.2746 177.642 77.7602 193.354 77.786C210.689 77.8144 227.944 76.0587 244.785 72.2172C255.919 69.6792 266.823 66.2217 277.542 62.0998C278.74 61.6384 279.937 61.1693 281.134 60.6924C292.485 56.1854 303.233 51.3762 313.556 46.0025C328.26 38.3732 341.447 28.8492 353.809 18.4667L353.809 18.3586C341.428 28.7565 328.233 38.3036 313.51 45.9329Z" fill="#FFAAC4"/>
<path d="M313.324 46.2181C302.955 51.4296 292.17 56.0843 280.838 60.5373C279.641 61.0064 278.443 61.4678 277.237 61.9292C266.545 66.0126 255.697 69.5164 244.618 72.1086C227.137 76.204 209.224 78.0667 191.212 78.0371C176.297 78.0126 161.311 76.6906 146.466 74.2644C113.474 68.8119 81.7137 58.7276 54.2262 45.0437C43.3462 39.5812 33.0052 33.4708 23.556 26.5432C11.4295 17.6497 -0.454431 7.8606 -9.44141 -3.80811L-9.44163 -3.66909C-0.454596 7.961 11.4015 17.7346 23.5002 26.5972C32.9495 33.5325 43.2997 39.6429 54.1797 45.1055C81.6765 58.7971 113.446 68.8891 146.447 74.3416C161.302 76.7678 176.288 78.0899 191.212 78.1144C209.224 78.1439 227.146 76.2812 244.637 72.1781C255.725 69.586 266.582 66.0821 277.274 61.9988C278.48 61.5374 279.678 61.076 280.875 60.6068C292.216 56.1538 302.992 51.4991 313.371 46.2877C328.177 38.898 341.409 29.5054 353.808 19.2311L353.808 19.1229C341.391 29.4204 328.149 38.8207 313.324 46.2181Z" fill="#FFAAC4"/>
<path d="M313.148 46.5036C302.714 51.5528 291.911 56.053 280.569 60.4519C279.372 60.9133 278.175 61.3747 276.978 61.8284C266.305 65.8809 255.503 69.4234 244.47 72.0697C226.312 76.4343 207.712 78.4195 189.004 78.3888C174.887 78.3656 160.726 77.1993 146.641 75.0524C113.704 69.9707 81.9337 60.4502 54.2597 47.3221C43.3144 42.0834 32.8803 36.2123 23.3194 29.5008C11.4702 21.1791 -0.359102 12.0466 -9.44922 1.05737L-9.44943 1.18866C-0.359267 12.147 11.4423 21.2563 23.2637 29.5547C32.8246 36.274 43.268 42.1451 54.2133 47.3838C81.8964 60.5197 113.685 70.0402 146.631 75.1219C160.707 77.2765 174.887 78.4428 189.004 78.466C207.721 78.4967 226.33 76.5116 244.498 72.1393C255.54 69.493 266.342 65.9504 277.015 61.898C278.212 61.4443 279.409 60.9829 280.606 60.5214C291.948 56.1225 302.761 51.6146 313.194 46.5732C328.083 39.423 341.362 30.1695 353.807 20.0034L353.807 19.8952C341.353 30.0768 328.055 39.3457 313.148 46.5036Z" fill="#FFAAC4"/>
<path d="M312.971 46.7891C302.473 51.6682 291.642 56.0216 280.31 60.3588C279.112 60.8202 277.915 61.2739 276.718 61.7276C266.064 65.7415 255.308 69.3304 244.322 72.0309C225.467 76.6878 206.153 78.7876 186.722 78.7557C173.44 78.7339 160.104 77.7158 146.825 75.8405C113.943 71.1218 82.1534 62.1728 54.2931 49.6004C43.2825 44.5856 32.7552 38.946 23.0827 32.4505C11.4923 24.6699 -0.273099 16.1554 -9.45703 5.8147L-9.45725 5.94599C-0.273264 16.2558 11.4644 24.7471 23.0269 32.5122C32.6995 39.0077 43.236 44.655 54.2466 49.6698C82.1162 62.2422 113.924 71.199 146.806 75.9099C160.094 77.793 173.43 78.8111 186.721 78.8329C206.162 78.8649 225.485 76.765 244.349 72.1004C255.345 69.4 266.091 65.811 276.755 61.7971C277.952 61.3434 279.149 60.8898 280.347 60.4283C291.679 56.0912 302.519 51.7378 313.017 46.8587C327.999 39.9403 341.323 30.8259 353.806 20.7679L353.806 20.6598C341.314 30.7409 327.971 39.8708 312.971 46.7891Z" fill="#FFAAC4"/>
<path d="M312.794 47.0746C302.241 51.7914 291.373 55.9903 280.041 60.2734C278.853 60.7271 277.656 61.1731 276.458 61.6268C265.813 65.6098 255.113 69.2298 244.173 71.9921C224.604 76.949 204.547 79.1789 184.356 79.1457C171.936 79.1254 159.453 78.2553 147.009 76.6285C114.182 72.2807 82.3451 63.9417 54.3263 51.8788C43.2411 47.111 32.63 41.6875 22.8458 35.4081C11.505 28.1299 -0.187161 20.2024 -9.46484 10.4717L-9.46505 10.5952C-0.196588 20.2951 11.4771 28.2071 22.79 35.4698C32.5835 41.7492 43.1946 47.1727 54.2891 51.9482C82.3079 64.0111 114.163 72.3502 146.99 76.698C159.444 78.3248 171.927 79.2026 184.355 79.223C204.557 79.2561 224.622 77.0262 244.201 72.0616C255.15 69.307 265.85 65.6794 276.495 61.6963C277.693 61.2427 278.89 60.7967 280.078 60.343C291.41 56.0599 302.278 51.861 312.831 47.1441C327.905 40.4654 341.285 31.4901 353.804 21.5326L353.804 21.4322C341.267 31.4051 327.887 40.3881 312.794 47.0746Z" fill="#FFAAC4"/>
<path d="M312.617 47.3601C301.999 51.9069 291.103 55.959 279.772 60.188C278.584 60.634 277.386 61.08 276.189 61.526C265.572 65.4704 254.918 69.1368 244.034 71.9532C223.713 77.2333 202.895 79.5932 181.915 79.5588C170.368 79.5398 158.775 78.7949 147.183 77.4166C114.421 73.4318 82.5646 65.6643 54.3593 54.1571C43.2088 49.6132 32.5139 44.4212 22.6087 38.3656C11.4897 31.5666 -0.119822 24.1721 -9.47266 15.0205L-9.47285 15.1364C-0.129249 24.2648 11.4711 31.6438 22.553 38.4273C32.4581 44.4906 43.1623 49.6749 54.3221 54.2266C82.5366 65.7338 114.402 73.5013 147.174 77.4861C158.766 78.8721 170.368 79.6171 181.915 79.636C202.905 79.6705 223.731 77.3105 244.052 72.0305C254.955 69.2141 265.609 65.54 276.226 61.5878C277.423 61.1496 278.621 60.7036 279.818 60.2576C291.14 56.0286 302.036 51.9765 312.654 47.4296C327.82 40.9827 341.247 32.1542 353.803 22.3049L353.803 22.1967C341.228 32.0615 327.793 40.9131 312.617 47.3601Z" fill="#FFAAC4"/>
<path d="M312.433 47.6457C301.768 52.0303 290.836 55.9279 279.513 60.1029C278.326 60.5411 277.128 60.9794 275.931 61.4176C265.323 65.3389 254.725 69.044 243.887 71.9146C222.795 77.5332 201.19 80.0385 179.375 80.0027C168.745 79.9853 158.061 79.3576 147.369 78.2048C114.662 74.5831 82.7858 67.3871 54.3942 56.4356C43.1784 52.1155 32.3903 47.1629 22.3735 41.3233C11.4764 34.9726 -0.0598303 28.0879 -9.47852 19.5L-9.47869 19.6081C-0.0599824 28.1806 11.4577 35.0421 22.3177 41.385C32.3438 47.2246 43.1412 52.185 54.3569 56.5051C82.7579 67.4565 114.643 74.6603 147.36 78.2743C158.052 79.4349 168.745 80.0548 179.375 80.0722C201.199 80.1081 222.814 77.6027 243.915 71.9918C254.762 69.1135 265.36 65.4085 275.968 61.4872C277.165 61.0489 278.363 60.6107 279.55 60.1647C290.873 55.9974 301.805 52.0998 312.479 47.7153C327.737 41.5079 341.201 32.8108 353.803 23.0696L353.803 22.9615C341.191 32.7258 327.71 41.4306 312.433 47.6457Z" fill="#FFAAC4"/>
<path d="M312.256 47.9386C301.527 52.1531 290.567 55.8962 279.245 60.0094C278.057 60.4477 276.869 60.8782 275.672 61.3165C265.082 65.2069 254.53 68.9507 243.739 71.8831C221.84 77.8479 199.427 80.4987 176.749 80.4615C167.057 80.4456 157.319 79.9431 147.554 78.9926C114.901 75.7417 83.0057 69.1094 54.4276 58.7214C43.1466 54.6174 32.2746 49.8963 22.1369 44.2728C11.4524 38.3472 -0.0104057 31.9492 -9.48559 23.8786L-9.48577 23.9867C-0.0105451 32.0342 11.4244 38.4244 22.0811 44.3345C32.2281 49.958 43.1093 54.6869 54.3904 58.7908C82.9778 69.1788 114.883 75.8111 147.544 79.0621C157.309 80.0126 167.057 80.5228 176.749 80.5387C199.427 80.576 221.858 77.9252 243.766 71.9527C254.567 69.0202 265.119 65.2688 275.709 61.386C276.906 60.9478 278.094 60.5173 279.282 60.079C290.604 55.9658 301.564 52.2227 312.293 48.0004C327.644 42.0249 341.163 33.4746 353.802 23.8339L353.802 23.7335C341.153 33.3819 327.626 41.9553 312.256 47.9386Z" fill="#FFAAC4"/>
<path d="M312.079 48.2241C301.285 52.2687 290.298 55.865 278.984 59.9241C277.797 60.3547 276.599 60.7852 275.411 61.2157C264.841 65.0676 254.335 68.8577 243.59 71.8443C220.865 78.1862 197.598 80.9901 174.021 80.9514C165.293 80.937 156.529 80.5365 147.728 79.7807C115.13 76.8928 83.2341 70.832 54.4603 60.9998C43.1139 57.1197 32.1488 52.6301 21.8994 47.2304C11.4091 41.7067 0.0382828 35.7645 -9.49338 28.1958L-9.49354 28.2962C0.0288699 35.8494 11.3904 41.7839 21.853 47.2921C32.1116 52.6995 43.0767 57.1891 54.4231 61.0692C83.2061 70.9092 115.121 76.97 147.718 79.8501C156.519 80.6137 165.293 81.0143 174.021 81.0286C197.607 81.0673 220.883 78.2635 243.617 71.9139C254.372 68.9273 264.878 65.1371 275.448 61.2853C276.636 60.8547 277.834 60.4242 279.021 59.9937C290.335 55.9345 301.322 52.3382 312.116 48.2859C327.559 42.55 341.124 34.131 353.8 24.5985L353.8 24.4981C341.105 34.0461 327.531 42.4727 312.079 48.2241Z" fill="#FFAAC4"/>
<path d="M311.901 48.5019C301.052 52.3919 290.037 55.8337 278.715 59.8388C277.527 60.2616 276.339 60.6844 275.151 61.115C264.59 64.936 254.14 68.7648 243.45 71.8056C219.843 78.5476 195.704 81.5122 171.181 81.472C163.464 81.4593 155.701 81.1531 147.911 80.5688C115.369 78.044 83.4531 72.5547 54.4929 63.2782C43.0813 59.622 32.0324 55.3639 21.662 50.1802C11.3565 45.043 0.0777738 39.5335 -9.50103 32.4358L-9.5012 32.5362C0.0683599 39.6184 11.3379 45.1202 21.6155 50.2497C31.9951 55.4334 43.0441 59.6914 54.4557 63.3476C83.4252 72.6319 115.36 78.1212 147.902 80.6383C155.692 81.2226 163.455 81.5365 171.181 81.5492C195.713 81.5895 219.861 78.6171 243.478 71.8751C254.177 68.8344 264.627 65.0055 275.188 61.1845C276.376 60.754 277.564 60.3312 278.752 59.9084C290.065 55.9033 301.08 52.4615 311.938 48.5715C327.465 43.0673 341.076 34.7952 353.798 25.3632L353.798 25.2628C341.066 34.7025 327.446 42.9978 311.901 48.5019Z" fill="#FFAAC4"/>
<path d="M311.726 48.7872C300.812 52.5149 289.77 55.8022 278.457 59.7533C277.269 60.1684 276.081 60.5834 274.884 61.014C264.35 64.7964 253.946 68.6717 243.303 71.7666C218.805 78.9241 193.748 82.0649 168.223 82.023C161.545 82.012 154.839 81.7848 148.097 81.3567C115.61 79.2027 83.6742 74.2771 54.5276 65.5564C43.0506 62.124 31.9178 58.0975 21.4265 53.1376C11.306 48.3559 0.110022 43.2558 -9.50664 36.6137L-9.5068 36.7141C0.100605 43.3407 11.278 48.4331 21.3801 53.207C31.8806 58.1669 43.0227 62.2012 54.4903 65.6258C83.6555 74.3543 115.6 79.2722 148.087 81.4262C154.83 81.862 161.544 82.0893 168.222 82.1002C193.757 82.1421 218.823 79.0014 243.331 71.8361C253.983 68.7412 264.387 64.8659 274.921 61.0835C276.109 60.653 277.306 60.2379 278.494 59.8228C289.797 55.8718 300.84 52.5845 311.754 48.8568C327.382 43.5922 341.039 35.4514 353.798 26.1276L353.798 26.0272C341.029 35.3665 327.354 43.5149 311.726 48.7872Z" fill="#FFAAC4"/>
<path d="M311.549 49.0727C300.57 52.6305 289.5 55.771 278.187 59.6602C276.999 60.0753 275.811 60.4904 274.623 60.9132C264.109 64.6648 253.751 68.5788 243.154 71.7278C217.718 79.3318 191.724 82.6486 165.132 82.6049C159.539 82.5958 153.919 82.4398 148.271 82.1448C115.848 80.3539 83.8933 75.9998 54.5509 67.8348C43.018 64.634 31.8013 60.8313 21.1891 56.0952C11.2349 51.6536 0.1311 46.9398 -9.5141 40.7379L-9.51426 40.8305C0.121686 47.0247 11.2163 51.7308 21.1426 56.1569C31.7641 60.9008 42.99 64.7034 54.523 67.9119C83.8746 76.0769 115.839 80.4311 148.271 82.2143C153.919 82.517 159.539 82.673 165.132 82.6822C191.733 82.7258 217.737 79.409 243.182 71.8051C253.788 68.6483 264.146 64.7343 274.66 60.9828C275.848 60.56 277.036 60.1449 278.224 59.7298C289.528 55.8405 300.607 52.7 311.576 49.15C327.287 44.1096 341 36.1079 353.796 26.8922L353.796 26.7918C340.991 36.0229 327.269 44.04 311.549 49.0727Z" fill="#FFAAC4"/>
<path d="M311.362 49.3658C300.337 52.7535 289.23 55.7395 277.927 59.5747C276.739 59.9821 275.551 60.3894 274.363 60.8122C263.858 64.5252 253.556 68.4856 243.005 71.6965C216.595 79.7622 189.617 83.2705 161.912 83.225C157.442 83.2177 152.962 83.1177 148.454 82.9249C116.087 81.5048 84.1216 77.7222 54.5836 70.1206C42.9946 67.136 31.6848 63.5649 20.9517 59.0525C11.1639 54.9355 0.142958 50.5926 -9.52147 44.8L-9.52162 44.8926C0.142831 50.6698 11.1453 55.0127 20.9052 59.1142C31.6476 63.6343 42.9574 67.2055 54.5557 70.1901C84.1029 77.7917 116.077 81.5821 148.445 83.0021C152.952 83.1949 157.441 83.2872 161.912 83.3023C189.626 83.3478 216.613 79.8395 243.042 71.766C253.593 68.5552 263.895 64.5948 274.4 60.8818C275.588 60.459 276.776 60.0516 277.964 59.6443C289.258 55.809 300.365 52.823 311.399 49.4353C327.202 44.6344 340.952 36.7641 353.794 27.6566L353.794 27.5562C340.942 36.6791 327.184 44.5571 311.362 49.3658Z" fill="#FFAAC4"/>
<path d="M311.186 49.6438C300.097 52.8693 288.963 55.7085 277.659 59.4896C276.471 59.8893 275.293 60.2966 274.105 60.7117C263.618 64.3938 253.362 68.3929 242.867 71.658C215.426 80.224 187.437 83.9237 158.536 83.8763C155.244 83.8709 151.951 83.8191 148.64 83.7133C116.327 82.664 84.3426 79.4451 54.6182 72.3993C42.9639 69.6385 31.5703 66.2912 20.7069 62.0026C11.0856 58.2025 0.156828 54.2073 -9.52679 48.8085L-9.52695 48.9012C0.156702 54.2845 11.0669 58.2797 20.6697 62.072C31.5424 66.3607 42.936 69.708 54.5995 72.4688C84.324 79.5146 116.318 82.7412 148.631 83.7905C151.942 83.8963 155.243 83.9481 158.536 83.9535C187.446 84.001 215.445 80.3013 242.895 71.7275C253.399 68.4625 263.655 64.4634 274.133 60.7813C275.321 60.3662 276.508 59.9588 277.696 59.5592C288.99 55.778 300.125 52.9465 311.214 49.7211C327.11 45.152 340.915 37.4285 353.794 28.4215L353.794 28.3211C340.905 37.3436 327.091 45.0748 311.186 49.6438Z" fill="#FFAAC4"/>
<path d="M311.009 49.9293C299.855 52.9925 288.693 55.6695 277.399 59.4043C276.211 59.7885 275.023 60.1959 273.835 60.611C263.376 64.2545 253.167 68.3 242.718 71.6192C214.21 80.7164 185.163 84.6151 154.991 84.5656C152.932 84.5622 150.882 84.5434 148.814 84.5014C116.556 83.8152 84.5617 81.16 54.6509 74.6777C42.9313 72.1408 31.4538 69.025 20.4695 64.9602C11.0054 61.4539 0.168801 57.7908 -9.53399 52.7704L-9.53415 52.8631C0.168674 57.8681 10.9867 61.5311 20.4416 65.0296C31.4259 69.0945 42.9034 72.2102 54.6322 74.7472C84.5523 81.2372 116.556 83.8924 148.814 84.5786C150.873 84.6206 152.932 84.6395 154.991 84.6428C185.172 84.6924 214.238 80.7859 242.746 71.6887C253.204 68.3696 263.413 64.3241 273.872 60.6805C275.06 60.2655 276.248 59.8658 277.436 59.4739C288.73 55.7468 299.883 53.0621 311.037 50.0066C327.025 45.6694 340.876 38.085 353.792 29.1862L353.792 29.0858C340.867 38 327.006 45.5999 311.009 49.9293Z" fill="#FFAAC4"/>
<path d="M310.832 50.2224C299.623 53.1078 288.433 55.638 277.13 59.311C275.951 59.703 274.763 60.0949 273.575 60.5023C263.126 64.1226 252.972 68.1991 242.569 71.5802C212.956 81.2316 182.805 85.3525 151.261 85.3007C150.51 85.2995 149.749 85.2982 148.998 85.2893C116.795 84.9739 84.7901 82.8825 54.6835 76.9559C42.8987 74.6428 31.3374 71.7509 20.2321 67.9175C10.9159 64.6972 0.171546 61.3432 -9.54113 56.6935L-9.54127 56.7785C0.162133 61.4282 10.8972 64.7744 20.2041 67.987C31.3094 71.8203 42.8707 74.7123 54.6649 77.0331C84.7807 82.9519 116.795 85.0511 148.998 85.3665C149.749 85.3755 150.509 85.3767 151.261 85.378C182.814 85.4297 212.975 81.3089 242.606 71.6497C253.009 68.2687 263.162 64.1922 273.612 60.5718C274.8 60.1645 275.979 59.7725 277.167 59.3806C288.451 55.7153 299.641 53.1851 310.859 50.2919C326.931 46.1865 340.837 38.7412 353.79 29.9506L353.79 29.8502C340.828 38.6563 326.912 46.117 310.832 50.2224Z" fill="#FFAAC4"/>
<path d="M310.656 50.5079C299.382 53.231 288.165 55.6067 276.871 59.2257C275.683 59.6022 274.505 59.9941 273.317 60.4015C262.886 63.9833 252.778 68.1062 242.422 71.5414C212.215 81.6011 181.516 85.976 149.174 86.0774C148.228 86.0836 147.272 86.082 146.317 86.0804C115.134 86.0292 84.1303 84.3874 54.7182 79.2343C42.8773 77.1219 31.2228 74.477 19.9966 70.8674C10.8191 67.9176 0.167007 64.8727 -9.54623 60.5628L-9.54638 60.6555C0.166881 64.9499 10.8004 67.9948 19.9687 70.9368C31.2042 74.5464 42.8494 77.1914 54.6995 79.3115C84.1117 84.4646 115.134 86.1065 146.317 86.1576C147.272 86.1592 148.228 86.1531 149.174 86.1546C181.525 86.0455 212.243 81.6707 242.459 71.6109C252.815 68.1758 262.923 64.0529 273.354 60.4711C274.532 60.0714 275.72 59.6795 276.899 59.2953C288.193 55.684 299.41 53.3083 310.675 50.5774C326.847 46.7116 340.791 39.3977 353.79 30.7075L353.79 30.6148C340.782 39.3127 326.829 46.6343 310.656 50.5079Z" fill="#FFAAC4"/>
<path d="M310.469 50.7933C299.14 53.3542 287.895 55.5754 276.602 59.1403C275.423 59.5091 274.235 59.901 273.057 60.3007C262.635 63.8516 252.583 68.0132 242.282 71.5102C212.186 81.7324 181.673 86.3933 149.357 86.8654C144.673 86.9273 139.999 86.9582 135.324 86.9505C107.962 86.9056 80.7979 85.579 54.7508 81.5203C42.8447 79.6241 31.1156 77.203 19.7592 73.8249C10.7111 71.1379 0.160542 68.3789 -9.55324 64.4011L-9.55338 64.486C0.151141 68.4561 10.7017 71.2074 19.7312 73.8943C31.0877 77.2725 42.826 79.6936 54.7321 81.5898C80.7885 85.6485 107.953 86.9828 135.324 87.0278C139.999 87.0354 144.673 87.0045 149.357 86.9427C181.682 86.4706 212.214 81.8019 242.31 71.5798C252.62 68.0828 262.681 63.9212 273.084 60.3702C274.272 59.9706 275.451 59.5864 276.639 59.2099C287.923 55.6527 299.168 53.4238 310.497 50.8629C326.753 47.2289 340.752 40.0541 353.788 31.4721L353.788 31.3717C340.743 39.9691 326.744 47.1516 310.469 50.7933Z" fill="#FFAAC4"/>
<path d="M310.294 51.0709C298.91 53.4695 287.628 55.5439 276.343 59.0471C275.156 59.4158 273.977 59.8 272.798 60.1997C262.395 63.7197 252.39 67.92 242.135 71.4712C212.159 81.8635 181.822 86.8182 149.543 87.6533C141 87.8633 132.467 87.9805 123.952 87.9666C100.523 87.9281 77.291 86.8705 54.7854 83.7985C42.814 82.1261 31.0011 79.9289 19.5237 76.7822C10.6143 74.3349 0.146819 71.854 -9.55822 68.2006L-9.55836 68.2856C0.146692 71.9313 10.5957 74.4121 19.4958 76.8517C30.9732 79.9983 42.7953 82.2033 54.7667 83.868C77.2816 86.9478 100.523 88.0053 123.952 88.0438C132.467 88.0578 141.009 87.9405 149.543 87.7305C181.831 86.8954 212.187 81.9407 242.172 71.5408C252.427 67.9896 262.432 63.7816 272.826 60.2692C274.014 59.8696 275.193 59.4931 276.371 59.1243C287.655 55.6212 298.928 53.5468 310.322 51.1482C326.67 47.746 340.715 40.7103 353.788 32.2365L353.788 32.1361C340.706 40.6253 326.652 47.6688 310.294 51.0709Z" fill="#FFAAC4"/>
<path d="M310.117 51.3642C298.668 53.5927 287.358 55.5126 276.074 58.9617C274.895 59.3228 273.707 59.6993 272.529 60.0989C262.154 63.5804 252.194 67.8271 241.986 71.4324C212.131 81.9948 181.969 87.2432 149.717 88.4414C137.371 88.8845 125.007 89.1731 112.708 89.153C93.1564 89.1209 73.7634 88.309 54.8088 86.0769C42.7814 84.6284 30.8847 82.6472 19.2863 79.7321C10.4971 77.532 0.131179 75.3063 -9.56509 71.9617L-9.56523 72.0467C0.131039 75.3912 10.4877 77.6015 19.2583 79.8092C30.866 82.7244 42.7627 84.7056 54.7994 86.1541C73.754 88.3862 93.1562 89.1981 112.708 89.2302C125.007 89.2504 137.371 88.9617 149.726 88.5186C181.987 87.3205 212.158 82.072 242.023 71.502C252.231 67.8967 262.191 63.65 272.566 60.1685C273.744 59.7765 274.923 59.4001 276.111 59.0313C287.386 55.5899 298.686 53.67 310.135 51.4337C326.576 48.2634 340.676 41.3667 353.786 32.9934L353.786 32.9007C340.658 41.2818 326.567 48.1861 310.117 51.3642Z" fill="#FFAAC4"/>
<path d="M309.939 51.6496C298.425 53.7159 287.088 55.4813 275.814 58.8763C274.626 59.2297 273.447 59.6061 272.269 59.9981C261.903 63.4487 251.999 67.7341 241.837 71.3936C212.102 82.1337 182.125 87.6682 149.901 89.2294C133.9 89.9909 117.853 90.5438 101.918 90.5176C86.0672 90.4916 70.3283 89.8943 54.8414 88.3552C42.7487 87.1305 30.7682 85.3732 19.0488 82.6895C10.3799 80.7137 0.106276 78.7429 -9.57193 75.6919L-9.57205 75.7691C0.10615 78.8201 10.3705 80.7832 19.0209 82.7667C30.7495 85.4427 42.73 87.2077 54.832 88.4324C70.3282 89.9638 86.0671 90.5689 101.918 90.5949C117.853 90.621 133.9 90.0681 149.91 89.3067C182.143 87.7378 212.13 82.2033 241.874 71.4631C252.036 67.8037 261.949 63.5105 272.306 60.0676C273.484 59.6757 274.663 59.2992 275.841 58.9459C287.116 55.5586 298.444 53.7854 309.958 51.7191C326.491 48.7807 340.628 42.0231 353.784 33.758L353.784 33.6576C340.619 41.9381 326.472 48.7034 309.939 51.6496Z" fill="#FFAAC4"/>
<path d="M309.764 51.9351C298.195 53.8315 286.83 55.4501 275.546 58.791C274.367 59.1366 273.189 59.5054 272.01 59.8973C261.663 63.3093 251.806 67.6412 241.699 71.3548C212.075 82.2651 182.283 88.0856 150.086 90.0176C130.653 91.1596 111.136 92.0774 91.7701 92.0457C79.3879 92.0253 67.0712 91.619 54.8761 90.6336C42.718 89.6328 30.6537 88.0916 18.8134 85.6471C10.2646 83.8877 0.0833765 82.1565 -9.57674 79.3913L-9.57687 79.4685C0.0832498 82.2337 10.2552 83.9572 18.7854 85.7166C30.6443 88.1688 42.7086 89.71 54.8667 90.7108C67.0618 91.6962 79.3877 92.1026 91.77 92.1229C111.136 92.1547 130.662 91.2368 150.086 90.0948C182.292 88.1629 212.103 82.3346 241.736 71.4244C251.843 67.7108 261.7 63.3789 272.038 59.9669C273.217 59.575 274.395 59.2062 275.583 58.8606C286.848 55.5273 298.213 53.9087 309.782 52.0047C326.398 49.298 340.591 42.6796 353.784 34.5149L353.784 34.4222C340.582 42.5946 326.389 49.2285 309.764 51.9351Z" fill="#FFAAC4"/>
<path d="M309.586 52.2206C297.953 53.9546 286.56 55.4187 275.286 58.7056C274.098 59.0435 272.919 59.4123 271.75 59.7965C261.421 63.1776 251.61 67.5482 241.55 71.3159C212.046 82.3963 182.43 88.5106 150.26 90.8056C127.654 92.4057 104.891 93.7894 82.3245 93.7524C73.1515 93.7373 63.9974 93.4829 54.9087 92.9196C42.6854 92.135 30.5372 90.8099 18.5759 88.6046C10.1474 87.0462 0.0585519 85.5468 -9.58346 83.0519L-9.5836 83.1369C0.0584251 85.6241 10.138 87.1234 18.5573 88.6741C30.5278 90.8871 42.676 92.2122 54.8993 92.9968C63.9972 93.5601 73.1421 93.8068 82.3244 93.8219C104.9 93.8589 127.663 92.4753 150.269 90.8828C182.449 88.5879 212.074 82.4658 241.587 71.3855C251.647 67.6177 261.458 63.2472 271.778 59.866C272.956 59.4818 274.135 59.1208 275.313 58.7752C286.579 55.496 297.971 54.0319 309.596 52.2901C326.313 49.8153 340.543 43.3282 353.782 35.2717L353.782 35.1791C340.543 43.251 326.295 49.7458 309.586 52.2206Z" fill="#FFAAC4"/>
<path d="M309.4 52.5061C297.711 54.0701 286.291 55.3875 275.016 58.6126C273.838 58.9505 272.659 59.3115 271.481 59.6957C261.17 63.0383 251.415 67.4553 241.401 71.2849C212.018 82.5276 182.577 88.9357 150.444 91.5937C124.915 93.6911 99.1458 95.6567 73.5836 95.6148C67.3508 95.6045 61.1367 95.4708 54.9414 95.198C42.6528 94.6373 30.43 93.5283 18.3385 91.5545C10.0209 90.2048 0.0244753 88.9295 -9.59013 86.6895L-9.59026 86.7668C0.0243485 89.0067 10.0116 90.2743 18.3198 91.6317C30.4113 93.6055 42.6434 94.7145 54.9412 95.2753C61.1366 95.548 67.3507 95.6741 73.5835 95.6843C99.1549 95.7263 124.924 93.7683 150.453 91.6709C182.596 89.0129 212.045 82.6049 241.438 71.3544C251.452 67.5248 261.217 63.1079 271.518 59.7653C272.696 59.3811 273.865 59.02 275.053 58.6822C286.309 55.4647 297.729 54.1474 309.418 52.5757C326.219 50.3327 340.504 43.9847 353.78 36.0364L353.78 35.9437C340.495 43.8997 326.21 50.2632 309.4 52.5061Z" fill="#FFAAC4"/>
<path d="M309.224 52.7916C297.48 54.1933 286.023 55.3561 274.758 58.5272C273.579 58.8573 272.401 59.2107 271.222 59.5872C260.931 62.9066 251.222 67.3622 241.254 71.246C211.991 82.6588 182.735 89.3607 150.629 92.3817C122.429 95.0307 93.8662 97.6714 65.4937 97.6249C61.9784 97.6191 58.4725 97.567 54.976 97.4763C42.6221 97.1471 30.3155 96.231 18.103 94.512C9.88719 93.34 -0.00759652 92.2735 -9.5948 90.2884L-9.59492 90.3656C-0.00772328 92.3507 9.88708 93.4095 18.0843 94.5891C30.3061 96.3083 42.6127 97.2166 54.9758 97.5535C58.4724 97.6442 61.9783 97.6963 65.4936 97.7021C93.866 97.7487 122.438 95.108 150.638 92.4589C182.754 89.4302 212.018 82.7361 241.3 71.3156C251.259 67.4241 260.968 62.9762 271.259 59.6645C272.429 59.2802 273.607 58.9269 274.786 58.5967C286.041 55.4334 297.489 54.2705 309.243 52.8611C326.136 50.85 340.467 44.6411 353.78 36.7932L353.78 36.7005C340.458 44.5561 326.127 50.7727 309.224 52.7916Z" fill="#FFAAC4"/>
<path d="M309.047 53.077C296.004 54.4457 283.351 55.5371 270.962 59.4863C260.68 62.7672 251.026 67.2693 241.114 71.2072C211.962 82.7978 182.882 89.7857 150.803 93.1698C120.162 96.4095 89.011 99.8259 57.9952 99.775C44.5741 99.753 31.182 99.0823 17.8563 97.4695C9.76073 96.4908 -0.0509068 95.6252 -9.60141 93.8873L-9.60154 93.9645C-0.0510336 95.7024 9.75134 96.5603 17.8469 97.5467C31.1726 99.1595 44.574 99.8225 57.995 99.8445C89.0202 99.8955 120.172 96.4867 150.822 93.247C182.901 89.8552 211.99 82.8674 241.151 71.2767C251.063 67.3311 260.726 62.8368 270.99 59.5559C283.369 55.6066 296.013 54.523 309.056 53.1543C326.042 51.3672 340.428 45.2974 353.778 37.55L353.779 37.4574C340.419 45.2125 326.033 51.29 309.047 53.077Z" fill="#FFAAC4"/>
</svg>
