<svg width="5049" height="1679" viewBox="0 0 5049 1679" fill="none" xmlns="http://www.w3.org/2000/svg">
<path d="M4421.21 159.103C4229.96 248.957 4117.09 400.823 3903.71 471.675C3762.23 518.693 3604.44 523.911 3445.42 523.65C3397.92 523.572 3350.29 523.004 3302.92 522.926C3268.64 522.87 3234.63 523.059 3200.76 523.903C2619.59 538.072 2434.14 702.49 1949.94 856.607C1780.51 910.528 1626.55 932.838 1483.91 932.604C847.966 931.805 433.597 482.411 -147.409 396.521L-147.413 398.483C431.116 484.287 845.76 933.273 1483.91 934.566C1627.23 934.801 1781.61 912.41 1951.45 858.326C2436.34 703.883 2620.97 539.955 3200.9 525.865C3234.63 525.021 3268.64 524.832 3302.92 524.888C3350.14 524.965 3397.92 525.534 3445.42 525.612C3604.58 525.874 3762.92 520.656 3905.36 473.313C4119.84 401.972 4232.85 250.025 4423.13 160.578C4660.68 49.0549 4948.44 -40.3954 5246.1 -120.51L5246.1 -122.554C4947.89 -42.3583 4659.3 47.2542 4421.21 159.103Z" fill="#D9D9D9"/>
<path d="M5056.41 -62.5338C4841.81 -5.82607 4636.29 57.6817 4459.24 137.749C4379.05 174.077 4312.2 221.545 4246.99 270.977C4155.32 340.475 4070.12 410.966 3951.23 454.424C3818.57 502.846 3669.17 512.084 3506.84 512.635C3499.27 512.622 3491.7 512.61 3483.99 512.597C3436.35 512.519 3388.85 511.951 3341.76 511.873C3312.03 511.825 3282.56 511.94 3253.23 512.627C3023.03 517.4 2856.8 546.556 2704.85 596.254C2486.65 667.753 2313.42 770.225 2019.74 858.358C1872.21 902.668 1748.28 915.872 1628.08 915.674C1580.45 915.596 1533.36 913.393 1485.59 910.209C1294.52 897.878 1124.4 864.9 967.656 817.801C809.402 770.291 659.157 708.406 493.777 640.529C318.49 568.631 146.378 491.914 -44.3883 456.367C-78.6602 450.017 -113.072 444.892 -147.485 440.993L-147.489 442.955C-113.35 446.853 -79.3518 451.977 -45.3549 458.164C144.723 493.628 316.56 570.181 491.984 642.162C657.364 709.957 807.747 771.923 966.139 819.515C1123.15 866.778 1293.82 899.757 1485.32 912.17C1533.09 915.355 1580.31 917.476 1628.08 917.555C1748.69 917.753 1873.31 904.55 2021.25 860.077C2315.35 771.782 2488.72 669.227 2706.5 597.974C2857.9 548.356 3023.57 519.362 3253.37 514.508C3282.56 513.902 3312.02 513.705 3341.76 513.754C3388.71 513.831 3436.35 514.481 3483.98 514.559C3491.69 514.572 3499.27 514.503 3506.84 514.515C3669.3 514.046 3819.39 504.81 3952.88 456.062C4072.6 412.36 4157.94 341.624 4249.47 272.125C4314.67 222.775 4381.39 175.389 4461.16 139.224C4637.94 59.3193 4843.19 -4.10711 5057.79 -60.7331C5119.91 -77.1442 5182.85 -93.227 5246.07 -109.146L5246.08 -111.271C5182.44 -95.2714 5119.08 -79.0258 5056.41 -62.5338Z" fill="#D9D9D9"/>
<path d="M5101.85 -68.5907C4885.75 -18.507 4676.52 38.2913 4497.4 116.312C4416.39 151.657 4348.57 198.551 4283.37 248.964C4191.83 319.771 4111.86 391.66 3998.61 437.171C3872.28 487.892 3728.24 500.49 3559.86 501.522C3548.43 501.585 3537.14 501.566 3525.71 501.548C3476.42 501.467 3427.55 500.896 3379.5 500.817C3354.72 500.776 3330.07 500.818 3305.7 501.268C3077.97 505.309 2914.77 533.571 2761.44 589.644C2549.98 667.039 2386.1 775.985 2089.67 860.189C1971.07 893.838 1873.72 903.897 1781.06 903.744C1702.44 903.615 1627.28 896.053 1545.65 889.216C1346.32 872.375 1169.98 851.322 1013.22 817.712C853.705 783.443 703.16 736.681 522.765 673.357C336.041 607.816 156.914 527.001 -44.7383 496.913C-79.4251 491.706 -113.563 487.726 -147.566 484.973L-147.569 486.935C-113.842 489.688 -79.9789 493.586 -45.5673 498.71C155.259 528.715 334.248 609.448 521.11 674.99C701.643 738.314 852.326 785.157 1012.12 819.508C1169.15 853.201 1345.76 874.255 1545.23 891.095C1626.73 898.014 1702.03 905.577 1781.06 905.706C1873.99 905.859 1972.17 895.638 2091.05 861.908C2388.16 777.541 2552.18 668.432 2763.09 591.281C2916.01 535.371 3078.38 507.19 3305.84 503.149C3330.21 502.78 3354.71 502.657 3379.5 502.697C3427.55 502.776 3476.42 503.429 3525.71 503.51C3537.14 503.528 3548.57 503.547 3559.99 503.484C3728.52 502.371 3873.38 489.774 4000.4 438.727C4114.34 392.972 4194.45 320.838 4285.98 250.113C4351.05 199.781 4418.73 153.051 4499.19 117.868C4678.17 40.0107 4886.98 -16.7065 5103.08 -66.872C5150.46 -77.8302 5198.26 -88.8694 5246.05 -99.827L5246.05 -101.952C5197.85 -90.8321 5149.78 -79.7115 5101.85 -68.5907Z" fill="#D9D9D9"/>
<path d="M5147.45 -74.7282C4929.7 -31.1052 4716.91 18.9839 4535.46 94.9568C4453.76 129.32 4384.98 175.558 4319.77 226.953C4228.37 299.068 4153.63 372.436 4046.16 419.919C3926.15 472.858 3787.48 488.816 3613.04 490.492C3598.72 490.55 3584.4 490.609 3570.22 490.585C3518.04 490.5 3466.82 489.762 3416.57 489.679C3397.02 489.647 3377.47 489.697 3358.19 489.91C3132.81 493.137 2972.91 520.342 2817.92 583.034C2613.19 665.917 2458.66 781.5 2159.49 861.939C2062.25 888.102 1982.24 896.8 1908.3 896.678C1805.46 896.51 1714.48 879.193 1605.87 868.224C1398.14 847.119 1214.91 837.826 1058.95 817.542C897.346 796.513 747.464 764.794 551.642 706.105C353.893 646.922 167.199 562.333 -45.0624 537.379C-80.0265 533.316 -114.029 530.399 -147.62 528.709L-147.623 530.67C-114.307 532.36 -80.4426 535.195 -45.754 539.339C165.544 564.129 352.1 648.472 550.262 707.901C746.222 766.59 896.517 798.392 1058.26 819.421C1214.63 839.706 1397.73 848.999 1605.31 870.104C1713.65 881.072 1804.77 898.389 1908.3 898.559C1982.65 898.681 2063.21 889.984 2160.86 863.74C2460.73 783.056 2615.53 667.229 2819.71 584.671C2974.15 522.143 3133.35 495.1 3358.19 491.872C3377.47 491.659 3397.02 491.527 3416.57 491.559C3466.82 491.642 3518.04 492.38 3570.22 492.465C3584.4 492.489 3598.72 492.512 3613.04 492.372C3787.75 490.779 3927.39 474.74 4048.08 421.475C4156.24 373.667 4230.98 300.053 4322.38 228.101C4387.45 176.789 4456.09 130.714 4537.24 96.5129C4718.42 20.7031 4930.94 -29.3048 5148.41 -72.9282C5180.91 -79.4146 5213.55 -86.0644 5246.06 -92.7144L5246.06 -94.7581C5213.14 -88.027 5180.23 -81.3777 5147.45 -74.7282Z" fill="#D9D9D9"/>
<path d="M5192.87 -80.8693C4973.9 -43.6247 4757.26 -0.326964 4573.47 73.5984C4491.08 106.898 4421.34 152.644 4356.13 204.937C4264.87 278.279 4195.36 353.128 4093.53 402.663C3979.99 457.82 3846.68 477.466 3666.04 479.377C3648.56 479.593 3631.35 479.647 3614.28 479.619C3558.79 479.528 3504.55 478.539 3451.82 478.453C3438.05 478.43 3424.28 478.489 3410.65 478.631C3187.74 480.962 3030.74 506.946 2874.36 576.42C2676.23 664.464 2531.05 786.848 2229.27 863.686C2146.08 884.885 2077.23 892.539 2014.86 892.436C1892.73 892.236 1795.58 862.402 1665.91 847.147C1449.8 821.859 1259.38 824.49 1104.5 817.369C940.398 809.906 792.007 792.822 580.619 738.93C371.983 685.779 177.448 597.744 -45.424 577.922C-80.5274 574.84 -114.531 572.904 -147.711 572.114L-147.714 574.076C-114.672 574.784 -80.8058 576.72 -45.8401 579.802C175.93 599.54 370.328 687.411 579.377 740.727C791.04 794.701 939.982 811.785 1104.22 819.33C1259.38 826.452 1449.65 823.821 1665.36 849.027C1794.34 864.198 1891.77 894.114 2014.85 894.316C2077.64 894.419 2147.04 886.767 2230.51 865.486C2533.12 788.404 2678.71 665.694 2876.29 577.976C3032.25 508.747 3188.15 482.925 3410.65 480.511C3424.28 480.451 3438.04 480.392 3451.81 480.415C3504.54 480.501 3558.65 481.489 3614.27 481.581C3631.35 481.609 3648.69 481.555 3666.04 481.339C3847.09 479.347 3981.36 459.703 4095.59 404.138C4198.11 354.277 4267.62 279.346 4358.75 206.086C4423.82 153.874 4493.28 108.373 4575.4 75.1548C4758.49 1.47352 4974.86 -41.8247 5193.83 -79.0693C5211.19 -81.9837 5228.68 -85.0615 5246.03 -88.1394L5246.03 -90.1013C5228.27 -87.0241 5210.64 -83.8648 5192.87 -80.8693Z" fill="#D9D9D9"/>
<path d="M5238.32 -87.0081C5017.98 -56.1421 4797.5 -19.7174 4611.65 52.1609C4528.44 84.5599 4457.73 129.65 4392.66 182.925C4301.39 257.574 4237.11 333.903 4140.92 385.41C4033.85 442.785 3905.77 465.791 3719.07 468.346C3699.94 468.559 3681.07 468.692 3662.35 468.661C3602.87 468.564 3545.32 467.325 3489.56 467.233C3480.75 467.219 3471.8 467.286 3463.13 467.272C3242.7 468.872 3088.6 493.388 2930.96 569.809C2739.02 662.768 2603.2 792.034 2299.08 865.517C2225.66 883.299 2164.39 889.983 2109.59 889.893C1970.53 889.665 1872.99 845.525 1726.12 826.155C1624.67 812.827 1528.58 808.582 1439.77 808.436C1331.69 808.258 1234.21 814.148 1150.08 817.28C1109.87 818.767 1070.91 819.766 1031.67 819.701C907.895 819.498 782.073 808.91 609.621 771.758C390.374 724.557 187.858 633.157 -45.7608 618.468C-78.8006 616.37 -110.741 615.337 -141.856 615.286C-143.784 615.282 -145.849 615.279 -147.777 615.276L-147.78 617.238C-145.852 617.241 -143.787 617.163 -141.859 617.166C-110.881 617.217 -79.0791 618.332 -46.0393 620.429C186.203 634.953 388.719 726.107 608.516 773.555C781.244 810.788 907.617 821.46 1031.67 821.663C1070.9 821.728 1110.01 820.729 1150.35 819.242C1234.48 816.028 1331.97 810.139 1439.77 810.316C1528.43 810.462 1624.25 814.706 1725.43 828.034C1871.47 847.239 1969.29 891.543 2109.59 891.855C2164.8 891.946 2226.63 885.099 2300.31 867.317C2605.26 793.509 2741.64 663.999 2933.03 571.366C3090.11 495.189 3242.97 470.834 3463.13 469.233C3471.94 469.166 3480.75 469.181 3489.56 469.195C3545.18 469.286 3602.73 470.444 3662.35 470.541C3681.07 470.572 3700.07 470.522 3719.21 470.226C3906.32 467.754 4035.36 444.586 4143.13 386.885C4239.86 334.97 4304.15 258.56 4395.28 184.074C4460.21 130.881 4530.64 85.9533 4613.44 53.7988C4798.73 -17.8352 5018.81 -54.3423 5239.15 -85.1265C5241.49 -85.4497 5243.69 -85.7731 5246.03 -86.0962L5246.03 -88.1399C5243.42 -87.7355 5240.94 -87.4125 5238.32 -87.0081Z" fill="#D9D9D9"/>
<path d="M4649.68 30.8072C4565.78 62.1425 4494.12 106.659 4429.04 160.915C4337.91 236.872 4278.86 314.599 4188.45 368.159C4087.57 427.833 3964.99 454.2 3772.1 457.235C3751.58 457.61 3731.34 457.741 3711.38 457.708C3647.77 457.603 3586.64 456.113 3527.86 456.017C3523.73 456.01 3519.59 456.003 3515.6 455.997C3297.52 456.701 3146.3 479.751 2987.42 563.2C2801.67 660.911 2675.19 797.059 2369.02 867.268C2302.49 882.528 2246.72 888.567 2197.16 888.486C2042.54 888.232 1948.19 828.647 1786.18 805.164C1707.44 793.754 1631.73 789.379 1560.13 789.261C1420.25 789.032 1296.18 805.096 1195.65 817.193C1110.96 827.354 1032.88 835.156 945.73 835.013C857.753 834.868 760.702 826.616 638.616 804.589C408.758 763.092 198.125 668.573 -46.1039 659.016C-67.0299 658.165 -87.5436 657.804 -107.645 657.771C-121.275 657.749 -134.63 657.89 -147.848 658.195L-147.851 660.157C-134.633 659.77 -121.278 659.629 -107.648 659.651C-87.6844 659.684 -67.1708 660.126 -46.2448 660.978C196.607 670.451 407.103 764.725 637.649 806.386C760.011 828.495 857.475 836.748 945.727 836.893C1033.15 837.036 1111.64 829.236 1196.33 819.074C1296.72 807.059 1420.66 790.913 1560.13 791.141C1631.45 791.259 1706.89 795.633 1785.35 807.043C1946.4 830.279 2040.89 890.028 2197.15 890.366C2247.13 890.448 2303.45 884.41 2370.11 869.069C2677.39 798.534 2804.42 661.978 2989.62 564.675C3147.82 481.471 3297.93 458.664 3515.6 457.877C3519.59 457.883 3523.72 457.89 3527.85 457.897C3586.5 457.993 3647.63 459.483 3711.38 459.588C3731.34 459.621 3751.72 459.491 3772.23 459.197C3965.54 456.163 4089.36 429.553 4190.79 369.553C4281.75 315.585 4340.66 237.776 4431.66 162.063C4496.59 107.971 4567.98 63.6175 4651.47 32.4451C4828.08 -33.1538 5037.13 -63.2209 5246.03 -86.9118L5246.03 -88.8738C5036.86 -65.1015 4827.12 -35.0355 4649.68 30.8072Z" fill="#D9D9D9"/>
<path d="M4687.85 9.36859C4603.13 39.8032 4530.5 83.7461 4465.42 138.901C4374.29 216.166 4320.6 295.292 4235.83 350.987C4141.42 412.797 4024.21 442.606 3825.12 446.203C3803.5 446.576 3782.16 446.704 3761.23 446.67C3693.63 446.559 3629.34 444.819 3567.93 444.636C3352.46 444.528 3203.73 465.865 3043.88 556.588C2864.03 658.805 2747.05 801.917 2438.81 869.098C2377.79 882.404 2326.02 887.796 2280.17 887.721C2110.55 887.524 2022.01 811.762 1846.24 784.088C1777.41 773.348 1710.92 768.906 1647.45 768.802C1488.43 768.541 1348.64 795.452 1241.35 817.103C1130.34 839.565 1032.29 857.388 908.1 857.184C838.572 857.07 760.654 851.302 667.468 837.415C427.275 801.542 208.385 704.067 -46.4531 699.561C-55.6774 699.382 -64.7641 699.286 -73.851 699.271C-99.3218 699.229 -123.967 699.842 -147.926 700.948L-147.929 702.91C-123.971 701.723 -99.325 701.191 -73.8542 701.233C-64.7673 701.248 -55.6806 701.344 -46.4563 701.523C206.868 705.944 425.62 803.175 666.776 839.212C759.963 853.181 838.156 859.031 908.097 859.146C1032.83 859.351 1131.31 841.365 1242.31 818.903C1349.6 797.252 1488.98 770.422 1647.45 770.682C1710.64 770.786 1777 775.228 1845.41 785.967C2019.8 813.312 2108.62 889.238 2280.17 889.601C2326.43 889.677 2378.62 884.286 2439.91 870.898C2749.39 803.392 2866.92 659.872 3046.21 557.982C3205.38 467.584 3352.73 446.572 3567.93 446.598C3629.33 446.699 3693.49 448.521 3761.23 448.632C3782.16 448.666 3803.5 448.538 3825.25 448.165C4024.75 444.568 4143.35 414.516 4238.31 352.217C4323.49 296.196 4377.18 216.989 4468.03 139.968C4532.97 84.9764 4605.33 41.2783 4689.5 11.088C4855.36 -47.9887 5050.5 -72.765 5246.03 -90.2651L5246.03 -92.1453C5050.22 -74.7274 4854.54 -49.952 4687.85 9.36859Z" fill="#D9D9D9"/>
<path d="M4725.9 -11.985C4640.49 17.3858 4566.9 60.7549 4501.82 116.891C4410.82 195.464 4362.36 276.07 4283.38 333.736C4195.3 397.764 4083.31 430.933 3878.29 435.174C3855.58 435.628 3833.27 435.754 3811.52 435.719C3744.33 435.608 3680.86 433.706 3620.42 433.361C3617.67 433.357 3614.78 433.352 3611.89 433.347C3403.44 432.923 3258.84 453.205 3100.49 550.061C2926.15 656.62 2818.92 806.614 2508.63 870.849C2451.74 882.61 2403.27 887.517 2360.45 887.446C2176.1 887.226 2094.75 794.962 1906.31 763.098C1843.14 752.449 1781.74 747.934 1722.81 747.837C1549.47 747.553 1398.1 785.562 1286.94 817.016C1157.46 853.754 1047.68 883.248 889.074 882.988C832.212 882.894 769.024 878.948 696.481 870.164C447.054 839.998 220.871 740.549 -42.7862 740.116C-44.0253 740.114 -45.4021 740.112 -46.6412 740.11C-82.025 740.133 -115.759 741.304 -147.979 743.54L-147.983 745.42C-115.762 743.266 -82.0283 742.095 -46.6443 741.99C-45.4052 741.992 -44.0284 741.994 -42.7893 741.996C219.491 742.427 445.536 841.713 695.927 872.043C768.607 880.91 831.934 884.856 889.071 884.95C1048.37 885.211 1158.83 855.473 1288.45 818.817C1399.47 787.281 1550.3 749.516 1722.81 749.799C1781.46 749.895 1842.58 754.328 1905.48 764.977C2092.4 796.348 2173.9 888.939 2360.45 889.327C2403.68 889.398 2452.57 884.491 2509.72 872.65C2821.4 808.172 2929.04 657.524 3102.83 551.373C3260.63 454.924 3403.71 434.968 3611.88 435.228C3614.77 435.232 3617.67 435.237 3620.42 435.242C3680.72 435.668 3744.19 437.57 3811.52 437.681C3833.41 437.717 3855.71 437.508 3878.29 437.055C4083.99 432.896 4197.36 399.484 4285.85 334.966C4365.39 276.892 4413.71 196.287 4504.57 117.958C4569.24 62.0667 4642.55 18.9424 4727.55 -10.2656C4882.66 -63.2288 5063.88 -83.6136 5246.05 -95.822L5246.06 -97.7839C5063.61 -85.576 4881.84 -65.1921 4725.9 -11.985Z" fill="#D9D9D9"/>
<path d="M4764.05 -33.3399C4677.82 -4.95142 4603.26 37.7621 4538.18 94.8788C4447.32 174.679 4404.09 256.765 4330.75 316.484C4249.13 382.811 4142.51 419.34 3931.3 424.062C3907.76 424.596 3884.76 424.803 3862.18 424.766C3795.27 424.656 3732.49 422.591 3672.88 422.003C3665.72 421.991 3658.56 421.898 3651.54 421.886C3452.45 421.56 3312.4 441.358 3157.07 543.369C2988.09 654.269 2890.77 811.311 2578.41 872.681C2525.11 883.139 2479.25 887.56 2438.64 887.493C2239.55 887.33 2166.9 778.159 1966.5 742.106C1906.62 731.381 1848.39 726.789 1792.36 726.697C1607.04 726.393 1446.29 775.586 1332.63 817.01C1188.81 869.419 1071.3 911.326 878.683 911.01C832.423 910.934 781.761 908.399 725.459 902.993C471.754 878.788 242.402 780.886 -23.5958 780.449C-31.3058 780.437 -39.1537 780.506 -47.0017 780.656C-82.3866 781.334 -115.984 783.159 -148.068 785.886L-148.071 787.848C-115.987 785.039 -82.3899 783.296 -46.8671 782.537C-39.1568 782.386 -31.3089 782.317 -23.5988 782.33C241.022 782.764 470.236 880.502 725.042 904.954C781.482 910.279 832.145 912.814 878.68 912.89C1072.12 913.208 1190.59 871.057 1334.42 818.648C1447.8 777.306 1608 728.275 1792.35 728.577C1848.11 728.669 1905.93 733.26 1965.53 743.985C2164.28 779.381 2237.21 888.961 2438.64 889.455C2479.66 889.522 2525.79 885.02 2579.51 874.481C2893.24 812.786 2991.12 655.092 3159.41 544.681C3314.33 443.078 3452.73 423.522 3651.54 423.848C3658.56 423.86 3665.72 423.872 3672.88 423.965C3732.35 424.553 3795.27 426.537 3862.18 426.646C3884.76 426.683 3907.89 426.558 3931.44 426.024C4143.2 421.304 4251.33 384.368 4333.36 317.632C4407.12 257.505 4450.35 175.501 4540.94 95.946C4605.6 39.0739 4679.88 -3.47656 4765.56 -31.7024C4909.79 -78.7977 5077.1 -95.6901 5246.05 -103.669L5246.05 -105.55C5076.83 -97.6525 4908.97 -80.761 4764.05 -33.3399Z" fill="#D9D9D9"/>
<path d="M4802.09 -54.7779C4715.17 -27.3716 4639.51 14.8496 4574.57 72.8658C4483.84 153.974 4445.85 237.54 4378.28 299.23C4303 367.775 4201.73 407.665 3984.33 413.031C3960.1 413.645 3936.42 413.851 3913.15 413.813C3846.51 413.704 3784.14 411.558 3725.36 410.725C3713.93 410.543 3702.64 410.525 3691.49 410.506C3501.49 410.113 3365.7 429.836 3213.53 536.84C3049.78 651.917 2962.49 815.842 2648.21 874.43C2597.81 883.83 2554.15 887.845 2515.6 887.782C2301.79 887.595 2238.52 761.272 2026.56 721.113C1968.89 710.146 1912.59 705.394 1858.34 705.305C1662.56 704.984 1493.8 765.527 1378.34 816.92C1223.07 885.988 1100.03 940.802 872.58 940.429C836.095 940.369 796.859 938.915 754.458 935.82C496.201 917.167 263.542 820.895 -4.93382 820.454C-18.9772 820.431 -33.0209 820.653 -47.3405 821.202C-82.7264 822.452 -116.187 824.849 -148.134 828.067L-148.137 830.029C-116.19 826.729 -82.5919 824.414 -47.0682 823.082C-32.8864 822.615 -18.8426 822.311 -4.9369 822.334C262.162 822.773 494.821 918.881 754.042 937.782C796.718 940.795 835.954 942.33 872.577 942.391C1100.99 942.765 1225.13 887.544 1380.27 818.477C1495.45 767.165 1663.66 706.947 1858.34 707.267C1912.31 707.355 1968.2 712.025 2025.6 722.91C2235.77 762.412 2299.17 889.225 2515.6 889.744C2554.56 889.808 2598.63 885.711 2649.17 876.311C2965.11 817.318 3052.81 652.576 3216.01 538.07C3367.77 431.475 3501.76 412.157 3691.48 412.387C3702.64 412.405 3713.79 412.505 3725.35 412.606C3784 413.438 3846.37 415.584 3913.14 415.693C3936.41 415.731 3960.09 415.525 3984.46 414.911C4202.42 409.628 4305.33 369.332 4380.9 300.297C4448.87 238.199 4486.87 154.715 4577.32 73.933C4641.99 16.0799 4717.23 -25.815 4803.6 -53.0587C4936.95 -94.6947 5090.35 -110.22 5246.07 -114.788L5246.07 -116.75C5090.07 -112.101 4936.12 -96.6581 4802.09 -54.7779Z" fill="#D9D9D9"/>
<path d="M4840.13 -76.134C4752.52 -49.7097 4675.9 -8.14414 4610.96 50.8529C4520.37 133.27 4487.6 218.233 4425.68 281.977C4356.72 352.821 4260.82 395.745 4037.36 401.918C4012.58 402.613 3988.48 402.818 3964.94 402.78C3898.16 402.67 3836.21 400.443 3777.84 399.366C3762.14 399.095 3746.86 398.988 3731.99 398.964C3550.53 398.584 3418.87 418.478 3269.99 530.228C3111.19 649.401 3034.22 820.291 2718.16 876.179C2670.23 884.683 2628.51 888.375 2591.47 888.315C2362.92 888.185 2309.74 744.466 2086.63 700.038C2030.2 688.91 1975.27 683.996 1922.13 683.909C1716.85 683.572 1540.91 755.467 1424.06 816.831C1259.25 903.377 1131.92 971.427 868.955 970.995C841.97 970.951 813.471 970.169 783.459 968.648C520.65 955.219 284.408 860.657 13.3169 860.212C-6.78429 860.179 -27.024 860.637 -47.5402 861.748C-82.927 863.57 -116.388 866.376 -148.198 870.166L-148.201 872.128C-116.253 868.338 -82.7925 865.532 -47.2679 863.628C-26.8896 862.599 -6.6497 862.06 13.3139 862.093C283.166 862.536 519.27 956.933 783.181 970.609C813.33 972.13 841.829 972.913 868.952 972.957C1133.02 973.391 1261.59 904.852 1426.26 818.306C1542.84 757.023 1718.22 685.455 1922.13 685.789C1974.86 685.876 2029.51 690.789 2085.66 701.917C2306.84 745.524 2360.03 889.651 2591.47 890.276C2628.92 890.338 2670.91 886.565 2718.98 878.06C3036.97 821.686 3114.36 650.06 3272.61 531.377C3421.07 420.117 3550.94 400.629 3731.99 400.844C3746.86 400.869 3762.14 401.057 3777.83 401.328C3835.93 402.323 3898.02 404.55 3964.93 404.66C3988.48 404.699 4012.71 404.493 4037.49 403.88C4261.65 397.79 4359.33 354.297 4428.57 282.963C4490.76 218.811 4523.4 133.928 4613.71 51.9202C4678.38 -6.8321 4754.59 -48.1532 4841.64 -74.4148C4963.96 -111.001 5103.59 -122.87 5246.09 -125.17L5246.1 -127.051C5103.32 -124.832 4963.28 -112.882 4840.13 -76.134Z" fill="#D9D9D9"/>
<path d="M4878.3 -97.4879C4789.87 -72.1277 4712.29 -31.1358 4647.48 28.8424C4556.89 112.567 4529.35 199.011 4473.2 264.808C4410.58 337.869 4320.05 384.153 4090.52 390.889C4065.05 391.583 4040.27 391.869 4016.17 391.829C3949.54 391.72 3888 389.33 3830.31 388.091C3810.62 387.65 3791.62 387.373 3773.17 387.343C3599.84 387.059 3471.76 407.367 3326.59 523.538C3172.46 646.969 3105.95 824.662 2787.96 878.011C2742.23 885.702 2702.16 889.07 2666.5 889.012C2422.95 888.857 2380.53 727.989 2146.83 679.048C2091.23 667.593 2036.99 662.599 1984.81 662.514C1770.44 662.162 1587.88 745.327 1469.91 816.744C1296.95 921.425 1166.15 1002.88 866.287 1002.38C848.94 1002.36 831.042 1002.08 812.456 1001.48C545.095 992.946 305.271 900.259 31.288 899.728C5.26648 899.685 -21.1694 900.459 -47.8824 902.295C-83.2699 904.608 -116.594 907.905 -148.267 912.104L-148.271 914.148C-116.459 909.867 -82.9978 906.57 -47.4724 904.176C-20.8973 902.422 5.40093 901.647 31.2847 901.69C304.029 902.056 543.715 994.742 812.315 1003.36C830.901 1003.96 848.936 1004.32 866.284 1004.35C1167.25 1004.84 1299.42 922.655 1472.11 818.138C1589.94 746.802 1771.95 664.045 1984.8 664.394C2036.71 664.479 2090.53 669.554 2145.73 680.844C2377.5 728.884 2420.05 890.324 2666.5 890.892C2702.57 890.951 2742.92 887.584 2788.78 879.893C3108.84 826.056 3175.63 647.465 3329.21 524.768C3474.1 408.924 3600.25 389.103 3773.17 389.305C3791.62 389.335 3810.62 389.612 3830.17 389.971C3887.86 391.292 3949.39 393.6 4016.17 393.71C4040.26 393.749 4065.05 393.463 4090.66 392.769C4320.87 386.198 4413.33 339.182 4476.09 265.63C4532.51 199.425 4559.92 113.226 4650.1 29.9094C4714.77 -29.8238 4791.8 -70.5713 4879.68 -95.7689C4991.11 -127.549 5116.97 -137.725 5246.11 -138.412L5246.12 -140.292C5116.7 -139.687 4990.29 -129.513 4878.3 -97.4879Z" fill="#D9D9D9"/>
<path d="M5245.86 -155.09C5129.93 -155.28 5017.3 -146.309 4916.33 -118.926C4827.21 -94.4663 4748.67 -54.0483 4683.86 6.82922C4593.4 91.7803 4571.09 179.704 4520.59 247.554C4464.43 322.833 4379.26 372.478 4143.54 379.857C4117.38 380.55 4092.19 380.835 4067.54 380.795C4000.9 380.686 3939.78 378.215 3882.78 376.731C3859.51 376.203 3836.93 375.757 3815.18 375.721C3649.55 375.368 3524.64 396.417 3383.18 516.926C3233.59 644.371 3177.67 828.948 2857.75 879.842C2814.1 886.719 2775.54 889.844 2741.12 889.787C2482.56 889.608 2451.32 711.101 2206.89 658.054C2151.7 646.192 2097.87 640.954 2045.97 640.868C1823.2 640.503 1634.84 735.103 1515.61 816.737C1335.74 939.799 1201.89 1034.98 864.302 1034.51C856.73 1034.49 849.158 1034.4 841.448 1034.31C569.123 1030.51 325.578 939.613 48.2908 939.157C16.6245 939.105 -15.4568 940.197 -48.229 942.841C-83.4799 945.726 -116.667 949.514 -148.341 954.121L-148.344 956.083C-116.533 951.476 -83.2076 947.607 -47.6814 944.722C-15.1847 942.16 16.7589 941.068 48.2876 941.119C324.336 941.491 567.88 1032.39 841.307 1036.27C849.154 1036.36 856.727 1036.37 864.299 1036.39C1203.13 1037.02 1338.35 941.03 1518.09 817.967C1636.9 736.578 1824.85 642.386 2045.97 642.83C2097.46 642.915 2150.87 648.153 2205.78 659.851C2448.15 711.914 2479.39 890.993 2741.12 891.667C2775.95 891.725 2814.78 888.6 2858.57 881.642C3180.56 830.342 3236.76 644.785 3385.8 518.075C3527.12 397.893 3649.96 377.494 3815.18 377.683C3836.93 377.719 3859.37 378.083 3882.64 378.693C3939.64 380.176 4000.76 382.647 4067.54 382.757C4092.18 382.797 4117.52 382.512 4143.68 381.737C4380.08 374.523 4467.32 324.146 4523.62 248.376C4574.4 180.119 4596.43 92.4392 4686.61 7.89646C4751.15 -52.7363 4829.14 -92.91 4917.71 -117.125C5017.98 -144.428 5130.21 -153.318 5245.86 -153.128C5246 -153.128 5246 -153.128 5246.13 -153.128L5246.14 -155.09C5246 -155.09 5246 -155.09 5245.86 -155.09Z" fill="#D9D9D9"/>
<path d="M5240.54 -171.041C5140.03 -171.206 5042.68 -163.109 4954.53 -140.283C4864.58 -116.887 4785.08 -77.0426 4720.26 -15.1841C4629.94 71.0751 4613 160.398 4568.14 230.3C4518.31 307.879 4438.37 360.802 4196.59 368.743C4169.88 369.599 4144.13 369.884 4119.21 369.843C4052.57 369.733 3991.72 367.099 3935.28 365.453C3908.57 364.674 3883.1 364.06 3858.45 364.019C3699.57 363.759 3577.55 385.467 3439.66 510.315C3294.47 641.854 3249.41 833.151 2927.57 881.59C2885.85 887.898 2848.81 890.698 2815.49 890.644C2541.5 890.439 2522.14 694.294 2266.97 637.061C2211.92 624.79 2158.23 619.307 2106.33 619.221C1875.72 618.925 1681.55 724.878 1561.34 816.647C1376.76 957.604 1240.69 1066.11 870.465 1067.13C868.675 1067.13 866.885 1067.13 865.096 1067.12C590.287 1066.75 344.672 978.8 66.4211 978.261C28.8346 978.2 -9.44313 979.772 -48.4125 983.386C-83.6641 986.68 -116.852 990.877 -148.389 995.893L-148.392 997.855C-116.717 992.839 -83.3918 988.561 -47.8649 985.268C-9.17084 981.652 28.969 980.162 66.4179 980.223C343.567 980.678 589.045 1068.55 865.092 1069.09C866.882 1069.09 868.672 1069.09 870.462 1069.09C1242.06 1068.15 1379.51 958.753 1563.96 817.796C1683.89 726.19 1877.5 620.726 2106.33 621.183C2157.82 621.268 2211.09 626.669 2265.87 638.857C2518.69 695.024 2538.2 891.824 2815.48 892.524C2849.08 892.579 2886.39 889.779 2928.4 883.472C3252.44 834.546 3297.64 642.186 3442.42 511.382C3580.16 386.942 3699.98 365.803 3858.45 365.981C3882.96 366.021 3908.43 366.554 3935.13 367.333C3991.58 369.061 4052.43 371.695 4119.21 371.805C4144.13 371.845 4170.01 371.479 4196.72 370.706C4439.33 362.929 4521.34 309.028 4571.17 231.041C4616.16 160.73 4633.11 71.6526 4723.02 -14.1986C4787.55 -75.7306 4866.51 -115.249 4955.76 -138.482C5043.5 -161.227 5140.3 -169.243 5240.53 -169.079C5242.46 -169.076 5244.25 -169.073 5246.18 -169.07L5246.18 -170.95C5244.26 -170.953 5242.47 -171.038 5240.54 -171.041Z" fill="#D9D9D9"/>
<path d="M5243.86 -187.872C5155.61 -188.017 5070.51 -180.881 4992.55 -161.634C4901.92 -139.221 4821.45 -100.032 4756.64 -37.1927C4666.45 50.3747 4654.74 141.177 4615.66 213.133C4572.02 292.929 4497.58 349.213 4249.6 357.716C4222.34 358.571 4196.18 358.937 4170.85 358.895C4104.07 358.785 4043.64 356.07 3987.74 354.098C3958 353.15 3929.78 352.368 3902.52 352.324C3749.83 351.991 3630.56 374.685 3496.25 503.708C3355.18 639.341 3321.13 837.279 2997.36 883.343C2957.43 889.082 2921.76 891.639 2889.55 891.586C2599.87 891.438 2592.65 677.492 2327.03 615.99C2271.84 603.311 2218.15 597.664 2166.11 597.578C1927.78 597.269 1728.37 714.577 1607.18 816.563C1421.88 972.642 1285.52 1093 899.452 1099.97C890.778 1100.11 882.104 1100.18 873.567 1100.17C602.338 1099.72 358.641 1017.74 84.5208 1017.29C40.8763 1017.22 -3.45996 1019.19 -48.7645 1023.94C-83.8789 1027.56 -117.067 1032.16 -148.467 1037.51L-148.471 1039.55C-116.795 1034.13 -83.6068 1029.52 -48.2169 1025.82C-3.05013 1021.15 41.0109 1019.1 84.5177 1019.17C357.537 1019.62 601.234 1101.6 873.564 1102.13C882.238 1102.14 890.912 1101.99 899.586 1101.85C1286.89 1095.04 1424.77 973.628 1609.79 817.711C1730.71 715.888 1929.71 599.07 2166.1 599.54C2217.73 599.625 2271.15 605.19 2325.92 617.787C2589.2 678.059 2596.56 892.74 2889.54 893.548C2922.04 893.602 2957.98 890.963 2998.19 885.225C3324.29 838.673 3358.35 639.592 3499 504.775C3633.18 376.079 3750.38 354.036 3902.52 354.204C3929.64 354.248 3957.86 355.03 3987.6 356.06C4043.49 357.95 4103.93 360.665 4170.84 360.775C4196.18 360.817 4222.47 360.533 4249.87 359.597C4498.54 351.34 4575.18 293.915 4618.68 213.71C4657.9 141.428 4669.62 50.9521 4759.39 -36.2072C4823.93 -98.6384 4903.71 -137.583 4993.79 -159.834C5071.19 -178.999 5155.88 -186.054 5243.86 -185.91C5244.68 -185.908 5245.37 -185.907 5246.2 -185.906L5246.2 -187.868C5245.37 -187.869 5244.69 -187.87 5243.86 -187.872Z" fill="#D9D9D9"/>
<path d="M4793.01 -59.2073C4698 34.4833 4696.05 132.005 4657.37 207.804C4618.56 283.684 4544.26 338.006 4302.62 346.601C4274.94 347.619 4248.23 347.984 4222.48 347.941C4116.88 347.768 4027.68 340.673 3947.55 340.542C3800.37 340.218 3683.44 363.897 3552.84 497.177C3415.75 636.822 3392.7 841.399 3067.29 885.172C3028.87 890.341 2994.58 892.655 2963.47 892.604C2657.82 892.43 2663.02 660.683 2387.08 594.995C2331.75 581.907 2277.65 575.932 2225.47 575.846C1979.58 575.525 1774.91 704.187 1653.02 816.472C1467 987.51 1330.07 1119.8 928.437 1132.79C913.016 1133.26 897.596 1133.48 882.451 1133.45C614.663 1133.09 372.885 1056.59 102.482 1056.06C53.0549 1055.98 2.65982 1058.52 -48.98 1064.48C-84.0951 1068.51 -117.146 1073.44 -148.547 1079.11L-148.55 1081.08C-117.012 1075.4 -83.8228 1070.39 -48.4324 1066.36C3.06978 1060.4 53.1894 1057.94 102.479 1058.03C371.78 1058.47 613.697 1134.89 882.448 1135.41C897.73 1135.44 913.151 1135.22 928.572 1134.67C1331.72 1121.76 1470.03 988.496 1655.63 817.539C1777.39 705.417 1981.64 577.326 2225.47 577.808C2277.24 577.893 2330.92 583.704 2385.97 596.792C2659.58 661.168 2654.37 893.65 2963.47 894.485C2994.86 894.536 3029.42 892.222 3067.98 887.054C3396 842.712 3418.92 636.991 3555.59 498.08C3686.19 365.209 3801.05 342.263 3947.55 342.422C4027.4 342.553 4116.61 349.648 4222.48 349.822C4248.23 349.864 4275.08 349.499 4302.89 348.564C4545.22 340.133 4621.72 284.752 4660.54 208.381C4699.21 132.092 4701.16 34.9789 4795.9 -58.2216C4907.74 -168.398 5069.02 -202.876 5246.21 -203.484L5246.22 -205.446C5068.47 -204.839 4905.54 -169.954 4793.01 -59.2073Z" fill="#D9D9D9"/>
<path d="M3992.59 760.064C3953.63 760 3913.98 758.954 3873.78 756.926C3642.91 745.021 3411.64 724.122 3190.18 682.967C2965.28 641.233 2753.19 594.044 2514.18 589.073C2490.09 588.543 2466.14 588.259 2442.04 588.219C2090.68 587.642 1740.49 633.5 1389.95 632.925C1314.23 632.801 1238.37 630.469 1162.52 625.113C746.912 595.574 410.158 420.244 59.1394 296.474C1.75987 276.27 -69.7867 247.541 -147.121 222.072L-147.127 225.75C-71.0313 250.89 -0.447699 279.127 56.3812 299.249C406.85 422.773 744.015 598.512 1161.83 628.3C1237.95 633.657 1313.95 635.989 1389.95 636.113C1741.31 636.69 2091.5 590.832 2442.04 591.407C2465.99 591.447 2489.95 591.731 2513.9 592.261C2751.94 597.23 2963.48 644.255 3188.52 686.07C3410.67 727.227 3642.21 748.208 3873.36 760.114C3913.69 762.223 3953.34 763.269 3992.58 763.334C4457.94 764.016 4842.29 628.864 5245.06 509.192L5245.07 505.677C4841.2 625.51 4456.98 760.908 3992.59 760.064Z" fill="#FDFDFD"/>
<path d="M4065.94 774.98C4031.11 774.922 3995.87 774.047 3960.07 772.435C3721.35 761.661 3485.13 739.61 3256.93 696.155C3028.86 652.945 2813.2 603.215 2572.41 595.054C2533.03 593.681 2493.66 593.044 2454.28 592.98C2136.1 592.457 1818.83 628.805 1500.93 628.283C1418.04 628.147 1335.03 625.477 1251.88 619.045C832.558 586.476 496.497 409.267 130.587 298.634C51.8727 274.879 -45.0026 243.493 -147.123 220.19L-147.129 223.624C-46.2471 246.761 49.8027 277.819 128.104 301.491C493.188 411.796 829.8 589.414 1251.19 622.232C1334.61 628.746 1417.76 631.335 1500.92 631.471C1819.51 631.994 2136.93 595.647 2454.28 596.168C2493.52 596.232 2532.75 596.869 2572.13 598.241C2811.82 606.319 3027.07 655.885 3255.27 699.177C3484.02 742.797 3720.66 764.767 3959.65 775.623C3995.58 777.317 4030.97 778.11 4065.94 778.168C4502.66 778.803 4868.53 662.013 5244.99 550.228L5245 546.631C4867.71 658.66 4501.84 775.695 4065.94 774.98Z" fill="#FDFDFD"/>
<path d="M4139.42 789.899C4108.72 789.848 4077.74 789.225 4046.35 788.029C3799.78 778.305 3558.47 755.101 3323.66 709.346C3092.43 664.577 2873.33 612.39 2630.62 601.037C2575.96 598.413 2521.31 597.342 2466.65 597.253C2182.48 596.786 1898.67 624.36 1614.23 623.893C1523.36 623.744 1432.36 620.733 1341.22 612.981C918.329 577.299 579.651 400.495 201.883 300.796C100.731 274.144 -21.3389 242.471 -147.148 224.116L-147.154 227.386C-22.4457 245.739 98.9366 277.166 199.675 303.736C576.48 403.024 915.433 580.156 1340.53 616.168C1431.94 623.921 1523.08 626.932 1614.22 627.081C1899.22 627.549 2183.02 599.975 2466.64 600.441C2521.16 600.53 2575.68 601.601 2630.2 604.225C2871.81 615.575 3090.5 667.599 3322 712.368C3557.36 758.288 3799.09 781.492 4045.93 791.217C4077.46 792.413 4108.58 793.036 4139.42 793.087C4547.22 793.756 4893.93 693.694 5244.91 590.859L5244.91 587.262C4893.25 690.341 4546.54 790.567 4139.42 789.899Z" fill="#FDFDFD"/>
<path d="M4212.93 804.896C4186.5 804.853 4159.65 804.4 4132.67 803.538C3878.25 794.946 3631.84 770.671 3390.43 722.452C3156.04 676.207 2933.5 621.725 2689 607.018C2618.52 602.733 2548.03 601.064 2477.54 600.948C2228.89 600.54 1980.34 620.079 1731.14 619.67C1631.05 619.505 1530.96 616.071 1430.74 606.996C1004 568.038 661.049 393.352 273.352 302.956C148.799 273.977 1.53113 243.815 -147.145 232.29L-147.15 235.478C0.562118 247.002 147.142 277.08 271.42 305.978C657.878 395.963 1001.24 570.894 1429.91 610.101C1530.54 619.34 1630.9 622.693 1731.14 622.858C1980.75 623.267 2229.43 603.729 2477.53 604.136C2547.88 604.252 2618.1 606.002 2688.45 610.205C2931.98 624.829 3154.11 679.229 3388.64 725.474C3630.74 773.776 3877.56 798.133 4132.39 806.726C4159.51 807.67 4186.36 808.041 4212.93 808.085C4591.82 808.706 4918.54 723.98 5244.86 630.751L5244.86 627.154C4918 720.627 4591.28 805.599 4212.93 804.896Z" fill="#FDFDFD"/>
<path d="M4286.29 820.057C4263.99 820.021 4241.54 819.657 4218.97 819.048C3956.7 811.669 3705.47 785.833 3457.18 735.641C3219.76 687.592 2993.78 631.06 2747.23 612.998C2659.67 606.56 2572.11 604.209 2484.55 604.065C2274.59 603.721 2064.33 616.046 1853.68 615.701C1742.57 615.518 1631.47 611.821 1520.1 600.929C1089.65 558.695 741.186 387.351 344.802 305.198C196.02 274.38 23.8269 247.121 -147.166 243.57L-147.171 246.758C22.9956 250.308 194.5 277.484 343.007 308.22C738.152 390.044 1086.89 561.551 1519.27 604.116C1630.91 615.008 1742.43 618.788 1853.67 618.971C2064.74 619.317 2275 606.909 2484.54 607.253C2571.97 607.397 2659.26 609.747 2746.53 616.185C2992.13 634.164 3217.69 690.532 3455.39 738.662C3704.23 789.019 3956 814.856 4218.69 822.235C4241.4 822.845 4263.98 823.209 4286.29 823.246C4636.4 823.82 4942.58 752.793 5244.79 669.58L5244.8 666.065C4942.04 749.441 4636 820.631 4286.29 820.057Z" fill="#FDFDFD"/>
<path d="M4359.65 835.219C4341.61 835.19 4323.44 834.997 4305.13 834.558C4035.01 828.474 3778.97 801.322 3523.8 748.748C3283.35 699.223 3054.07 640.56 2805.46 618.98C2698.08 609.648 2590.42 606.691 2482.76 606.515C2317.68 606.244 2152.31 612.512 1986.55 612.24C1860.98 612.034 1735.43 608.067 1609.47 594.863C1175.3 549.271 820.637 382.332 416.118 307.359C260.174 278.491 85.631 256.868 -87.8455 256.584C-107.671 256.551 -127.498 256.764 -147.187 257.304L-147.192 260.574C-127.503 260.034 -107.677 259.739 -87.8508 259.772C84.9374 260.055 258.93 281.596 414.599 310.463C817.741 385.025 1172.68 552.127 1608.5 598.049C1734.87 611.336 1860.84 615.222 1986.54 615.428C2152.45 615.701 2317.95 609.514 2482.75 609.785C2590.28 609.961 2697.67 612.835 2804.77 622.167C3052.42 643.664 3281.28 702.162 3522.14 751.77C3777.73 804.508 4034.32 831.661 4304.99 837.746C4323.3 838.184 4341.61 838.378 4359.65 838.408C4680.99 838.935 4965.95 780.299 5244.73 707.347L5244.74 703.832C4965.4 776.946 4680.58 835.746 4359.65 835.219Z" fill="#FDFDFD"/>
<path d="M4432.87 850.466C4419.1 850.443 4405.33 850.339 4391.43 850.071C4113.46 845.282 3852.33 816.814 3590.55 761.94C3346.94 710.856 3114.5 650.063 2863.68 624.964C2729.06 611.499 2594 608.335 2458.52 608.112C2353.47 607.94 2248.28 609.566 2142.95 609.393C1995.22 609.151 1847.22 605.474 1698.83 588.799C1260.95 539.768 899.532 378.049 487.567 309.604C337.399 284.67 174.551 268.135 11.6754 267.867C-41.469 267.78 -94.4786 269.491 -147.216 273.084L-147.221 276.353C-94.6215 272.679 -41.4743 271.05 11.6701 271.137C173.857 271.403 336.293 287.774 486.185 312.708C896.773 380.824 1258.33 542.706 1697.86 591.986C1846.81 608.662 1995.08 612.338 2142.95 612.581C2248.41 612.754 2353.6 611.128 2458.51 611.301C2593.85 611.523 2728.5 614.687 2862.85 628.15C3112.7 653.167 3344.87 713.796 3588.75 764.962C3851.08 819.918 4112.77 848.469 4391.28 853.34C4405.19 853.527 4419.1 853.631 4432.86 853.654C4725.71 854.135 4988.76 806.417 5244.67 743.646L5244.67 740.131C4988.49 803.065 4725.44 850.946 4432.87 850.466Z" fill="#FDFDFD"/>
<path d="M4558.54 867.102C4531.83 867.058 4504.98 866.605 4477.86 865.661C4192.19 855.628 3925.68 832.301 3657.29 775.046C3410.52 722.486 3174.78 659.725 2922.04 630.944C2547.35 588.31 2169.21 628.155 1788.19 582.813C1346.6 530.179 978.283 374.253 559.012 311.764C416.272 290.52 265.258 277.765 113.81 277.516C26.3837 277.373 -61.1875 281.398 -147.252 290.413L-147.258 293.683C-61.1928 284.668 26.3785 280.561 113.805 280.705C264.702 280.952 415.303 293.707 557.768 314.868C975.662 377.11 1344.11 533.117 1787.22 585.918C2169.48 631.425 2547.76 591.581 2920.94 634.13C3172.98 662.828 3408.45 725.425 3655.5 778.067C3924.57 835.487 4191.49 858.815 4477.58 868.849C4504.84 869.793 4531.82 870.246 4558.53 870.29C4802.36 870.69 5026.7 834.353 5244.59 783.864L5244.6 780.349C5026.43 831.083 4802.09 867.501 4558.54 867.102Z" fill="#FDFDFD"/>
<path d="M4636.04 882.352C4612.22 882.313 4588.27 881.946 4564.18 881.171C4270.38 872.024 3999.19 847.79 3724.07 788.235C3474.13 734.116 3235.22 669.552 2980.29 636.925C2616.75 590.549 2248.82 623.625 1877.71 576.747C1432.27 520.509 1056.92 370.867 630.483 314.006C496.137 296.046 356.408 285.925 216.388 285.695C94.4034 285.495 -28.0064 292.897 -147.264 309.132L-147.269 312.402C-28.0116 296.085 94.2604 288.765 216.382 288.965C355.99 289.195 495.306 299.233 629.377 317.111C1054.44 373.805 1429.79 523.448 1876.6 579.852C2248.95 626.814 2617.02 593.82 2979.18 640.111C3233.29 672.573 3471.92 737.055 3722.27 791.256C3997.95 850.976 4269.83 875.211 4563.9 884.359C4588.13 885.134 4612.22 885.501 4636.04 885.54C4850.82 885.892 5050.78 858.099 5244.56 817.298L5244.56 813.947C5050.51 854.829 4850.55 882.704 4636.04 882.352Z" fill="#FDFDFD"/>
<path d="M4712.55 897.52C4692.04 897.487 4671.25 897.207 4650.46 896.683C4348.68 888.585 4072.54 863.28 3790.81 801.425C3537.57 745.748 3295.63 679.462 3038.51 642.989C2686.13 592.953 2328.39 618.934 1967.06 570.682C1517.91 510.76 1135.39 367.89 701.922 316.168C576.244 301.247 447.389 293.106 318.245 292.894C161.428 292.637 4.45396 304.069 -147.31 328.835L-147.316 332.105C4.31088 307.339 161.423 295.907 318.24 296.164C446.971 296.376 575.551 304.434 700.953 319.355C1133.05 370.83 1515.56 513.699 1965.82 573.787C2328.39 622.204 2686.12 596.223 3037.26 646.094C3293.7 682.402 3535.5 748.687 3788.87 804.365C4071.43 866.467 4348.12 891.772 4650.18 899.87C4671.11 900.477 4691.9 900.756 4712.55 900.79C4898.83 901.096 5074.41 880.457 5244.49 848.772L5244.5 845.421C5074.14 877.186 4898.7 897.908 4712.55 897.52Z" fill="#FDFDFD"/>
<path d="M4787.99 912.846C4771.06 912.818 4753.99 912.627 4736.78 912.19C4426.87 905.387 4146.05 878.848 3857.57 814.53C3601.17 757.376 3355.93 689.45 3096.89 648.968C2755.53 595.599 2407.85 614.157 2056.44 564.613C1603.58 500.924 1213.89 365.155 773.388 318.408C656.518 306.036 537.849 299.465 419.031 299.27C227.518 298.955 36.1163 315.154 -147.33 349.514L-147.336 352.866C35.9733 318.424 227.375 302.225 419.026 302.54C537.43 302.734 655.962 309.223 772.557 321.595C1211.68 368.176 1601.37 503.863 2055.19 567.799C2407.71 617.345 2755.38 598.868 3095.5 652.072C3354 692.471 3599.1 760.315 3855.64 817.551C4144.8 881.953 4426.31 908.574 4736.5 915.459C4753.84 915.815 4770.91 916.006 4787.99 916.034C4946.59 916.295 5097.79 901.583 5244.46 877.953L5244.46 874.683C5097.66 898.395 4946.6 913.107 4787.99 912.846Z" fill="#FDFDFD"/>
<path d="M4862.16 928.094C4849.08 928.073 4836.14 927.97 4823.06 927.785C4505.17 922.358 4219.39 894.34 3924.17 827.721C3664.74 769.091 3416.21 699.606 3155.1 654.952C2824.76 598.413 2487.56 609.304 2145.79 558.55C1689.21 490.931 1292.49 362.671 844.824 320.654C736.9 310.421 627.728 305.174 518.961 304.995C292.615 304.624 66.9222 326.244 -147.382 370.935L-147.387 374.287C66.9168 329.514 292.472 307.894 518.956 308.265C627.447 308.443 736.344 313.69 844.131 323.759C1290.42 365.692 1687.14 493.87 2144.54 561.736C2487.28 612.492 2824.34 601.682 3153.58 658.056C3414.27 702.628 3662.53 772.03 3922.38 830.661C4218.14 897.526 4504.61 925.545 4822.92 930.973C4836 931.158 4849.08 931.261 4862.16 931.282C4994.05 931.499 5120.87 921.652 5244.4 904.933L5244.4 901.663C5120.74 918.382 4993.92 928.31 4862.16 928.094Z" fill="#FDFDFD"/>
<path d="M4909.23 943.295C4890.37 943.509 4871.65 943.642 4853.06 943.612C4549.89 943.114 4275.42 905.959 3990.94 840.829C3728.21 780.722 3476.5 709.924 3213.34 660.934C2893.88 601.469 2567.16 604.367 2235.3 552.566C1775.02 480.853 1371.12 360.43 916.427 322.815C817.31 314.641 717.637 310.472 618.37 310.309C356.916 309.88 97.3436 337.33 -147.405 393.007L-147.411 396.44C97.2005 340.681 356.911 313.068 618.365 313.497C717.494 313.66 816.754 317.828 915.595 326.002C1369.19 363.451 1772.95 483.793 2233.92 555.67C2566.74 607.554 2893.33 604.657 3211.82 664.038C3474.43 712.864 3726.14 783.662 3989.01 843.851C4273.9 909.063 4549.06 946.301 4853.06 946.8C4871.64 946.83 4890.5 946.698 4909.37 946.484C5024.33 944.956 5135.73 937.045 5244.38 924.389L5244.38 921.119C5135.6 933.775 5024.34 941.767 4909.23 943.295Z" fill="#FDFDFD"/>
<path d="M4995.52 958.802C4971.01 959.253 4946.78 959.458 4922.82 959.419C4618.41 958.919 4343.66 920.21 4057.67 854.015C3791.78 792.432 3536.64 720.402 3271.69 666.913C2962.97 604.686 2646.87 599.263 2324.65 546.497C1860.93 470.609 1449.72 358.267 987.861 325.055C897.829 318.531 807.654 315.276 717.749 315.129C420.912 314.642 127.322 348.494 -147.46 415.648L-147.466 419.163C127.179 351.845 420.769 317.83 717.744 318.317C807.373 318.464 897.411 321.718 987.168 328.242C1448.07 361.371 1858.86 473.549 2323.13 549.601C2646.18 602.45 2962.28 607.873 3269.89 669.934C3534.43 723.341 3789.57 795.371 4055.74 856.955C4342.14 923.314 4617.72 962.106 4922.82 962.607C4946.91 962.646 4971.14 962.441 4995.65 961.991C5080.32 960.495 5163.08 955.562 5244.32 948.011L5244.33 944.741C5162.95 952.374 5080.19 957.306 4995.52 958.802Z" fill="#FDFDFD"/>
<path d="M5081.69 974.316C5051.95 975.002 5022.62 975.281 4993.43 975.233C4687.65 974.732 4412.21 934.55 4124.44 867.126C3855.37 804.066 3596.66 731.049 3329.93 672.897C3031.96 608.072 2726.6 594.165 2414.02 540.434C1946.73 460.208 1528.63 356.274 1059.32 327.219C978.513 322.263 897.836 319.678 817.431 319.546C484.522 319 157.051 359.827 -147.489 438.868L-147.495 442.301C156.908 363.178 484.516 322.27 817.426 322.816C897.693 322.948 978.232 325.451 1058.77 330.406C1526.97 359.378 1944.93 463.23 2412.5 543.538C2725.77 597.351 3030.99 611.259 3328.13 675.919C3594.45 733.906 3853.17 807.005 4122.5 870.148C4410.69 937.654 4686.95 978 4993.43 978.503C5022.62 978.551 5052.08 978.191 5081.96 977.504C5136.76 976.286 5190.87 973.677 5244.3 969.841L5244.3 966.571C5190.74 970.407 5136.62 973.098 5081.69 974.316Z" fill="#FDFDFD"/>
<path d="M5168 989.907C5133.03 990.831 5098.33 991.264 5064.19 991.208C4757.02 990.704 4480.63 949.213 4191.2 880.315C3918.7 816.104 3656.54 741.774 3388.17 678.96C3100.8 611.537 2806.48 588.982 2503.4 534.449C2032.81 449.722 1607.53 354.36 1130.79 329.461C1059.61 325.748 988.571 323.833 917.941 323.717C548.409 323.11 186.644 371.238 -147.518 462.492L-147.524 466.008C186.639 374.508 548.266 326.298 917.936 326.905C988.428 327.021 1059.33 328.935 1130.37 332.649C1606.15 357.545 2031.01 452.743 2501.88 537.471C2805.51 592.087 3099.56 614.723 3386.23 681.9C3654.33 744.713 3916.49 819.044 4189.13 883.254C4478.97 952.317 4756.19 993.973 5064.18 994.478C5098.46 994.534 5133.16 994.019 5168.27 993.096C5193.74 992.32 5219.08 991.299 5244.27 990.032L5244.28 986.844C5218.94 988.029 5193.61 989.132 5168 989.907Z" fill="#FDFDFD"/>
<path d="M5136.04 1007.27C4827.22 1006.76 4549.59 963.631 4257.96 893.421C3982.16 827.734 3716.28 752.743 3446.54 684.94C3169.37 615.245 2886.35 583.716 2592.77 528.381C2118.88 439.071 1686.57 352.608 1202.25 331.621C1141.12 328.986 1080.13 327.66 1019.28 327.56C612.432 326.892 216.235 382.648 -147.549 486.443L-147.555 490.04C216.229 386 612.289 330.08 1019.27 330.748C1079.99 330.848 1140.84 332.256 1201.83 334.89C1685.33 355.794 2117.22 442.093 2591.25 531.404C2885.1 586.821 3167.99 618.349 3444.47 687.88C3713.94 755.682 3980.09 830.673 4255.89 896.442C4547.93 966.653 4826.39 1009.95 5136.03 1010.45C5171.69 1010.51 5207.76 1010 5244.25 1008.91L5244.26 1005.64C5207.77 1006.81 5171.7 1007.32 5136.04 1007.27Z" fill="#FDFDFD"/>
<path d="M5208.55 1023.32C4897.8 1022.81 4618.66 978.049 4324.55 906.609C4045.73 839.363 3775.72 763.957 3504.75 690.92C3237.9 619.035 2966.19 578.369 2682.25 522.314C2205.07 428.257 1765.72 350.938 1273.81 333.863C1223.01 332.144 1172.35 331.244 1121.82 331.161C676.839 330.43 245.933 394.14 -147.611 510.803L-147.617 514.4C245.927 397.492 676.833 333.619 1121.81 334.349C1172.21 334.432 1222.73 335.332 1273.4 337.05C1764.61 354.042 2203.41 431.279 2680.45 525.418C2964.81 581.473 3236.25 622.057 3502.54 693.86C3773.38 766.815 4043.52 842.303 4322.62 909.549C4617 981.071 4896.83 1026 5208.54 1026.51C5220.38 1026.53 5232.22 1026.47 5244.2 1026.41L5244.2 1023.22C5232.23 1023.28 5220.39 1023.34 5208.55 1023.32Z" fill="#FDFDFD"/>
<path d="M4391.32 919.8C4109.32 850.996 3834.91 775.256 3562.98 696.904C3306.19 622.91 3046.2 572.944 2771.62 516.332C2291.42 417.201 1844.89 349.272 1345.27 336.108C1305.35 335.061 1265.56 334.506 1225.91 334.44C741.963 333.646 275.935 405.719 -147.644 535.493L-147.65 539.09C275.792 409.07 741.82 336.834 1225.9 337.629C1265.42 337.693 1305.21 338.249 1344.99 339.296C1844.06 352.459 2289.9 420.305 2769.82 519.354C3044.54 575.966 3304.26 625.931 3560.64 699.843C3832.7 778.195 4107.11 853.936 4389.25 922.74C4674.4 992.612 4945.28 1038.43 5244.18 1042.43L5244.19 1039.16C4946.25 1035.16 4676.06 989.508 4391.32 919.8Z" fill="#FDFDFD"/>
<path d="M4458.08 932.907C4172.78 862.708 3893.96 786.879 3621.36 702.967C3374.35 626.945 3126.34 567.516 2860.99 510.265C2377.9 406.061 1924.21 347.684 1416.73 338.268C1388.23 337.813 1359.87 337.521 1331.51 337.474C807.638 336.614 306.075 417.212 -147.679 560.425L-147.685 564.104C305.932 420.563 807.633 339.802 1331.5 340.662C1359.73 340.709 1388.09 341 1416.59 341.538C1923.51 350.872 2376.52 409.166 2859.2 513.287C3124.41 570.537 3372.14 629.884 3618.87 705.742C3891.62 789.736 4170.71 865.648 4456.01 935.847C4720.11 1001.19 4971.71 1046.56 5244.16 1056.74L5244.17 1053.55C4972.68 1043.38 4721.76 998.084 4458.08 932.907Z" fill="#FDFDFD"/>
<path d="M4524.83 946.095C4236.37 874.337 3952.6 798.582 3679.59 708.947C3442.22 630.978 3206.49 562.005 2950.36 504.198C2464.53 394.594 2003.79 346.179 1488.19 340.509C1471.67 340.319 1455.29 340.21 1438.76 340.183C874.277 339.256 336.489 428.787 -147.714 585.602L-147.72 589.28C336.346 432.138 874.134 342.444 1438.76 343.371C1455.28 343.398 1471.66 343.507 1488.19 343.697C2003.24 349.366 2463.29 397.78 2948.57 507.219C3204.28 564.944 3439.74 633.836 3676.97 711.722C3950.26 801.521 4234.17 877.277 4522.76 949.034C4765.53 1009.52 4997.31 1053.88 5244.15 1069.24L5244.15 1066.06C4998.28 1050.69 4767.19 1006.5 4524.83 946.095Z" fill="#FDFDFD"/>
<path d="M4591.56 959.201C4299.94 885.967 4010.94 810.53 3737.8 714.927C3509.79 635.094 3286.74 556.414 3039.84 498.213C2551.4 382.964 2083.35 344.673 1559.76 342.751C1555.76 342.745 1551.91 342.738 1547.92 342.732C941.713 341.737 367.15 440.281 -147.779 611.024L-147.785 614.703C367.144 443.714 941.57 344.925 1547.91 345.92C1551.77 345.926 1555.76 345.933 1559.61 345.939C2082.93 347.943 2550.16 386.15 3037.77 501.152C3284.26 559.271 3507.17 637.869 3735.18 717.702C4008.59 813.469 4297.73 888.906 4589.49 962.141C4810.52 1017.68 5022.2 1060.38 5244.11 1079.87L5244.11 1076.68C5023.17 1057.19 4812.17 1014.66 4591.56 959.201Z" fill="#FDFDFD"/>
<path d="M4152.76 976.385C4033.55 963.028 3916.67 957.277 3801.02 957.088C3492.07 956.581 3192.41 996.145 2882.01 1038.88C2571.88 1081.62 2265.48 1121.74 1956.53 1121.23C1790.62 1120.96 1624.19 1109 1455.85 1079.46C1003.98 1000.16 577.293 841.6 224.17 657.578C71.4757 577.951 -50.3689 492.651 -147.412 395.784L-147.417 398.809C-50.6482 495.021 70.6468 579.666 222.378 658.802C575.639 842.905 1002.74 1001.63 1455.16 1081.01C1623.63 1110.55 1790.48 1122.52 1956.52 1122.79C2265.89 1123.3 2572.57 1083.17 2882.56 1040.43C3193.1 997.699 3492.48 958.134 3801.02 958.723C3916.53 958.912 4033.28 964.663 4152.21 978.019C4522.64 1019.5 4878.88 1067.17 5244.1 1092.38L5244.1 1090.74C4879.16 1065.54 4523.19 1017.87 4152.76 976.385Z" fill="#A6A6A6"/>
<path d="M4500.07 1012.03C4383.75 1001.04 4266.87 989.898 4148.49 979.322C4052.54 970.745 3957.96 966.829 3864.34 966.675C3533.9 966.133 3214.82 1012.04 2882.52 1059.97C2565.51 1106.21 2250.56 1147.96 1932.94 1147.44C1767.72 1147.17 1601.7 1135.45 1434.19 1107.05C979.007 1029.54 550.666 873.03 195.89 689.333C58.7397 618.232 -54.447 542.593 -147.518 457.995L-147.522 460.938C-54.7259 544.8 57.9108 619.948 194.098 690.556C549.149 874.336 977.766 1030.93 1433.5 1108.61C1601.14 1137.08 1767.44 1148.72 1932.93 1148.99C2250.97 1149.51 2566.06 1107.77 2883.07 1061.53C3215.51 1013.6 3534.31 967.769 3864.33 968.31C3957.82 968.464 4052.26 972.297 4148.07 980.956C4266.46 991.451 4383.33 1002.68 4499.65 1013.58C4748.13 1036.79 4993.85 1059.68 5244.13 1073.33L5244.13 1071.7C4994.13 1058.13 4748.54 1035.16 4500.07 1012.03Z" fill="#A6A6A6"/>
<path d="M4494.15 1006.62C4378.24 998.419 4261.91 990.054 4144.21 982.34C4071.79 977.398 4000.07 975.154 3929.02 975.038C3576.29 974.459 3237.65 1027.04 2882.89 1081.06C2558.3 1130.56 2234.54 1174.09 1907.55 1173.56C1743.44 1173.29 1578.65 1161.9 1412.52 1134.65C953.893 1058.77 524.171 904.378 167.605 721.086C44.7606 657.939 -59.3533 590.898 -147.623 517.262L-147.627 519.959C-59.6321 593.023 43.9318 659.572 165.813 722.309C522.655 905.683 952.652 1060.24 1411.83 1136.2C1578.24 1163.45 1743.3 1174.84 1907.55 1175.11C2234.95 1175.65 2558.85 1132.12 2883.58 1082.62C3238.33 1028.59 3576.7 976.094 3929.02 976.673C4000.06 976.789 4071.52 979.032 4143.93 983.892C4261.63 991.688 4377.96 1000.05 4493.87 1008.26C4743.87 1025.67 4991.53 1043.98 5244.15 1054.12L5244.16 1052.49C4991.67 1042.43 4744.15 1024.03 4494.15 1006.62Z" fill="#A6A6A6"/>
<path d="M4488.39 1001.3C4372.89 995.793 4257.11 990.207 4140.09 985.274C4092.31 983.152 4044.82 982.093 3997.73 982.016C3621.18 981.398 3261.87 1041.79 2883.29 1102.15C2551.53 1155.07 2218.96 1200.31 1883.02 1199.75C1719.87 1199.49 1555.91 1188.43 1390.87 1162.24C928.802 1088.07 497.7 935.724 139.206 752.838C29.9797 696.988 -65.0604 637.974 -147.701 573.993L-147.705 576.609C-65.3393 640.099 29.0132 698.622 137.552 754.061C496.184 937.111 927.698 1089.54 1390.18 1163.79C1555.49 1189.98 1719.73 1201.04 1883.02 1201.31C2219.37 1201.86 2552.08 1156.63 2884.11 1103.71C3262.69 1043.35 3621.72 983.033 3997.73 983.651C4044.81 983.728 4092.17 984.705 4139.81 986.827C4256.83 991.842 4372.61 997.427 4488.11 1002.93C4739.63 1014.38 4989.23 1028.11 5244.2 1034.66L5244.2 1033.11C4989.37 1026.48 4739.91 1012.83 4488.39 1001.3Z" fill="#A6A6A6"/>
<path d="M4482.49 995.974C4367.39 993.333 4252.16 990.364 4135.82 988.211C4113.79 987.685 4091.77 987.485 4069.87 987.449C3668.13 986.79 3287.6 1055.98 2883.81 1123.25C2544.75 1179.67 2203.5 1226.52 1858.48 1225.96C1696.29 1225.69 1533.16 1214.96 1369.22 1189.84C903.844 1117.38 471.086 967.154 110.939 784.593C14.3683 735.549 -71.4595 683.989 -147.781 628.684L-147.785 631.218C-71.8759 686.032 13.4018 737.182 109.147 785.816C469.57 968.46 902.602 1118.85 1368.53 1191.39C1532.74 1216.59 1696.15 1227.32 1858.47 1227.59C2203.91 1228.16 2545.44 1181.22 2884.5 1124.8C3288.29 1057.53 3668.67 988.344 4069.87 989.002C4091.76 989.038 4113.65 989.319 4135.68 989.764C4252.02 991.999 4367.25 994.886 4482.35 997.527C4735.39 1003.42 4986.92 1012.33 5244.24 1015.21L5244.24 1013.66C4986.92 1010.7 4735.53 1001.78 4482.49 995.974Z" fill="#A6A6A6"/>
<path d="M5143.47 993.954C4938.74 993.618 4737.46 990.999 4535.76 990.668C4515.93 990.635 4496.24 990.603 4476.55 990.653C4362 990.71 4247.18 990.685 4131.53 991.149C3708.16 992.743 3309.86 1070.49 2884.17 1144.34C2538.08 1204.43 2188.02 1253.15 1834.04 1252.57C1672.68 1252.3 1510.51 1241.82 1347.54 1217.44C878.439 1147.34 444.578 998.504 82.6405 816.348C-1.82522 773.782 -78.4398 729.104 -147.891 681.821L-147.895 684.192C-78.8561 731.147 -2.9292 775.334 80.8487 817.571C443.061 999.891 877.335 1148.81 1346.85 1218.99C1510.1 1243.37 1672.4 1253.94 1834.04 1254.2C2188.43 1254.78 2538.77 1205.98 2884.99 1145.9C3310.68 1072.04 3708.84 994.297 4131.52 992.702C4247.31 992.32 4362 992.345 4476.55 992.206C4496.24 992.238 4515.93 992.189 4535.75 992.221C4737.46 992.552 4938.74 995.253 5143.47 995.589C5176.93 995.644 5210.66 995.536 5244.25 995.51L5244.25 993.875C5210.66 993.983 5176.93 994.009 5143.47 993.954Z" fill="#A6A6A6"/>
<path d="M4470.65 985.246C4356.5 988.083 4242.36 990.839 4127.26 994.083C3706.9 1005.74 3310.11 1088.63 2884.69 1165.43C2531.43 1229.19 2172.56 1279.53 1809.49 1278.93C1648.96 1278.67 1487.75 1268.43 1325.74 1245.03C853.336 1176.73 418.095 1029.93 54.2289 848.099C-18.6815 811.52 -85.807 773.479 -147.973 733.402L-147.977 735.773C-86.3609 775.44 -19.648 813.154 52.5747 849.323C416.578 1031.24 852.232 1178.2 1325.19 1246.58C1487.34 1270.06 1648.82 1280.3 1809.49 1280.57C2172.97 1281.16 2532.12 1230.74 2885.51 1166.99C3310.93 1090.19 3707.59 1007.29 4127.39 995.718C4242.5 992.474 4356.64 989.718 4470.78 986.881C4726.88 980.516 4982.14 979.872 5244.29 975.561L5244.29 973.926C4982.28 978.238 4726.88 978.963 4470.65 985.246Z" fill="#A6A6A6"/>
<path d="M4464.74 979.921C4351.14 985.457 4237.41 991.074 4122.98 997.018C3705.64 1018.73 3310.35 1106.86 2885.07 1186.52C2524.78 1253.94 2157.09 1305.9 1784.95 1305.29C1625.37 1305.03 1464.99 1295.12 1304.08 1272.62C828.369 1206.03 391.472 1061.28 25.9532 879.851C-35.8147 849.095 -93.7256 817.2 -148.055 783.921L-148.058 786.21C-94.2794 819.079 -36.9186 850.646 24.2991 881.075C390.093 1062.67 827.265 1207.5 1303.53 1274.17C1464.58 1296.67 1625.23 1306.67 1784.94 1306.93C2157.5 1307.54 2525.47 1255.5 2885.89 1188.08C3311.32 1108.42 3706.33 1020.29 4123.26 998.653C4237.68 992.628 4351.27 987.092 4465.01 981.556C4722.63 968.9 4979.82 963.354 5244.32 955.45L5244.32 953.815C4979.83 961.719 4722.63 967.346 4464.74 979.921Z" fill="#A6A6A6"/>
<path d="M4458.96 974.6C4345.63 982.916 4232.58 991.232 4118.71 999.956C3704.24 1031.73 3310.73 1125.18 2885.58 1207.62C2518.27 1278.87 2141.49 1332.37 1760.39 1331.74C1601.78 1331.48 1442.23 1321.82 1282.42 1300.22C803.26 1235.42 364.983 1092.71 -2.32623 911.607C-53.5018 886.345 -101.922 860.27 -148.139 833.299L-148.142 835.506C-102.476 862.149 -54.6058 887.896 -4.11807 912.831C363.466 1094.02 802.156 1236.89 1281.86 1301.77C1441.95 1323.45 1601.51 1333.03 1760.39 1333.29C2141.9 1333.92 2518.96 1280.42 2886.4 1209.17C3311.56 1126.65 3705.06 1033.28 4119.12 1001.59C4232.86 992.868 4346.04 984.47 4459.23 976.236C4718.38 957.205 4977.51 946.758 5244.35 935.179L5244.35 933.544C4977.37 945.123 4718.24 955.652 4458.96 974.6Z" fill="#A6A6A6"/>
<path d="M4453.04 969.275C4340.26 980.29 4227.62 991.386 4114.43 1002.89C3702.97 1044.72 3310.98 1143.4 2885.95 1228.71C2511.62 1303.79 2126.02 1358.83 1735.7 1358.19C1578.06 1357.93 1419.6 1348.51 1260.75 1327.81C778.149 1264.73 338.492 1124.06 -30.6072 943.359C-71.3277 923.346 -110.533 902.845 -148.223 881.773L-148.226 883.981C-111.087 904.724 -72.4317 924.897 -32.3991 944.582C336.975 1125.44 777.183 1266.2 1260.2 1329.37C1419.19 1350.15 1577.78 1359.48 1735.7 1359.74C2126.43 1360.38 2512.3 1305.34 2886.92 1230.18C3311.94 1144.88 3703.8 1046.28 4114.98 1004.53C4228.17 993.022 4340.67 981.844 4453.45 970.829C4714.12 945.425 4975.05 929.912 5244.38 914.74L5244.38 913.105C4974.92 928.277 4713.85 943.789 4453.04 969.275Z" fill="#A6A6A6"/>
<path d="M4447.14 963.954C4334.77 977.666 4222.81 991.625 4110.3 1005.91C3701.72 1057.72 3311.23 1161.72 2886.48 1249.8C2505.11 1328.88 2110.43 1385.29 1711.02 1384.63C1554.2 1384.38 1396.85 1375.29 1239.1 1355.41C753.186 1294.04 311.873 1155.49 -59.0164 975.114C-89.5569 960.186 -119.271 944.932 -148.296 929.434L-148.299 931.559C-119.825 946.811 -90.6609 961.737 -60.6706 976.338C310.494 1156.87 752.082 1295.51 1238.54 1356.96C1396.43 1376.92 1554.06 1385.93 1711.01 1386.19C2110.84 1386.84 2505.79 1330.35 2887.3 1251.27C3312.32 1163.19 3702.68 1059.19 4110.85 1007.46C4223.36 993.179 4335.31 979.22 4447.68 965.508C4709.88 933.484 4972.61 912.906 5244.42 894.142L5244.42 892.507C4972.61 911.271 4709.47 931.848 4447.14 963.954Z" fill="#A6A6A6"/>
<path d="M4441.23 958.549C4329.27 975.042 4218 991.781 4106.04 1008.85C3700.33 1070.64 3311.62 1180.03 2886.86 1270.89C2498.47 1353.88 2094.69 1411.75 1686.2 1411.08C1530.48 1410.82 1373.96 1402.07 1217.44 1383.01C728.089 1323.34 285.396 1186.83 -87.2842 1006.87C-108.057 996.779 -128.28 986.609 -148.364 976.276L-148.367 978.402C-128.833 988.407 -109.161 998.331 -88.9384 1008.09C284.017 1188.22 727.123 1324.81 1216.89 1384.56C1373.68 1403.7 1530.21 1412.46 1686.2 1412.71C2095.11 1413.39 2499.29 1355.52 2887.82 1272.36C3312.72 1181.5 3701.43 1072.11 4106.72 1010.4C4218.55 993.335 4329.96 976.596 4441.92 960.185C4705.64 921.461 4970.3 895.736 5244.46 873.297L5244.46 871.662C4970.03 894.183 4705.23 919.825 4441.23 958.549Z" fill="#A6A6A6"/>
<path d="M4435.3 953.224C4323.89 972.415 4213.02 991.935 4101.75 1011.78C3699.05 1083.55 3311.98 1198.34 2887.36 1291.98C2491.94 1379.13 2079.07 1438.29 1661.22 1437.6C1506.46 1437.35 1351.18 1428.84 1195.76 1410.6C702.965 1352.57 258.753 1218.26 -115.579 1038.62C-126.723 1033.29 -137.591 1027.87 -148.459 1022.46L-148.462 1024.51C-138.144 1029.67 -127.827 1034.84 -117.371 1039.84C257.374 1219.65 701.998 1354.12 1195.21 1412.15C1350.76 1430.47 1506.32 1438.9 1661.21 1439.16C2079.49 1439.84 2492.76 1380.6 2888.32 1293.45C3313.08 1199.81 3700.15 1085.02 4102.57 1013.33C4213.85 993.489 4324.71 973.888 4436.13 954.778C4701.24 909.271 4967.84 878.399 5244.48 852.367L5244.48 850.732C4967.56 876.846 4700.83 907.717 4435.3 953.224Z" fill="#A6A6A6"/>
<path d="M4429.4 947.9C4318.4 969.708 4208.21 992.09 4097.48 1014.72C3697.8 1096.46 3312.37 1216.73 2887.75 1312.99C2485.43 1404.3 2063.21 1464.75 1636.13 1464.05C1482.61 1463.8 1328.29 1455.7 1174.11 1438.19C678.006 1381.87 232.278 1249.61 -143.846 1070.37C-145.497 1069.63 -147.01 1068.81 -148.523 1068.08L-148.527 1070.2C-147.564 1070.69 -146.601 1071.19 -145.638 1071.6C230.898 1251 677.04 1383.43 1173.56 1439.75C1328.01 1457.25 1482.33 1465.43 1636.12 1465.68C2063.62 1466.39 2486.12 1405.85 2888.85 1314.55C3313.47 1218.21 3698.9 1097.93 4098.31 1016.27C4209.04 993.644 4319.36 971.263 4430.36 949.455C4696.86 897.002 4965.4 860.983 5244.52 831.194L5244.52 829.559C4965.12 859.347 4696.31 895.448 4429.4 947.9Z" fill="#A6A6A6"/>
<path d="M4423.64 942.579C4313.04 967.085 4203.27 992.247 4093.22 1017.65C3696.41 1109.38 3312.77 1235.13 2888.27 1334.08C2478.93 1429.55 2047.48 1491.38 1611.03 1490.66C1458.48 1490.41 1305.4 1482.47 1152.46 1465.79C663.371 1412.26 224.378 1286.3 -148.589 1113.12L-148.592 1115.16C224.375 1288.1 663.093 1413.9 1151.91 1467.34C1305.12 1484.11 1458.34 1491.96 1611.03 1492.21C2047.89 1492.93 2479.62 1431.1 2889.23 1335.64C3313.86 1236.6 3697.65 1110.85 4094.18 1019.21C4204.23 993.72 4314 968.64 4424.6 944.052C4692.48 884.652 4962.95 843.323 5244.57 809.941L5244.57 808.306C4962.68 841.687 4691.93 883.098 4423.64 942.579Z" fill="#A6A6A6"/>
<path d="M4417.73 937.252C4307.55 964.457 4198.46 992.399 4088.95 1020.67C3695.16 1122.29 3313.16 1253.52 2888.66 1355.17C2472.29 1454.87 2031.47 1517.91 1585.67 1517.18C1434.36 1516.93 1282.51 1509.33 1130.81 1493.38C650.664 1442.81 219.92 1323.73 -148.652 1157.67L-148.656 1159.71C219.917 1325.53 650.386 1444.36 1130.39 1494.94C1282.23 1510.96 1434.21 1518.57 1585.66 1518.82C2031.88 1519.47 2473.11 1456.51 2889.76 1356.73C3314.39 1254.99 3696.4 1123.68 4090.05 1022.14C4199.42 993.872 4308.64 965.93 4418.7 938.725C4688.11 872.134 4960.52 825.495 5244.61 788.52L5244.61 786.885C4960.1 823.941 4687.42 870.58 4417.73 937.252Z" fill="#A6A6A6"/>
<path d="M4411.8 931.931C4302.16 961.834 4193.34 992.475 4084.8 1023.61C3693.33 1134.71 3313.52 1272 2889.16 1376.27C2465.48 1480.45 2014.89 1544.21 1559.3 1543.46C1409.51 1543.22 1259.17 1536.02 1109.13 1520.98C638.064 1472.63 215.294 1360.68 -148.747 1201.82L-148.75 1203.78C215.154 1362.48 637.786 1474.26 1108.71 1522.53C1258.89 1537.58 1409.37 1544.85 1559.3 1545.1C2015.3 1545.85 2466.3 1482.01 2890.12 1377.82C3314.76 1273.39 3694.7 1136.1 4085.9 1025.08C4194.58 993.866 4303.26 963.307 4412.9 933.404C4683.7 859.54 4957.91 807.59 5244.62 766.941L5244.63 765.224C4957.63 805.954 4683.01 857.986 4411.8 931.931Z" fill="#A6A6A6"/>
<path d="M4405.9 926.607C4296.53 959.045 4188.53 992.629 4080.53 1026.54C3691.94 1147.63 3313.91 1290.47 2889.54 1397.36C2458.97 1505.86 1998.74 1570.92 1533.66 1570.15C1385.1 1569.91 1236.14 1562.88 1087.47 1548.57C625.217 1503.02 210.422 1397.37 -148.811 1245.39L-148.814 1247.35C210.419 1399.09 625.076 1504.65 1087.06 1550.13C1235.87 1564.51 1384.96 1571.46 1533.66 1571.71C1999.15 1572.47 2459.66 1507.42 2890.64 1398.83C3315.28 1291.86 3693.45 1149.02 4081.77 1028.01C4189.77 994.021 4297.76 960.518 4407.13 927.999C4679.05 846.534 4955.33 789.273 5244.67 745.032L5244.67 743.315C4954.92 787.637 4678.22 844.979 4405.9 926.607Z" fill="#A6A6A6"/>
<path d="M4400.13 921.284C4291.17 956.42 4183.58 992.785 4076.27 1029.48C3690.69 1160.62 3314.44 1308.95 2890.07 1418.45C2452.47 1531.44 1982.6 1597.54 1508.01 1596.76C1360.7 1596.52 1213.12 1589.82 1065.82 1576.17C612.372 1533.33 205.553 1433.58 -148.873 1288.47L-148.876 1290.43C205.412 1435.38 612.094 1534.88 1065.4 1577.72C1212.84 1591.45 1360.56 1598.15 1508.01 1598.4C1983.01 1599.18 2453.16 1533 2891.16 1419.92C3315.81 1310.34 3692.06 1162.01 4077.64 1030.87C4184.96 994.177 4292.41 957.812 4401.37 922.676C4674.53 833.774 4952.75 771.039 5244.71 723.124L5244.71 721.489C4952.34 769.404 4673.71 832.301 4400.13 921.284Z" fill="#A6A6A6"/>
<path d="M4394.2 915.963C4285.64 953.798 4178.74 992.943 4071.97 1032.5C3689.27 1173.62 3315.21 1327.84 2890.42 1439.54C2446.62 1557.35 1967.25 1624.33 1483.58 1623.54C1337.23 1623.3 1190.33 1616.84 1044.14 1603.77C599.358 1563.47 200.377 1469.54 -148.965 1331.06L-148.969 1333.02C200.374 1471.26 599.218 1565.11 1043.72 1605.32C1190.19 1618.48 1337.09 1624.85 1483.58 1625.17C1967.66 1625.88 2447.45 1558.9 2891.52 1441.02C3316.59 1329.23 3690.78 1174.93 4073.48 1033.81C4180.11 994.335 4287.02 955.19 4395.57 917.274C4670.13 821.017 4950.28 752.645 5244.73 701.055L5244.73 699.42C4949.87 751.009 4669.17 819.462 4394.2 915.963Z" fill="#A6A6A6"/>
<path d="M4388.29 910.555C4280.28 951.17 4173.79 993.177 4067.84 1035.43C3688.01 1186.53 3315.6 1346.15 2890.94 1460.63C2439.7 1582.84 1950.41 1651.03 1456.83 1650.14C1311.99 1649.9 1167.03 1643.78 1022.48 1631.36C586.511 1593.53 195.231 1505.09 -149.028 1373.32L-149.031 1375.2C195.229 1506.81 586.371 1595.17 1022.07 1632.91C1166.75 1645.41 1311.99 1651.54 1456.83 1651.77C1950.82 1652.58 2440.53 1584.39 2892.04 1462.1C3316.97 1347.54 3689.52 1187.84 4069.22 1036.74C4175.3 994.487 4281.66 952.562 4389.8 911.947C4665.61 808.089 4947.7 734.162 5244.77 678.897L5244.77 677.262C4947.29 732.526 4664.65 806.535 4388.29 910.555Z" fill="#A6A6A6"/>
<path d="M4382.52 905.234C3889.71 1103.56 3434.58 1331.63 2891.32 1481.73C2432.78 1608.42 1933.3 1677.66 1429.8 1676.83C1286.75 1676.59 1143.58 1670.72 1000.68 1658.96C573.52 1623.51 189.942 1540.4 -149.096 1415.02L-149.099 1416.9C189.939 1542.12 573.38 1625.15 1000.41 1660.51C1143.3 1672.35 1286.75 1678.23 1429.8 1678.46C1933.71 1679.29 2433.6 1609.97 2892.56 1483.2C3436.23 1332.94 3891.36 1104.79 4384.03 906.627C4661.23 795.005 4945.25 715.522 5244.81 656.665L5244.81 654.948C4944.71 713.968 4660.13 793.532 4382.52 905.234Z" fill="#A6A6A6"/>
<path d="M4190.08 639.481C3827.52 749.491 3434.09 797.812 3036.61 797.16C2232.42 795.84 1411.49 594.21 795.306 298.416C377.913 98.1026 43.2231 -160.034 -146.012 -457.58L-146.015 -455.291C43.6335 -158.399 377.774 99.0834 794.479 299.069C1410.8 594.945 2232.01 796.657 3036.61 797.977C3434.36 798.63 3827.93 750.309 4190.76 640.218C4599.19 516.223 4939.14 337.835 5245.67 139.2L5245.67 138.056C4939 336.854 4598.91 515.405 4190.08 639.481Z" fill="#FFAAC4"/>
<path d="M4660.79 463.517C4512.13 529.08 4354.8 587.925 4186.2 638.577C4168.43 643.862 4150.52 649.064 4132.61 654.185C3972.28 699.455 3806.87 733.763 3638.04 757.602C3432.29 786.53 3221.62 799.918 3009.87 799.57C2722.67 799.099 2433.45 773.364 2151.97 727.287C1657 646.116 1186.92 503.103 795.792 322.616C639.918 250.586 495.072 170.644 364.281 83.6945C153.036 -57.5855 -24.8607 -216.714 -146.143 -393.243L-146.146 -391.117C-24.7255 -215.242 152.622 -56.6869 363.316 84.2652C494.107 171.214 638.953 251.156 794.965 323.187C1186.37 503.838 1656.59 646.851 2151.55 728.022C2433.31 774.181 2722.53 799.916 3009.87 800.388C3221.76 800.735 3432.43 787.347 3638.31 758.338C3807.28 734.581 3972.83 700.192 4133.16 654.84C4151.07 649.801 4168.98 644.598 4186.75 639.232C4355.35 588.662 4512.82 529.817 4661.48 464.172C4872.97 371 5065.08 262.835 5245.63 147.377L5245.63 146.232C5064.8 261.854 4872.56 370.181 4660.79 463.517Z" fill="#FFAAC4"/>
<path d="M4658.06 466.538C4508.57 530.383 4350.84 587.593 4182.23 637.591C4164.46 642.876 4146.56 648.078 4128.65 653.117C3968.73 698.061 3804.01 732.779 3635.86 757.191C3421.85 788.231 3202.64 802.504 2982.36 802.142C2705.48 801.688 2426.86 778.096 2154.6 735.63C1660.59 658.385 1190.36 521.34 796.33 346.734C639.489 277.072 492.987 199.744 360.815 114.999C155.613 -16.7881 -22.7156 -164.717 -146.217 -331.195L-146.22 -329.233C-22.7179 -163.328 155.198 -15.8895 359.851 115.488C492.022 200.314 638.662 277.643 795.503 347.386C1189.67 521.993 1660.17 659.12 2154.32 736.448C2426.58 778.913 2705.34 802.505 2982.36 802.96C3202.78 803.321 3421.99 789.048 3636.27 757.927C3804.42 733.515 3969.28 698.798 4129.34 653.772C4147.25 648.733 4165.01 643.612 4182.92 638.328C4351.52 588.33 4509.26 531.038 4658.89 467.194C4871.75 376.558 5064.54 269.866 5245.64 155.553L5245.64 154.408C5064.27 268.885 4871.2 375.739 4658.06 466.538Z" fill="#FFAAC4"/>
<path d="M4655.43 469.557C4504.99 531.684 4346.84 587.258 4178.37 636.684C4160.6 641.887 4142.7 647.008 4124.79 651.965C3965.15 696.583 3801.11 731.792 3633.65 756.777C3411.11 790.01 3183.22 805.25 2954.12 804.874C2687.71 804.437 2419.82 782.906 2157.33 743.972C1664.14 670.57 1193.63 539.574 796.834 370.849C639.026 303.557 491.004 228.76 357.315 146.22C157.881 23.1076 -20.6025 -114.44 -146.322 -271.357L-146.325 -269.558C-20.6046 -113.132 157.466 24.0061 356.35 146.791C490.177 229.331 638.198 304.209 796.007 371.502C1192.94 540.227 1663.73 671.305 2157.05 744.789C2419.68 783.642 2687.57 805.254 2954.12 805.691C3183.22 806.068 3411.38 790.828 3634.06 757.514C3801.52 732.528 3965.7 697.319 4125.34 652.702C4143.25 647.745 4161.15 642.624 4178.92 637.421C4347.39 587.995 4505.81 532.339 4656.26 470.294C4870.36 382.113 5063.97 276.894 5245.62 163.726L5245.62 162.5C5063.7 275.913 4869.95 381.295 4655.43 469.557Z" fill="#FFAAC4"/>
<path d="M4652.8 472.579C4501.53 532.905 4342.83 586.926 4174.37 635.779C4156.6 640.9 4138.83 645.94 4120.92 650.897C3961.42 695.188 3798.21 730.807 3631.57 756.366C3400.21 791.955 3163.1 808.161 2925.05 807.77C2669.38 807.35 2412.5 787.8 2160.06 752.316C1667.69 682.757 1196.89 557.81 797.333 394.966C638.556 330.043 489.154 257.778 353.809 177.525C159.731 62.4322 -18.4921 -65.7139 -146.43 -213.561L-146.433 -211.762C-18.4943 -64.406 159.316 63.3307 352.844 178.095C488.327 258.349 637.729 330.696 796.506 395.619C1196.34 558.463 1667.27 683.574 2159.64 753.051C2412.36 788.617 2669.24 808.168 2925.05 808.588C3163.24 808.978 3400.35 792.691 3631.85 757.184C3798.62 731.543 3961.97 695.924 4121.47 651.633C4139.38 646.676 4157.15 641.637 4174.92 636.516C4343.52 587.662 4502.22 533.642 4653.49 473.315C4869.1 387.671 5063.26 283.924 5245.59 171.82L5245.6 170.676C5063.12 282.943 4868.69 386.852 4652.8 472.579Z" fill="#FFAAC4"/>
<path d="M4650.19 475.6C4497.96 534.208 4338.85 586.593 4170.53 634.875C4152.76 639.914 4134.85 644.953 4117.08 649.828C3957.85 693.711 3795.33 729.822 3629.38 755.954C3388.93 793.981 3142.59 811.316 2895.05 810.909C2650.53 810.508 2404.93 792.774 2162.67 760.659C1671.26 695.026 1200.18 575.964 797.856 419.083C638.112 356.529 487.329 286.714 350.327 208.829C161.331 101.184 -16.6307 -18.2145 -146.51 -157.562L-146.512 -155.928C-16.6328 -16.9884 160.779 102.001 349.5 209.4C486.502 287.367 637.285 357.182 797.029 419.736C1199.62 576.699 1670.84 695.761 2162.39 761.394C2404.66 793.591 2650.52 811.244 2895.04 811.645C3142.73 812.052 3389.21 794.799 3629.8 756.772C3795.74 730.558 3958.4 694.447 4117.63 650.565C4135.54 645.69 4153.31 640.65 4171.08 635.529C4339.54 587.329 4498.65 534.863 4650.88 476.336C4867.86 393.146 5062.71 290.954 5245.59 179.996L5245.59 178.851C5062.44 289.973 4867.31 392.41 4650.19 475.6Z" fill="#FFAAC4"/>
<path d="M4647.55 478.62C4494.36 535.428 4334.84 586.259 4166.52 633.887C4148.75 638.926 4130.98 643.884 4113.21 648.759C3954.26 692.315 3792.42 728.836 3627.16 755.542C3377.48 796.169 3121.5 814.551 2864.18 814.129C2631.09 813.746 2396.92 797.911 2165.39 769.001C1674.8 707.212 1203.43 594.199 798.211 443.199C637.637 383.015 485.473 315.732 346.816 240.051C162.352 139.362 -14.7973 28.0575 -146.617 -103.201L-146.62 -101.647C-14.9369 29.2017 162.075 140.261 345.989 240.703C484.646 316.384 636.81 383.667 797.521 443.934C1202.88 594.934 1674.39 707.947 2165.11 769.737C2396.78 798.729 2630.95 814.563 2864.18 814.946C3121.5 815.368 3377.62 796.905 3627.58 756.36C3792.84 729.572 3954.67 693.052 4113.76 649.496C4131.53 644.62 4149.3 639.663 4167.07 634.623C4335.53 586.996 4495.05 536.165 4648.24 479.357C4866.46 398.703 5062.13 297.984 5245.56 188.17L5245.56 187.026C5061.85 297.002 4866.05 397.966 4647.55 478.62Z" fill="#FFAAC4"/>
<path d="M4644.8 481.638C4490.92 536.728 4330.85 585.923 4162.67 632.979C4144.9 637.937 4127.13 642.812 4109.23 647.688C3950.55 690.835 3789.54 727.848 3625.1 755.209C3365.64 798.437 3099.75 818.028 2832.38 817.59C2610.99 817.226 2388.52 803.127 2168.14 777.342C1678.36 719.396 1206.85 612.432 798.727 467.395C637.186 409.498 483.641 344.747 343.327 271.352C163.259 177.128 -13.2146 73.4277 -146.699 -50.1489L-146.702 -48.6775C-13.2164 74.4904 162.844 178.027 342.5 271.923C482.814 345.4 636.496 410.151 798.038 468.048C1206.3 613.167 1677.95 720.213 2167.86 778.159C2388.38 803.945 2610.85 818.043 2832.38 818.407C3099.75 818.846 3365.78 799.254 3625.38 755.945C3789.95 728.585 3951.1 691.572 4109.78 648.424C4127.68 643.549 4145.45 638.673 4163.22 633.716C4331.54 586.66 4491.47 537.465 4645.49 482.375C4865.21 404.257 5061.57 304.929 5245.55 196.261L5245.55 195.117C5061.3 304.029 4864.8 403.439 4644.8 481.638Z" fill="#FFAAC4"/>
<path d="M4642.18 484.658C4487.34 538.031 4327 585.59 4158.68 632.074C4140.91 636.949 4123.14 641.825 4105.38 646.619C3946.97 689.44 3786.65 726.863 3622.9 754.797C3353.39 800.869 3077.31 821.752 2799.61 821.296C2590.06 820.952 2379.84 808.509 2170.74 785.685C1681.79 731.665 1210.13 630.667 799.241 491.512C636.732 435.984 481.806 373.765 339.837 302.656C163.888 214.489 -11.7703 117.738 -146.781 1.35254L-146.784 2.74225C-11.7721 118.801 163.474 215.305 339.01 303.227C480.979 374.417 636.042 436.637 798.551 492.165C1209.57 631.402 1681.51 732.4 2170.6 786.42C2379.56 809.326 2590.06 821.77 2799.6 822.114C3077.44 822.57 3353.66 801.687 3623.32 755.533C3787.2 727.599 3947.52 690.177 4105.92 647.356C4123.69 642.562 4141.46 637.686 4159.23 632.81C4327.55 586.327 4488.03 538.686 4642.87 485.395C4863.83 409.814 5060.87 311.959 5245.54 204.436L5245.54 203.292C5060.74 310.977 4863.42 408.996 4642.18 484.658Z" fill="#FFAAC4"/>
<path d="M4639.56 487.679C4483.76 539.251 4323.01 585.257 4154.83 631.086C4137.06 635.962 4119.29 640.756 4101.52 645.55C3943.4 687.963 3783.76 725.877 3620.7 754.385C3340.86 803.546 3054.17 825.638 2765.73 825.165C2568.57 824.841 2370.61 813.971 2173.48 794.028C1685.35 743.851 1213.4 648.903 799.752 515.629C636.276 462.469 479.969 402.7 336.344 333.878C164.241 251.439 -10.4643 161.23 -146.863 51.709L-146.866 53.0987C-10.4661 162.292 163.827 252.256 335.517 334.531C479.142 403.353 635.586 463.204 799.063 516.363C1212.85 649.637 1685.07 744.668 2173.2 794.763C2370.47 814.788 2568.43 825.658 2765.73 825.982C3054.31 826.456 3341.13 804.364 3621.11 755.121C3784.31 726.614 3943.81 688.699 4102.07 646.287C4119.84 641.493 4137.61 636.699 4155.38 631.823C4323.56 585.993 4484.45 539.988 4640.25 488.416C4862.58 415.289 5060.31 318.906 5245.53 212.529L5245.53 211.385C5060.18 318.007 4862.17 414.553 4639.56 487.679Z" fill="#FFAAC4"/>
<path d="M4636.94 490.699C4480.31 540.554 4319.02 584.923 4150.83 630.181C4133.2 634.975 4115.43 639.687 4097.67 644.481C3939.68 686.567 3780.87 724.81 3618.5 753.972C3328.04 806.305 3030.34 829.768 2730.61 829.276C2546.26 828.974 2360.96 819.677 2176.22 802.37C1688.91 756.119 1216.26 667.628 800.261 539.745C635.678 489.2 478.129 431.718 332.848 365.182C164.454 288.063 -9.16093 204.068 -146.947 101.003L-146.949 102.311C-9.30021 205.049 164.039 288.879 332.02 365.835C477.439 432.371 634.989 489.853 799.709 540.48C1215.71 668.362 1688.63 756.854 2175.94 803.106C2360.82 820.413 2546.12 829.791 2730.61 830.094C3030.48 830.586 3328.32 807.123 3618.91 754.709C3781.42 725.628 3940.23 687.304 4098.22 645.218C4115.98 640.424 4133.75 635.712 4151.38 630.917C4319.57 585.66 4480.86 541.29 4637.49 491.436C4861.19 420.846 5059.75 325.936 5245.51 220.622L5245.51 219.56C5059.47 325.036 4860.92 420.028 4636.94 490.699Z" fill="#FFAAC4"/>
<path d="M4634.31 493.72C4476.73 541.774 4315.02 584.59 4146.84 629.275C4129.21 633.988 4111.44 638.7 4093.67 643.412C3936.1 685.09 3777.98 723.825 3616.43 753.561C3314.82 809.308 3005.82 834.143 2694.39 833.632C2522.98 833.35 2350.89 825.384 2178.82 810.714C1692.46 768.306 1219.53 685.863 800.767 563.862C635.217 515.686 476.424 460.654 329.349 396.486C164.251 324.441 -8.13341 246.089 -147.031 149.153L-147.033 150.379C-8.27269 247.069 163.975 325.258 328.522 397.139C475.597 461.389 634.527 516.339 800.215 564.597C1219.11 686.598 1692.18 769.041 2178.68 811.449C2350.75 826.201 2522.98 834.168 2694.39 834.449C3005.96 834.961 3315.09 810.126 3616.7 754.379C3778.52 724.643 3936.65 685.827 4094.22 644.067C4111.99 639.437 4129.76 634.725 4147.53 630.012C4315.57 585.327 4477.28 542.511 4634.86 494.457C4859.94 426.322 5059.18 332.966 5245.49 228.798L5245.5 227.653C5058.91 331.984 4859.53 425.585 4634.31 493.72Z" fill="#FFAAC4"/>
<path d="M4631.58 496.742C4473.3 543.079 4311.05 584.259 4143.01 628.372C4125.38 633.003 4107.61 637.633 4089.84 642.263C3932.4 683.696 3775.11 722.841 3614.25 753.15C3301.2 812.476 2980.5 838.845 2656.68 838.313C2498.9 838.054 2340.3 831.336 2181.58 819.058C1696.04 780.494 1222.82 704.1 801.301 587.981C634.783 542.174 474.61 489.674 325.879 427.792C164.078 360.493 -7.21454 287.538 -147.086 196.568L-147.088 197.713C-7.21615 288.519 163.801 361.228 325.052 428.444C473.92 490.327 634.231 542.908 800.749 588.715C1222.41 704.835 1695.77 781.311 2181.44 819.794C2340.16 832.153 2498.9 838.79 2656.68 839.049C2980.64 839.581 3301.48 813.212 3614.66 753.969C3775.66 723.577 3932.95 684.433 4090.39 643C4108.16 638.37 4125.93 633.739 4143.56 629.027C4311.6 584.995 4473.85 543.815 4632.26 497.479C4858.72 431.88 5058.5 339.915 5245.5 236.893L5245.51 235.748C5058.37 339.015 4858.3 431.062 4631.58 496.742Z" fill="#FFAAC4"/>
<path d="M4628.95 499.841C4469.72 544.378 4307.06 583.922 4139.02 627.381C4121.39 632.012 4103.76 636.561 4085.99 641.191C3928.83 682.298 3772.22 721.852 3612.05 752.817C3287.02 815.801 2954.34 843.703 2617.71 843.151C2473.83 842.915 2329.28 837.527 2184.32 827.398C1699.6 792.759 1226.1 722.332 801.813 612.176C634.327 568.656 472.911 518.607 322.386 459.011C163.744 396.213 -6.45483 328.41 -147.161 242.916L-147.163 244.061C-6.45631 329.309 163.33 397.03 321.559 459.663C472.221 519.26 633.775 569.391 801.261 612.91C1225.69 723.067 1699.33 793.494 2184.18 828.133C2329.14 838.263 2473.83 843.732 2617.71 843.968C2954.34 844.521 3287.29 816.619 3612.46 753.553C3772.77 722.589 3929.38 682.953 4086.54 641.928C4104.31 637.297 4121.94 632.749 4139.57 628.118C4307.61 584.659 4470.27 545.114 4629.5 500.496C4857.33 437.352 5057.94 346.941 5245.49 244.982L5245.49 243.92C5057.81 345.96 4857.06 436.616 4628.95 499.841Z" fill="#FFAAC4"/>
<path d="M4626.32 502.862C4466.13 545.599 4303.06 583.589 4135.15 626.476C4117.52 631.025 4099.75 635.574 4082.12 640.123C3925.24 680.821 3769.32 720.867 3609.83 752.405C3272.55 819.375 2927.2 848.891 2577.21 848.317C2447.66 848.104 2317.56 843.803 2186.91 835.741C1703.02 804.945 1229.5 740.568 802.314 636.293C633.861 595.142 471.063 547.543 318.883 490.315C163.125 431.773 -5.70522 368.795 -147.246 288.614L-147.248 289.676C-5.84436 369.694 162.848 432.59 318.193 490.968C470.511 548.278 633.309 595.877 801.762 637.027C1229.09 741.385 1702.88 805.763 2186.77 836.477C2317.42 844.621 2447.66 848.922 2577.21 849.134C2927.33 849.709 3272.82 820.193 3610.25 753.141C3769.87 721.603 3925.79 681.558 4082.67 640.859C4100.3 636.311 4118.07 631.762 4135.7 627.213C4303.61 584.326 4466.68 546.335 4626.87 503.517C4856.07 442.909 5057.37 353.889 5245.47 253.076L5245.47 252.013C5057.1 352.99 4855.66 442.091 4626.32 502.862Z" fill="#FFAAC4"/>
<path d="M4623.69 505.802C4462.68 546.902 4299.19 583.256 4131.15 625.571C4113.52 630.038 4095.89 634.506 4078.26 639.055C3921.51 679.426 3766.42 719.882 3607.76 751.994C3257.38 823.193 2899.09 854.405 2535.06 853.807C2420.51 853.619 2305.28 850.324 2189.64 844.085C1706.57 817.132 1232.77 758.804 802.815 660.41C633.394 621.629 469.353 576.48 315.379 521.538C162.368 467.088 -5.09245 408.69 -147.33 333.494L-147.332 334.557C-5.23161 409.589 162.092 467.905 314.69 522.272C468.801 577.215 632.842 622.363 802.263 661.145C1232.35 759.621 1706.43 817.95 2189.5 844.82C2305.14 851.059 2420.38 854.437 2535.06 854.625C2899.23 855.223 3257.66 823.929 3608.17 752.73C3766.97 720.618 3922.06 680.163 4078.81 639.791C4096.44 635.242 4114.07 630.775 4131.7 626.308C4299.6 583.993 4463.09 547.638 4624.24 506.538C4854.68 448.385 5056.66 360.919 5245.44 261.17L5245.45 260.107C5056.52 359.938 4854.4 447.649 4623.69 505.802Z" fill="#FFAAC4"/>
<path d="M4621.09 508.82C4459.11 548.202 4295.22 582.921 4127.32 624.664C4109.69 629.049 4092.06 633.435 4074.29 637.984C3917.96 677.947 3763.55 718.894 3605.58 751.58C3241.98 827.172 2870.05 860.241 2491.15 859.619C2392.02 859.457 2292.49 857.004 2192.4 852.426C1710.14 829.399 1236.06 777.038 803.345 684.525C632.957 648.112 467.673 605.414 311.905 552.84C161.642 502.155 -4.58723 448.092 -147.384 377.718L-147.385 378.78C-4.72642 448.991 161.227 502.971 311.216 553.574C467.121 606.149 632.542 648.929 802.793 685.26C1235.78 777.855 1710.01 830.134 2192.26 853.161C2292.35 857.822 2392.02 860.274 2491.15 860.437C2870.19 861.059 3242.25 827.99 3605.99 752.316C3764.1 719.631 3918.51 678.684 4074.84 638.72C4092.47 634.171 4110.24 629.786 4127.87 625.401C4295.63 583.658 4459.53 548.939 4621.5 509.557C4853.45 453.94 5056.12 367.865 5245.45 269.261L5245.45 268.198C5055.98 366.966 4853.04 453.122 4621.09 508.82Z" fill="#FFAAC4"/>
<path d="M4618.46 511.841C4455.52 549.423 4291.22 582.588 4123.32 623.677C4105.69 628.063 4088.06 632.448 4070.43 636.915C3914.37 676.552 3760.65 717.909 3603.36 751.168C3225.85 831.479 2840.01 866.406 2445.29 865.758C2362.27 865.622 2278.83 863.931 2194.99 860.769C1713.69 841.586 1239.32 795.274 803.708 708.642C632.49 674.681 465.963 634.351 308.402 584.144C160.61 537.06 -4.24838 487.087 -147.466 421.372L-147.467 422.353C-4.38752 487.986 160.334 537.877 307.712 584.797C465.411 635.086 632.076 675.416 803.294 709.458C1239.05 796.091 1713.55 842.403 2194.99 861.505C2278.83 864.749 2362.26 866.439 2445.28 866.575C2840.15 867.223 3226.13 832.297 3603.78 751.986C3761.2 718.646 3914.92 677.289 4070.97 637.652C4088.61 633.185 4106.24 628.799 4123.87 624.414C4291.63 583.325 4456.07 550.16 4618.87 512.66C4852.05 459.416 5055.54 374.814 5245.43 277.355L5245.43 276.292C5055.41 373.914 4851.78 458.68 4618.46 511.841Z" fill="#FFAAC4"/>
<path d="M4615.69 514.942C4452.07 550.724 4287.21 582.253 4119.45 622.77C4101.82 627.074 4084.19 631.377 4066.56 635.845C3910.64 675.073 3757.75 716.922 3601.15 750.836C3209.17 836.027 2808.74 872.974 2397.49 872.299C2331.13 872.19 2264.63 871.1 2197.72 869.028C1717.24 853.77 1242.72 813.507 804.207 732.838C632.159 701.165 464.251 663.285 304.896 615.446C159.578 571.8 -4.04856 525.752 -147.548 464.369L-147.55 465.35C-4.0499 526.57 159.301 572.617 304.207 616.099C463.699 664.02 631.607 701.899 803.793 733.573C1242.45 814.243 1717.1 854.588 2197.58 869.846C2264.49 871.917 2331.13 872.926 2397.49 873.117C2808.87 873.792 3209.45 836.845 3601.7 751.572C3758.3 717.659 3911.19 675.81 4067.11 636.581C4084.74 632.114 4102.37 627.81 4120 623.507C4287.62 582.99 4452.48 551.46 4616.24 515.678C4850.79 464.971 5054.83 381.759 5245.4 285.446L5245.4 284.384C5054.7 380.86 4850.52 464.153 4615.69 514.942Z" fill="#FFAAC4"/>
<path d="M4613.09 517.884C4448.5 551.948 4283.24 581.923 4115.48 621.868C4097.85 626.09 4080.36 630.394 4062.73 634.779C3907.08 673.681 3754.88 715.94 3599.1 750.427C3191.84 840.907 2776.39 879.873 2347.38 879.169C2298.5 879.089 2249.63 878.518 2200.48 877.375C1720.82 866.042 1246.02 831.746 804.737 756.958C631.722 727.654 462.571 692.143 301.284 646.672C158.439 606.381 -3.81689 564.014 -147.599 506.8L-147.6 507.781C-3.81823 564.832 158.162 607.198 300.732 647.406C462.157 692.878 631.307 728.389 804.461 757.694C1245.74 832.481 1720.68 866.859 2200.34 878.192C2249.49 879.335 2298.5 879.906 2347.38 879.987C2776.53 880.691 3192.11 841.725 3599.52 751.164C3755.43 716.677 3907.63 674.418 4063.14 635.516C4080.77 631.13 4098.4 626.826 4116.03 622.604C4283.65 582.66 4448.92 552.766 4613.5 518.702C4849.42 470.449 5054.29 388.792 5245.41 293.543L5245.41 292.48C5054.15 387.893 4849.15 469.631 4613.09 517.884Z" fill="#FFAAC4"/>
<path d="M4610.46 520.905C4444.91 553.251 4279.24 581.509 4111.61 620.963C4093.99 625.022 4076.36 629.325 4058.72 633.711C3903.5 672.204 3751.98 714.955 3596.89 750.016C3173.78 846.111 2742.64 887.176 2294.76 886.441C2264.2 886.391 2233.77 886.177 2203.07 885.718C1724.23 878.229 1249.28 849.9 805.238 781.076C631.255 754.14 460.861 721.08 297.781 677.976C157.27 640.795 -3.61391 601.946 -147.678 548.737L-147.679 549.718C-3.61525 602.764 156.994 641.612 297.367 678.711C460.447 721.815 630.841 754.875 804.962 781.811C1249.14 850.718 1724.23 879.046 2203.07 886.536C2233.63 886.995 2264.2 887.208 2294.76 887.258C2742.77 887.994 3174.19 846.847 3597.3 750.752C3752.53 715.692 3904.05 672.941 4059.27 634.447C4076.9 630.062 4094.53 625.84 4112.16 621.7C4279.79 582.327 4445.32 553.987 4610.87 521.723C4848.17 475.925 5053.72 395.741 5245.38 301.637L5245.39 300.574C5053.58 394.841 4847.89 475.189 4610.46 520.905Z" fill="#FFAAC4"/>
<path d="M4607.83 524.005C4441.46 554.47 4275.37 581.174 4107.61 619.974C4090.12 624.114 4072.49 628.254 4054.86 632.558C3899.77 670.807 3749.08 713.886 3594.68 749.602C3155.18 851.555 2707.64 894.965 2239.39 894.196C2228.24 894.178 2216.95 894.159 2205.8 894.059C1727.78 890.495 1252.68 868.134 805.739 805.19C630.788 780.624 459.151 749.932 294.277 709.278C155.965 675.126 -3.54812 639.549 -147.756 590.263L-147.758 591.163C-3.68726 640.448 155.688 675.943 293.863 710.013C458.737 750.667 630.374 781.359 805.463 806.007C1252.54 868.87 1727.78 891.313 2205.8 894.877C2216.95 894.977 2228.24 894.995 2239.39 895.014C2707.78 895.782 3155.45 852.373 3595.23 750.338C3749.63 714.623 3900.32 671.544 4055.41 633.295C4073.04 628.991 4090.53 624.851 4108.16 620.711C4275.65 581.992 4441.73 555.288 4608.24 524.742C4846.77 481.398 5053.14 402.687 5245.36 309.728L5245.36 308.665C5053.01 401.787 4846.5 480.662 4607.83 524.005Z" fill="#FFAAC4"/>
<path d="M4605.22 527.026C4437.9 555.772 4271.4 580.841 4103.78 619.069C4086.15 623.046 4068.66 627.186 4051.03 631.49C3896.21 669.33 3746.21 712.901 3592.5 749.19C3144.17 855.462 2688.51 901.555 2208.42 902.402C2194.38 902.461 2180.2 902.438 2166.02 902.415C1703.14 901.655 1242.9 884.059 806.27 829.307C630.489 806.865 457.471 778.787 290.803 740.501C154.551 709.213 -3.59029 676.908 -147.804 631.22L-147.806 632.2C-3.59164 677.725 154.274 710.03 290.389 741.236C457.194 779.522 630.075 807.6 805.993 830.124C1242.62 884.876 1703.14 902.472 2166.02 903.232C2180.2 903.255 2194.38 903.197 2208.42 903.22C2688.65 902.291 3144.59 856.198 3593.05 749.926C3746.76 713.637 3896.76 670.067 4051.58 632.226C4069.07 628.004 4086.7 623.864 4104.19 619.805C4271.81 581.659 4438.31 556.59 4605.5 527.763C4845.54 486.956 5052.46 409.635 5245.37 317.74L5245.37 316.759C5052.33 408.735 4845.27 486.138 4605.22 527.026Z" fill="#FFAAC4"/>
<path d="M4602.45 530.047C4434.3 557.074 4267.4 580.507 4099.78 618.163C4082.29 622.058 4064.66 626.199 4047.16 630.421C3892.49 667.934 3743.31 711.915 3590.42 748.859C3143.75 856.851 2690.84 905.974 2211.15 910.745C2141.62 911.367 2072.23 911.662 2002.84 911.548C1596.68 910.881 1193.44 896.649 806.77 853.506C630.022 833.351 455.899 807.641 287.299 771.804C152.97 743.299 -3.6615 714.022 -147.881 671.848L-147.883 672.747C-3.8005 714.839 152.832 744.035 286.885 772.539C455.485 808.376 629.745 834.086 806.494 854.241C1193.3 897.385 1596.55 911.698 2002.84 912.365C2072.23 912.479 2141.62 912.184 2211.15 911.563C2690.97 906.791 3144.16 857.587 3590.83 749.596C3743.86 712.652 3893.17 668.671 4047.58 631.157C4065.21 626.935 4082.7 622.877 4100.33 618.9C4267.81 581.325 4434.71 557.811 4602.87 530.783C4844.15 492.431 5051.89 416.583 5245.34 325.833L5245.35 324.77C5051.76 415.683 4844.01 491.613 4602.45 530.047Z" fill="#FFAAC4"/>
<path d="M4599.85 532.984C4430.88 558.293 4263.42 580.172 4095.94 617.174C4078.31 621.069 4060.82 625.128 4043.33 629.35C3888.93 666.537 3740.44 710.928 3588.24 748.445C3143.35 858.238 2693.05 910.472 2213.91 919.086C2087.1 921.249 1960.43 922.431 1834.04 922.223C1486.26 921.652 1141.39 910.296 807.299 877.62C629.583 859.835 454.217 836.494 283.823 803.106C151.555 777.139 -3.84235 750.806 -147.93 712.066L-147.931 712.966C-3.84369 751.624 151.279 777.956 283.409 803.841C453.802 837.229 629.306 860.652 807.022 878.356C1141.26 911.113 1486.26 922.47 1834.04 923.041C1960.43 923.248 2087.24 922.067 2213.91 919.904C2693.19 911.29 3143.76 859.056 3588.79 749.182C3740.98 711.664 3889.48 667.192 4043.74 630.086C4061.37 625.865 4078.86 621.888 4096.35 617.992C4263.83 580.99 4431.15 559.111 4600.26 533.802C4842.91 497.904 5051.35 423.529 5245.35 333.924L5245.35 332.862C5051.21 422.629 4842.64 497.086 4599.85 532.984Z" fill="#FFAAC4"/>
<path d="M4597.22 536.086C4427.28 559.596 4259.42 579.839 4091.94 616.269C4074.45 620.083 4056.82 624.059 4039.33 628.281C3885.34 665.06 3737.54 709.943 3586.02 748.034C3142.92 859.628 2695.24 914.972 2216.5 927.43C2033.24 932.034 1849.71 935.002 1667.15 934.703C1376.92 934.226 1089.04 925.497 807.662 901.737C629.116 886.321 452.507 865.267 280.32 834.329C149.837 810.98 -4.05016 787.348 -148.005 751.878L-148.007 752.777C-4.05164 788.247 149.699 811.716 279.906 835.146C452.23 866.084 628.839 887.138 807.523 902.555C1088.9 926.315 1376.91 935.044 1667.14 935.52C1849.71 935.82 2033.24 932.851 2216.64 928.247C2695.51 915.79 3143.34 860.446 3586.57 748.77C3738.08 710.679 3885.89 665.797 4039.88 629.018C4057.37 624.878 4074.86 620.901 4092.49 617.006C4259.83 580.657 4427.56 560.414 4597.49 536.823C4841.52 503.379 5050.77 430.477 5245.32 341.936L5245.33 340.955C5050.5 429.577 4841.38 502.562 4597.22 536.086Z" fill="#FFAAC4"/>
<path d="M4594.59 539.106C4423.69 560.898 4255.42 579.505 4088.08 615.363C4070.45 619.094 4052.96 623.071 4035.46 627.212C3881.61 663.664 3734.64 708.956 3583.81 747.621C3142.5 861.098 2697.56 919.472 2219.23 935.772C1981.72 943.72 1743.52 949.46 1506.99 949.072C1271.69 948.686 1038.06 942.253 808.163 925.853C628.649 912.806 450.797 894.121 276.816 865.632C148.12 844.657 -4.39554 823.724 -148.081 791.362L-148.082 792.179C-4.39688 824.542 147.981 845.392 276.402 866.449C450.521 894.856 628.373 913.623 808.024 926.67C1038.06 942.989 1271.69 949.503 1506.99 949.89C1743.52 950.278 1981.72 944.538 2219.37 936.589C2697.83 920.208 3142.91 861.835 3584.36 748.357C3735.18 709.693 3882.3 664.319 4036.01 627.949C4053.5 623.808 4071 619.831 4088.49 616.099C4255.83 580.323 4423.97 561.634 4594.86 539.842C4840.26 508.854 5050.06 437.424 5245.3 350.029L5245.3 348.966C5049.93 436.524 4839.99 508.036 4594.59 539.106Z" fill="#FFAAC4"/>
<path d="M4591.99 542.128C4420.27 562.119 4251.58 579.173 4084.1 614.459C4066.61 618.108 4049.12 622.004 4031.63 626.144C3878.06 662.188 3731.76 707.972 3581.77 747.21C3142.1 862.489 2699.91 923.891 2221.99 944.116C1933.53 956.068 1643.84 965.648 1356.36 965.176C1172.56 964.874 989.725 960.487 808.693 949.971C628.212 939.293 449.117 922.894 273.342 896.937C146.432 878.254 -4.71108 859.858 -148.126 830.52L-148.127 831.338C-4.71242 860.675 146.293 878.989 272.928 897.672C448.978 923.712 628.073 940.11 808.554 950.788C989.586 961.304 1172.56 965.692 1356.36 965.993C1643.83 966.465 1933.67 956.886 2221.99 944.933C2700.05 924.709 3142.51 863.225 3582.32 747.947C3732.31 708.709 3878.61 662.925 4032.04 626.881C4049.53 622.74 4067.02 618.845 4084.65 615.195C4251.86 579.991 4420.54 562.937 4592.26 542.864C4838.89 514.33 5049.52 444.373 5245.31 358.041L5245.31 357.06C5049.39 443.473 4838.76 513.594 4591.99 542.128Z" fill="#FFAAC4"/>
<path d="M4589.36 545.148C4416.68 563.421 4247.58 578.839 4080.24 613.552C4062.61 617.12 4045.12 621.016 4027.77 625.074C3874.47 660.792 3728.86 706.986 3579.55 746.797C3141.68 863.877 2702.1 928.39 2224.58 952.458C1889.03 969.238 1551.14 983.725 1216.16 983.175C1080 982.951 944.11 980.194 809.194 974.169C627.745 965.778 447.407 951.666 269.838 928.24C144.714 911.685 -5.05561 895.744 -148.2 869.268L-148.201 870.167C-5.05695 896.561 144.575 912.502 269.562 928.975C447.268 952.484 627.606 966.595 809.055 974.986C944.109 981.012 1079.86 983.687 1216.16 983.91C1551.27 984.461 1889.16 969.974 2224.72 953.276C2702.37 929.208 3142.09 864.613 3580.1 747.534C3729.41 707.722 3875.02 661.529 4028.18 625.811C4045.67 621.752 4063.16 617.939 4080.65 614.289C4247.85 579.657 4416.95 564.239 4589.49 545.884C4837.64 519.805 5048.81 451.238 5245.28 366.052L5245.28 365.071C5048.81 450.42 4837.36 519.068 4589.36 545.148Z" fill="#FFAAC4"/>
<path d="M4586.59 548.169C4413.08 564.643 4243.58 578.507 4076.24 612.566C4058.75 616.134 4041.26 619.948 4023.76 624.006C3870.74 659.316 3725.97 706.001 3577.34 746.468C3141.25 865.267 2704.28 932.891 2227.31 960.802C1848.38 982.824 1465.87 1003.45 1086.42 1002.83C993.904 1002.68 901.66 1001.22 809.695 998.286C627.278 992.264 445.835 980.44 266.335 959.463C142.859 945.118 -5.53759 931.55 -148.273 907.772L-148.274 908.59C-5.53893 932.367 142.72 945.854 266.058 960.28C445.559 981.257 627.139 993.082 809.693 999.104C901.659 1002.03 993.902 1003.41 1086.42 1003.56C1466.01 1004.19 1848.52 983.642 2227.45 961.62C2704.56 933.709 3141.66 866.085 3577.89 747.204C3726.51 706.738 3871.43 660.052 4024.31 624.743C4041.81 620.684 4059.16 616.871 4076.79 613.303C4243.85 579.325 4413.36 565.46 4586.86 548.905C4836.24 525.281 5048.24 458.187 5245.26 374.146L5245.26 373.165C5048.1 457.287 4836.1 524.545 4586.59 548.169Z" fill="#FFAAC4"/>
<path d="M4583.98 551.189C4409.66 565.944 4239.6 578.172 4072.4 611.66C4054.91 615.146 4037.42 618.878 4019.93 622.855C3867.18 657.919 3723.09 705.015 3575.16 746.055C3140.85 866.655 2706.63 937.39 2230.07 969.144C1811.47 996.987 1387.51 1024.74 966.35 1024.05C914.169 1023.96 862.127 1023.39 810.223 1022.4C626.839 1018.83 444.153 1009.05 262.859 990.766C140.894 978.304 -5.99167 966.945 -148.318 945.866L-148.32 946.683C-5.99302 967.762 140.893 979.04 262.582 991.583C444.014 1009.87 626.7 1019.57 810.222 1023.22C862.125 1024.2 914.168 1024.78 966.348 1024.87C1387.51 1025.56 1811.61 997.804 2230.2 969.961C2706.91 938.127 3141.26 867.474 3575.84 746.791C3723.64 705.67 3867.73 658.656 4020.48 623.673C4037.83 619.614 4055.32 615.883 4072.81 612.396C4239.88 578.99 4409.79 566.762 4584.26 551.925C4835.01 530.755 5047.69 465.134 5245.26 382.157L5245.27 381.176C5047.56 464.234 4834.87 529.937 4583.98 551.189Z" fill="#FFAAC4"/>
<path d="M4581.35 554.209C4387.75 568.606 4199.94 580.07 4016.06 621.786C3863.46 656.442 3720.19 704.029 3573.08 745.643C3140.43 868.127 2708.82 941.891 2232.66 977.487C1777.85 1011.56 1315.46 1047.51 855.056 1046.76C655.834 1046.43 457.035 1039.23 259.217 1022.07C139.04 1011.65 -6.61088 1002.42 -148.391 983.961L-148.393 984.778C-6.61222 1003.24 138.901 1012.39 259.078 1022.89C456.896 1040.05 655.833 1047.16 855.055 1047.49C1315.59 1048.25 1777.98 1012.38 2232.93 978.305C2709.09 942.627 3140.84 868.863 3573.63 746.379C3720.74 704.684 3864.15 657.179 4016.48 622.523C4200.21 580.806 4387.89 569.424 4581.49 555.027C4833.61 536.23 5047.12 472.081 5245.24 390.168L5245.24 389.187C5046.99 471.182 4833.48 535.412 4581.35 554.209Z" fill="#FFAAC4"/>
</svg>
