<svg width="26" height="26" viewBox="0 0 26 26" fill="none" xmlns="http://www.w3.org/2000/svg">
<path d="M25.7143 2.78268L23.2163 0.285315C22.8365 -0.0951051 22.218 -0.0951051 21.8376 0.285315L20.6621 1.46216L24.5375 5.33752L25.7143 4.16205C26.0947 3.78094 26.0947 3.16447 25.7143 2.78268Z" fill="#E57373"/>
<path d="M22.6016 7.27344L5.18135 24.6943L1.30548 20.8185L18.7257 3.39771L22.6016 7.27344Z" fill="#FF9800"/>
<path d="M18.7227 3.39844L20.6601 1.45962L24.5382 5.33503L22.6008 7.27385L18.7227 3.39844Z" fill="#B0BEC5"/>
<path d="M1.30342 20.8205L0 26L5.18015 24.6959L1.30342 20.8205Z" fill="#FFC107"/>
<path d="M0.660262 23.3808L0 26L2.61847 25.3397L0.660262 23.3808Z" fill="#37474F"/>
</svg>
